<svg width="269" height="206" viewBox="0 0 269 206" fill="none" xmlns="http://www.w3.org/2000/svg">
<path d="M112.793 0.607212L112.793 5.60721C112.793 5.60721 93.9388 17.5 81.8576 17.5C69.7763 17.5 50.9217 5.60721 50.9217 5.60721L50.9217 0.607209C50.9217 0.607209 69.7763 12.5 81.8576 12.5C93.9388 12.5 112.793 0.607212 112.793 0.607212Z" fill="#E76F51" fill-opacity="0.75"/>
<path d="M213.872 0.999989L213.872 5.99999C213.872 5.99999 195.017 17.8928 182.936 17.8928C170.854 17.8928 152 5.99999 152 5.99999L152 0.999986C152 0.999986 170.854 12.8928 182.936 12.8928C195.017 12.8928 213.872 0.999989 213.872 0.999989Z" fill="#E76F51" fill-opacity="0.75"/>
<path d="M7.27628 152.14V157.18H4.86428V152.14L0.121281 144.166H2.25428C2.46428 144.166 2.62928 144.217 2.74928 144.319C2.87528 144.421 2.98028 144.55 3.06428 144.706L5.44028 149.053C5.57828 149.311 5.69828 149.554 5.80028 149.782C5.90828 150.01 6.00428 150.238 6.08828 150.466C6.16628 150.238 6.25628 150.01 6.35828 149.782C6.46028 149.554 6.57728 149.311 6.70928 149.053L9.07628 144.706C9.14228 144.574 9.24128 144.451 9.37328 144.337C9.50528 144.223 9.67328 144.166 9.87728 144.166H12.0193L7.27628 152.14ZM15.0551 147.802C15.7391 147.802 16.3601 147.913 16.9181 148.135C17.4821 148.357 17.9621 148.672 18.3581 149.08C18.7601 149.488 19.0691 149.986 19.2851 150.574C19.5011 151.162 19.6091 151.819 19.6091 152.545C19.6091 153.277 19.5011 153.937 19.2851 154.525C19.0691 155.113 18.7601 155.614 18.3581 156.028C17.9621 156.442 17.4821 156.76 16.9181 156.982C16.3601 157.204 15.7391 157.315 15.0551 157.315C14.3651 157.315 13.7381 157.204 13.1741 156.982C12.6101 156.76 12.1271 156.442 11.7251 156.028C11.3291 155.614 11.0201 155.113 10.7981 154.525C10.5821 153.937 10.4741 153.277 10.4741 152.545C10.4741 151.819 10.5821 151.162 10.7981 150.574C11.0201 149.986 11.3291 149.488 11.7251 149.08C12.1271 148.672 12.6101 148.357 13.1741 148.135C13.7381 147.913 14.3651 147.802 15.0551 147.802ZM15.0551 155.605C15.8231 155.605 16.3901 155.347 16.7561 154.831C17.1281 154.315 17.3141 153.559 17.3141 152.563C17.3141 151.567 17.1281 150.808 16.7561 150.286C16.3901 149.764 15.8231 149.503 15.0551 149.503C14.2751 149.503 13.6961 149.767 13.3181 150.295C12.9461 150.817 12.7601 151.573 12.7601 152.563C12.7601 153.553 12.9461 154.309 13.3181 154.831C13.6961 155.347 14.2751 155.605 15.0551 155.605ZM29.261 147.946V157.18H27.902C27.608 157.18 27.422 157.045 27.344 156.775L27.191 156.037C26.813 156.421 26.396 156.733 25.94 156.973C25.484 157.207 24.947 157.324 24.329 157.324C23.825 157.324 23.378 157.24 22.988 157.072C22.604 156.898 22.28 156.655 22.016 156.343C21.752 156.031 21.551 155.662 21.413 155.236C21.281 154.804 21.215 154.33 21.215 153.814V147.946H23.438V153.814C23.438 154.378 23.567 154.816 23.825 155.128C24.089 155.434 24.482 155.587 25.004 155.587C25.388 155.587 25.748 155.503 26.084 155.335C26.42 155.161 26.738 154.924 27.038 154.624V147.946H29.261ZM38.0651 148.936C38.4251 148.6 38.8211 148.327 39.2531 148.117C39.6851 147.907 40.1921 147.802 40.7741 147.802C41.2781 147.802 41.7251 147.889 42.1151 148.063C42.5051 148.231 42.8291 148.471 43.0871 148.783C43.3511 149.089 43.5491 149.458 43.6811 149.89C43.8191 150.316 43.8881 150.787 43.8881 151.303V157.18H41.6651V151.303C41.6651 150.739 41.5361 150.304 41.2781 149.998C41.0201 149.686 40.6271 149.53 40.0991 149.53C39.7151 149.53 39.3551 149.617 39.0191 149.791C38.6831 149.965 38.3651 150.202 38.0651 150.502V157.18H35.8421V143.806H38.0651V148.936ZM50.8803 153.238C50.2383 153.268 49.6983 153.325 49.2603 153.409C48.8223 153.487 48.4713 153.589 48.2073 153.715C47.9433 153.841 47.7543 153.988 47.6403 154.156C47.5263 154.324 47.4693 154.507 47.4693 154.705C47.4693 155.095 47.5833 155.374 47.8113 155.542C48.0453 155.71 48.3483 155.794 48.7203 155.794C49.1763 155.794 49.5693 155.713 49.8993 155.551C50.2353 155.383 50.5623 155.131 50.8803 154.795V153.238ZM45.7863 149.233C46.8483 148.261 48.1263 147.775 49.6203 147.775C50.1603 147.775 50.6433 147.865 51.0693 148.045C51.4953 148.219 51.8553 148.465 52.1493 148.783C52.4433 149.095 52.6653 149.47 52.8153 149.908C52.9713 150.346 53.0493 150.826 53.0493 151.348V157.18H52.0413C51.8313 157.18 51.6693 157.15 51.5553 157.09C51.4413 157.024 51.3513 156.895 51.2853 156.703L51.0873 156.037C50.8533 156.247 50.6253 156.433 50.4033 156.595C50.1813 156.751 49.9503 156.883 49.7103 156.991C49.4703 157.099 49.2123 157.18 48.9363 157.234C48.6663 157.294 48.3663 157.324 48.0363 157.324C47.6463 157.324 47.2863 157.273 46.9563 157.171C46.6263 157.063 46.3413 156.904 46.1013 156.694C45.8613 156.484 45.6753 156.223 45.5433 155.911C45.4113 155.599 45.3453 155.236 45.3453 154.822C45.3453 154.588 45.3843 154.357 45.4623 154.129C45.5403 153.895 45.6663 153.673 45.8403 153.463C46.0203 153.253 46.2513 153.055 46.5333 152.869C46.8153 152.683 47.1603 152.521 47.5683 152.383C47.9823 152.245 48.4623 152.134 49.0083 152.05C49.5543 151.96 50.1783 151.906 50.8803 151.888V151.348C50.8803 150.73 50.7483 150.274 50.4843 149.98C50.2203 149.68 49.8393 149.53 49.3413 149.53C48.9813 149.53 48.6813 149.572 48.4413 149.656C48.2073 149.74 48.0003 149.836 47.8203 149.944C47.6403 150.046 47.4753 150.139 47.3253 150.223C47.1813 150.307 47.0193 150.349 46.8393 150.349C46.6833 150.349 46.5513 150.31 46.4433 150.232C46.3353 150.148 46.2483 150.052 46.1823 149.944L45.7863 149.233ZM63.257 147.946L59.594 157.18H57.578L53.915 147.946H55.751C55.919 147.946 56.057 147.985 56.165 148.063C56.279 148.141 56.354 148.24 56.39 148.36L58.172 153.292C58.268 153.58 58.352 153.862 58.424 154.138C58.496 154.414 58.559 154.69 58.613 154.966C58.673 154.69 58.739 154.414 58.811 154.138C58.883 153.862 58.97 153.58 59.072 153.292L60.89 148.36C60.932 148.24 61.007 148.141 61.115 148.063C61.223 147.985 61.352 147.946 61.502 147.946H63.257ZM70.1095 151.501C70.1095 151.213 70.0675 150.943 69.9835 150.691C69.9055 150.433 69.7855 150.208 69.6235 150.016C69.4615 149.824 69.2545 149.674 69.0025 149.566C68.7565 149.452 68.4685 149.395 68.1385 149.395C67.4965 149.395 66.9895 149.578 66.6175 149.944C66.2515 150.31 66.0175 150.829 65.9155 151.501H70.1095ZM65.8705 152.842C65.9065 153.316 65.9905 153.727 66.1225 154.075C66.2545 154.417 66.4285 154.702 66.6445 154.93C66.8605 155.152 67.1155 155.32 67.4095 155.434C67.7095 155.542 68.0395 155.596 68.3995 155.596C68.7595 155.596 69.0685 155.554 69.3265 155.47C69.5905 155.386 69.8185 155.293 70.0105 155.191C70.2085 155.089 70.3795 154.996 70.5235 154.912C70.6735 154.828 70.8175 154.786 70.9555 154.786C71.1415 154.786 71.2795 154.855 71.3695 154.993L72.0085 155.803C71.7625 156.091 71.4865 156.334 71.1805 156.532C70.8745 156.724 70.5535 156.88 70.2175 157C69.8875 157.114 69.5485 157.195 69.2005 157.243C68.8585 157.291 68.5255 157.315 68.2015 157.315C67.5595 157.315 66.9625 157.21 66.4105 157C65.8585 156.784 65.3785 156.469 64.9705 156.055C64.5625 155.635 64.2415 155.119 64.0075 154.507C63.7735 153.889 63.6565 153.175 63.6565 152.365C63.6565 151.735 63.7585 151.144 63.9625 150.592C64.1665 150.034 64.4575 149.551 64.8355 149.143C65.2195 148.729 65.6845 148.402 66.2305 148.162C66.7825 147.922 67.4035 147.802 68.0935 147.802C68.6755 147.802 69.2125 147.895 69.7045 148.081C70.1965 148.267 70.6195 148.54 70.9735 148.9C71.3275 149.254 71.6035 149.692 71.8015 150.214C72.0055 150.73 72.1075 151.321 72.1075 151.987C72.1075 152.323 72.0715 152.551 71.9995 152.671C71.9275 152.785 71.7895 152.842 71.5855 152.842H65.8705ZM75.8547 149.08C76.0407 148.894 76.2357 148.723 76.4397 148.567C76.6497 148.405 76.8687 148.27 77.0967 148.162C77.3307 148.048 77.5797 147.961 77.8437 147.901C78.1077 147.835 78.3957 147.802 78.7077 147.802C79.2117 147.802 79.6587 147.889 80.0487 148.063C80.4387 148.231 80.7627 148.471 81.0207 148.783C81.2847 149.089 81.4827 149.458 81.6147 149.89C81.7527 150.316 81.8217 150.787 81.8217 151.303V157.18H79.5987V151.303C79.5987 150.739 79.4697 150.304 79.2117 149.998C78.9537 149.686 78.5607 149.53 78.0327 149.53C77.6487 149.53 77.2887 149.617 76.9527 149.791C76.6167 149.965 76.2987 150.202 75.9987 150.502V157.18H73.7757V147.946H75.1347C75.4227 147.946 75.6117 148.081 75.7017 148.351L75.8547 149.08ZM85.4452 144.166V146.758L85.2472 148.162C85.1992 148.426 85.1212 148.63 85.0132 148.774C84.9052 148.912 84.7252 148.981 84.4732 148.981C84.2512 148.981 84.0802 148.912 83.9602 148.774C83.8402 148.63 83.7562 148.426 83.7082 148.162L83.5102 146.758V144.166H85.4452ZM90.5647 157.324C89.7607 157.324 89.1427 157.099 88.7107 156.649C88.2847 156.193 88.0717 155.566 88.0717 154.768V149.611H87.1267C87.0067 149.611 86.9047 149.572 86.8207 149.494C86.7367 149.416 86.6947 149.299 86.6947 149.143V148.261L88.1797 148.018L88.6477 145.498C88.6777 145.378 88.7347 145.285 88.8187 145.219C88.9027 145.153 89.0107 145.12 89.1427 145.12H90.2947V148.027H92.7607V149.611H90.2947V154.615C90.2947 154.903 90.3637 155.128 90.5017 155.29C90.6457 155.452 90.8407 155.533 91.0867 155.533C91.2247 155.533 91.3387 155.518 91.4287 155.488C91.5247 155.452 91.6057 155.416 91.6717 155.38C91.7437 155.344 91.8067 155.311 91.8607 155.281C91.9147 155.245 91.9687 155.227 92.0227 155.227C92.0887 155.227 92.1427 155.245 92.1847 155.281C92.2267 155.311 92.2717 155.359 92.3197 155.425L92.9857 156.505C92.6617 156.775 92.2897 156.979 91.8697 157.117C91.4497 157.255 91.0147 157.324 90.5647 157.324ZM98.5609 157.18V147.946H99.9199C100.208 147.946 100.397 148.081 100.487 148.351L100.631 149.035C100.793 148.855 100.961 148.69 101.135 148.54C101.315 148.39 101.504 148.261 101.702 148.153C101.906 148.045 102.122 147.961 102.35 147.901C102.584 147.835 102.839 147.802 103.115 147.802C103.697 147.802 104.174 147.961 104.546 148.279C104.924 148.591 105.206 149.008 105.392 149.53C105.536 149.224 105.716 148.963 105.932 148.747C106.148 148.525 106.385 148.345 106.643 148.207C106.901 148.069 107.174 147.967 107.462 147.901C107.756 147.835 108.05 147.802 108.344 147.802C108.854 147.802 109.307 147.88 109.703 148.036C110.099 148.192 110.432 148.42 110.702 148.72C110.972 149.02 111.176 149.386 111.314 149.818C111.458 150.25 111.53 150.745 111.53 151.303V157.18H109.307V151.303C109.307 150.715 109.178 150.274 108.92 149.98C108.662 149.68 108.284 149.53 107.786 149.53C107.558 149.53 107.345 149.569 107.147 149.647C106.955 149.725 106.784 149.839 106.634 149.989C106.49 150.133 106.376 150.316 106.292 150.538C106.208 150.76 106.166 151.015 106.166 151.303V157.18H103.934V151.303C103.934 150.685 103.808 150.235 103.556 149.953C103.31 149.671 102.947 149.53 102.467 149.53C102.143 149.53 101.84 149.611 101.558 149.773C101.282 149.929 101.024 150.145 100.784 150.421V157.18H98.5609ZM118.521 153.238C117.879 153.268 117.339 153.325 116.901 153.409C116.463 153.487 116.112 153.589 115.848 153.715C115.584 153.841 115.395 153.988 115.281 154.156C115.167 154.324 115.11 154.507 115.11 154.705C115.11 155.095 115.224 155.374 115.452 155.542C115.686 155.71 115.989 155.794 116.361 155.794C116.817 155.794 117.21 155.713 117.54 155.551C117.876 155.383 118.203 155.131 118.521 154.795V153.238ZM113.427 149.233C114.489 148.261 115.767 147.775 117.261 147.775C117.801 147.775 118.284 147.865 118.71 148.045C119.136 148.219 119.496 148.465 119.79 148.783C120.084 149.095 120.306 149.47 120.456 149.908C120.612 150.346 120.69 150.826 120.69 151.348V157.18H119.682C119.472 157.18 119.31 157.15 119.196 157.09C119.082 157.024 118.992 156.895 118.926 156.703L118.728 156.037C118.494 156.247 118.266 156.433 118.044 156.595C117.822 156.751 117.591 156.883 117.351 156.991C117.111 157.099 116.853 157.18 116.577 157.234C116.307 157.294 116.007 157.324 115.677 157.324C115.287 157.324 114.927 157.273 114.597 157.171C114.267 157.063 113.982 156.904 113.742 156.694C113.502 156.484 113.316 156.223 113.184 155.911C113.052 155.599 112.986 155.236 112.986 154.822C112.986 154.588 113.025 154.357 113.103 154.129C113.181 153.895 113.307 153.673 113.481 153.463C113.661 153.253 113.892 153.055 114.174 152.869C114.456 152.683 114.801 152.521 115.209 152.383C115.623 152.245 116.103 152.134 116.649 152.05C117.195 151.96 117.819 151.906 118.521 151.888V151.348C118.521 150.73 118.389 150.274 118.125 149.98C117.861 149.68 117.48 149.53 116.982 149.53C116.622 149.53 116.322 149.572 116.082 149.656C115.848 149.74 115.641 149.836 115.461 149.944C115.281 150.046 115.116 150.139 114.966 150.223C114.822 150.307 114.66 150.349 114.48 150.349C114.324 150.349 114.192 150.31 114.084 150.232C113.976 150.148 113.889 150.052 113.823 149.944L113.427 149.233ZM128.58 150.304C128.328 149.998 128.052 149.782 127.752 149.656C127.458 149.53 127.14 149.467 126.798 149.467C126.462 149.467 126.159 149.53 125.889 149.656C125.619 149.782 125.388 149.974 125.196 150.232C125.004 150.484 124.857 150.808 124.755 151.204C124.653 151.594 124.602 152.056 124.602 152.59C124.602 153.13 124.644 153.589 124.728 153.967C124.818 154.339 124.944 154.645 125.106 154.885C125.268 155.119 125.466 155.29 125.7 155.398C125.934 155.5 126.195 155.551 126.483 155.551C126.945 155.551 127.338 155.455 127.662 155.263C127.986 155.071 128.292 154.798 128.58 154.444V150.304ZM130.803 143.806V157.18H129.444C129.15 157.18 128.964 157.045 128.886 156.775L128.697 155.884C128.325 156.31 127.896 156.655 127.41 156.919C126.93 157.183 126.369 157.315 125.727 157.315C125.223 157.315 124.761 157.21 124.341 157C123.921 156.79 123.558 156.487 123.252 156.091C122.952 155.689 122.718 155.194 122.55 154.606C122.388 154.018 122.307 153.346 122.307 152.59C122.307 151.906 122.4 151.27 122.586 150.682C122.772 150.094 123.039 149.584 123.387 149.152C123.735 148.72 124.152 148.384 124.638 148.144C125.124 147.898 125.67 147.775 126.276 147.775C126.792 147.775 127.233 147.856 127.599 148.018C127.965 148.18 128.292 148.399 128.58 148.675V143.806H130.803ZM138.945 151.501C138.945 151.213 138.903 150.943 138.819 150.691C138.741 150.433 138.621 150.208 138.459 150.016C138.297 149.824 138.09 149.674 137.838 149.566C137.592 149.452 137.304 149.395 136.974 149.395C136.332 149.395 135.825 149.578 135.453 149.944C135.087 150.31 134.853 150.829 134.751 151.501H138.945ZM134.706 152.842C134.742 153.316 134.826 153.727 134.958 154.075C135.09 154.417 135.264 154.702 135.48 154.93C135.696 155.152 135.951 155.32 136.245 155.434C136.545 155.542 136.875 155.596 137.235 155.596C137.595 155.596 137.904 155.554 138.162 155.47C138.426 155.386 138.654 155.293 138.846 155.191C139.044 155.089 139.215 154.996 139.359 154.912C139.509 154.828 139.653 154.786 139.791 154.786C139.977 154.786 140.115 154.855 140.205 154.993L140.844 155.803C140.598 156.091 140.322 156.334 140.016 156.532C139.71 156.724 139.389 156.88 139.053 157C138.723 157.114 138.384 157.195 138.036 157.243C137.694 157.291 137.361 157.315 137.037 157.315C136.395 157.315 135.798 157.21 135.246 157C134.694 156.784 134.214 156.469 133.806 156.055C133.398 155.635 133.077 155.119 132.843 154.507C132.609 153.889 132.492 153.175 132.492 152.365C132.492 151.735 132.594 151.144 132.798 150.592C133.002 150.034 133.293 149.551 133.671 149.143C134.055 148.729 134.52 148.402 135.066 148.162C135.618 147.922 136.239 147.802 136.929 147.802C137.511 147.802 138.048 147.895 138.54 148.081C139.032 148.267 139.455 148.54 139.809 148.9C140.163 149.254 140.439 149.692 140.637 150.214C140.841 150.73 140.943 151.321 140.943 151.987C140.943 152.323 140.907 152.551 140.835 152.671C140.763 152.785 140.625 152.842 140.421 152.842H134.706ZM151.867 153.238C151.225 153.268 150.685 153.325 150.247 153.409C149.809 153.487 149.458 153.589 149.194 153.715C148.93 153.841 148.741 153.988 148.627 154.156C148.513 154.324 148.456 154.507 148.456 154.705C148.456 155.095 148.57 155.374 148.798 155.542C149.032 155.71 149.335 155.794 149.707 155.794C150.163 155.794 150.556 155.713 150.886 155.551C151.222 155.383 151.549 155.131 151.867 154.795V153.238ZM146.773 149.233C147.835 148.261 149.113 147.775 150.607 147.775C151.147 147.775 151.63 147.865 152.056 148.045C152.482 148.219 152.842 148.465 153.136 148.783C153.43 149.095 153.652 149.47 153.802 149.908C153.958 150.346 154.036 150.826 154.036 151.348V157.18H153.028C152.818 157.18 152.656 157.15 152.542 157.09C152.428 157.024 152.338 156.895 152.272 156.703L152.074 156.037C151.84 156.247 151.612 156.433 151.39 156.595C151.168 156.751 150.937 156.883 150.697 156.991C150.457 157.099 150.199 157.18 149.923 157.234C149.653 157.294 149.353 157.324 149.023 157.324C148.633 157.324 148.273 157.273 147.943 157.171C147.613 157.063 147.328 156.904 147.088 156.694C146.848 156.484 146.662 156.223 146.53 155.911C146.398 155.599 146.332 155.236 146.332 154.822C146.332 154.588 146.371 154.357 146.449 154.129C146.527 153.895 146.653 153.673 146.827 153.463C147.007 153.253 147.238 153.055 147.52 152.869C147.802 152.683 148.147 152.521 148.555 152.383C148.969 152.245 149.449 152.134 149.995 152.05C150.541 151.96 151.165 151.906 151.867 151.888V151.348C151.867 150.73 151.735 150.274 151.471 149.98C151.207 149.68 150.826 149.53 150.328 149.53C149.968 149.53 149.668 149.572 149.428 149.656C149.194 149.74 148.987 149.836 148.807 149.944C148.627 150.046 148.462 150.139 148.312 150.223C148.168 150.307 148.006 150.349 147.826 150.349C147.67 150.349 147.538 150.31 147.43 150.232C147.322 150.148 147.235 150.052 147.169 149.944L146.773 149.233ZM158.208 149.08C158.394 148.894 158.589 148.723 158.793 148.567C159.003 148.405 159.222 148.27 159.45 148.162C159.684 148.048 159.933 147.961 160.197 147.901C160.461 147.835 160.749 147.802 161.061 147.802C161.565 147.802 162.012 147.889 162.402 148.063C162.792 148.231 163.116 148.471 163.374 148.783C163.638 149.089 163.836 149.458 163.968 149.89C164.106 150.316 164.175 150.787 164.175 151.303V157.18H161.952V151.303C161.952 150.739 161.823 150.304 161.565 149.998C161.307 149.686 160.914 149.53 160.386 149.53C160.002 149.53 159.642 149.617 159.306 149.791C158.97 149.965 158.652 150.202 158.352 150.502V157.18H156.129V147.946H157.488C157.776 147.946 157.965 148.081 158.055 148.351L158.208 149.08ZM174.431 147.946L169.4 159.718C169.334 159.874 169.247 159.991 169.139 160.069C169.037 160.153 168.878 160.195 168.662 160.195H167.006L168.734 156.487L164.999 147.946H166.952C167.126 147.946 167.261 147.988 167.357 148.072C167.459 148.156 167.534 148.252 167.582 148.36L169.544 153.148C169.61 153.31 169.664 153.472 169.706 153.634C169.754 153.796 169.799 153.961 169.841 154.129C169.895 153.961 169.949 153.796 170.003 153.634C170.057 153.466 170.117 153.301 170.183 153.139L172.037 148.36C172.085 148.24 172.163 148.141 172.271 148.063C172.385 147.985 172.511 147.946 172.649 147.946H174.431ZM182.533 157.324C181.729 157.324 181.111 157.099 180.679 156.649C180.253 156.193 180.04 155.566 180.04 154.768V149.611H179.095C178.975 149.611 178.873 149.572 178.789 149.494C178.705 149.416 178.663 149.299 178.663 149.143V148.261L180.148 148.018L180.616 145.498C180.646 145.378 180.703 145.285 180.787 145.219C180.871 145.153 180.979 145.12 181.111 145.12H182.263V148.027H184.729V149.611H182.263V154.615C182.263 154.903 182.332 155.128 182.47 155.29C182.614 155.452 182.809 155.533 183.055 155.533C183.193 155.533 183.307 155.518 183.397 155.488C183.493 155.452 183.574 155.416 183.64 155.38C183.712 155.344 183.775 155.311 183.829 155.281C183.883 155.245 183.937 155.227 183.991 155.227C184.057 155.227 184.111 155.245 184.153 155.281C184.195 155.311 184.24 155.359 184.288 155.425L184.954 156.505C184.63 156.775 184.258 156.979 183.838 157.117C183.418 157.255 182.983 157.324 182.533 157.324ZM188.25 149.548C188.538 148.996 188.88 148.564 189.276 148.252C189.672 147.934 190.14 147.775 190.68 147.775C191.106 147.775 191.448 147.868 191.706 148.054L191.562 149.719C191.532 149.827 191.487 149.905 191.427 149.953C191.373 149.995 191.298 150.016 191.202 150.016C191.112 150.016 190.977 150.001 190.797 149.971C190.623 149.941 190.452 149.926 190.284 149.926C190.038 149.926 189.819 149.962 189.627 150.034C189.435 150.106 189.261 150.211 189.105 150.349C188.955 150.481 188.82 150.643 188.7 150.835C188.586 151.027 188.478 151.246 188.376 151.492V157.18H186.153V147.946H187.458C187.686 147.946 187.845 147.988 187.935 148.072C188.025 148.15 188.085 148.294 188.115 148.504L188.25 149.548ZM197.622 153.238C196.98 153.268 196.44 153.325 196.002 153.409C195.564 153.487 195.213 153.589 194.949 153.715C194.685 153.841 194.496 153.988 194.382 154.156C194.268 154.324 194.211 154.507 194.211 154.705C194.211 155.095 194.325 155.374 194.553 155.542C194.787 155.71 195.09 155.794 195.462 155.794C195.918 155.794 196.311 155.713 196.641 155.551C196.977 155.383 197.304 155.131 197.622 154.795V153.238ZM192.528 149.233C193.59 148.261 194.868 147.775 196.362 147.775C196.902 147.775 197.385 147.865 197.811 148.045C198.237 148.219 198.597 148.465 198.891 148.783C199.185 149.095 199.407 149.47 199.557 149.908C199.713 150.346 199.791 150.826 199.791 151.348V157.18H198.783C198.573 157.18 198.411 157.15 198.297 157.09C198.183 157.024 198.093 156.895 198.027 156.703L197.829 156.037C197.595 156.247 197.367 156.433 197.145 156.595C196.923 156.751 196.692 156.883 196.452 156.991C196.212 157.099 195.954 157.18 195.678 157.234C195.408 157.294 195.108 157.324 194.778 157.324C194.388 157.324 194.028 157.273 193.698 157.171C193.368 157.063 193.083 156.904 192.843 156.694C192.603 156.484 192.417 156.223 192.285 155.911C192.153 155.599 192.087 155.236 192.087 154.822C192.087 154.588 192.126 154.357 192.204 154.129C192.282 153.895 192.408 153.673 192.582 153.463C192.762 153.253 192.993 153.055 193.275 152.869C193.557 152.683 193.902 152.521 194.31 152.383C194.724 152.245 195.204 152.134 195.75 152.05C196.296 151.96 196.92 151.906 197.622 151.888V151.348C197.622 150.73 197.49 150.274 197.226 149.98C196.962 149.68 196.581 149.53 196.083 149.53C195.723 149.53 195.423 149.572 195.183 149.656C194.949 149.74 194.742 149.836 194.562 149.944C194.382 150.046 194.217 150.139 194.067 150.223C193.923 150.307 193.761 150.349 193.581 150.349C193.425 150.349 193.293 150.31 193.185 150.232C193.077 150.148 192.99 150.052 192.924 149.944L192.528 149.233ZM203.964 149.08C204.15 148.894 204.345 148.723 204.549 148.567C204.759 148.405 204.978 148.27 205.206 148.162C205.44 148.048 205.689 147.961 205.953 147.901C206.217 147.835 206.505 147.802 206.817 147.802C207.321 147.802 207.768 147.889 208.158 148.063C208.548 148.231 208.872 148.471 209.13 148.783C209.394 149.089 209.592 149.458 209.724 149.89C209.862 150.316 209.931 150.787 209.931 151.303V157.18H207.708V151.303C207.708 150.739 207.579 150.304 207.321 149.998C207.063 149.686 206.67 149.53 206.142 149.53C205.758 149.53 205.398 149.617 205.062 149.791C204.726 149.965 204.408 150.202 204.108 150.502V157.18H201.885V147.946H203.244C203.532 147.946 203.721 148.081 203.811 148.351L203.964 149.08ZM217.679 149.746C217.619 149.842 217.556 149.911 217.49 149.953C217.424 149.989 217.34 150.007 217.238 150.007C217.13 150.007 217.013 149.977 216.887 149.917C216.767 149.857 216.626 149.791 216.464 149.719C216.302 149.641 216.116 149.572 215.906 149.512C215.702 149.452 215.459 149.422 215.177 149.422C214.739 149.422 214.394 149.515 214.142 149.701C213.896 149.887 213.773 150.13 213.773 150.43C213.773 150.628 213.836 150.796 213.962 150.934C214.094 151.066 214.265 151.183 214.475 151.285C214.691 151.387 214.934 151.48 215.204 151.564C215.474 151.642 215.747 151.729 216.023 151.825C216.305 151.921 216.581 152.032 216.851 152.158C217.121 152.278 217.361 152.434 217.571 152.626C217.787 152.812 217.958 153.037 218.084 153.301C218.216 153.565 218.282 153.883 218.282 154.255C218.282 154.699 218.201 155.11 218.039 155.488C217.883 155.86 217.649 156.184 217.337 156.46C217.025 156.73 216.638 156.943 216.176 157.099C215.72 157.249 215.192 157.324 214.592 157.324C214.274 157.324 213.962 157.294 213.656 157.234C213.356 157.18 213.065 157.102 212.783 157C212.507 156.898 212.249 156.778 212.009 156.64C211.775 156.502 211.568 156.352 211.388 156.19L211.901 155.344C211.967 155.242 212.045 155.164 212.135 155.11C212.225 155.056 212.339 155.029 212.477 155.029C212.615 155.029 212.744 155.068 212.864 155.146C212.99 155.224 213.134 155.308 213.296 155.398C213.458 155.488 213.647 155.572 213.863 155.65C214.085 155.728 214.364 155.767 214.7 155.767C214.964 155.767 215.189 155.737 215.375 155.677C215.567 155.611 215.723 155.527 215.843 155.425C215.969 155.323 216.059 155.206 216.113 155.074C216.173 154.936 216.203 154.795 216.203 154.651C216.203 154.435 216.137 154.258 216.005 154.12C215.879 153.982 215.708 153.862 215.492 153.76C215.282 153.658 215.039 153.568 214.763 153.49C214.493 153.406 214.214 153.316 213.926 153.22C213.644 153.124 213.365 153.013 213.089 152.887C212.819 152.755 212.576 152.59 212.36 152.392C212.15 152.194 211.979 151.951 211.847 151.663C211.721 151.375 211.658 151.027 211.658 150.619C211.658 150.241 211.733 149.881 211.883 149.539C212.033 149.197 212.252 148.9 212.54 148.648C212.834 148.39 213.197 148.186 213.629 148.036C214.067 147.88 214.571 147.802 215.141 147.802C215.777 147.802 216.356 147.907 216.878 148.117C217.4 148.327 217.835 148.603 218.183 148.945L217.679 149.746ZM224.833 153.238C224.191 153.268 223.651 153.325 223.213 153.409C222.775 153.487 222.424 153.589 222.16 153.715C221.896 153.841 221.707 153.988 221.593 154.156C221.479 154.324 221.422 154.507 221.422 154.705C221.422 155.095 221.536 155.374 221.764 155.542C221.998 155.71 222.301 155.794 222.673 155.794C223.129 155.794 223.522 155.713 223.852 155.551C224.188 155.383 224.515 155.131 224.833 154.795V153.238ZM219.739 149.233C220.801 148.261 222.079 147.775 223.573 147.775C224.113 147.775 224.596 147.865 225.022 148.045C225.448 148.219 225.808 148.465 226.102 148.783C226.396 149.095 226.618 149.47 226.768 149.908C226.924 150.346 227.002 150.826 227.002 151.348V157.18H225.994C225.784 157.18 225.622 157.15 225.508 157.09C225.394 157.024 225.304 156.895 225.238 156.703L225.04 156.037C224.806 156.247 224.578 156.433 224.356 156.595C224.134 156.751 223.903 156.883 223.663 156.991C223.423 157.099 223.165 157.18 222.889 157.234C222.619 157.294 222.319 157.324 221.989 157.324C221.599 157.324 221.239 157.273 220.909 157.171C220.579 157.063 220.294 156.904 220.054 156.694C219.814 156.484 219.628 156.223 219.496 155.911C219.364 155.599 219.298 155.236 219.298 154.822C219.298 154.588 219.337 154.357 219.415 154.129C219.493 153.895 219.619 153.673 219.793 153.463C219.973 153.253 220.204 153.055 220.486 152.869C220.768 152.683 221.113 152.521 221.521 152.383C221.935 152.245 222.415 152.134 222.961 152.05C223.507 151.96 224.131 151.906 224.833 151.888V151.348C224.833 150.73 224.701 150.274 224.437 149.98C224.173 149.68 223.792 149.53 223.294 149.53C222.934 149.53 222.634 149.572 222.394 149.656C222.16 149.74 221.953 149.836 221.773 149.944C221.593 150.046 221.428 150.139 221.278 150.223C221.134 150.307 220.972 150.349 220.792 150.349C220.636 150.349 220.504 150.31 220.396 150.232C220.288 150.148 220.201 150.052 220.135 149.944L219.739 149.233ZM235.711 149.899C235.645 149.983 235.579 150.049 235.513 150.097C235.453 150.145 235.363 150.169 235.243 150.169C235.129 150.169 235.018 150.136 234.91 150.07C234.802 149.998 234.673 149.92 234.523 149.836C234.373 149.746 234.193 149.668 233.983 149.602C233.779 149.53 233.524 149.494 233.218 149.494C232.828 149.494 232.486 149.566 232.192 149.71C231.898 149.848 231.652 150.049 231.454 150.313C231.262 150.577 231.118 150.898 231.022 151.276C230.926 151.648 230.878 152.071 230.878 152.545C230.878 153.037 230.929 153.475 231.031 153.859C231.139 154.243 231.292 154.567 231.49 154.831C231.688 155.089 231.928 155.287 232.21 155.425C232.492 155.557 232.81 155.623 233.164 155.623C233.518 155.623 233.803 155.581 234.019 155.497C234.241 155.407 234.427 155.311 234.577 155.209C234.727 155.101 234.856 155.005 234.964 154.921C235.078 154.831 235.204 154.786 235.342 154.786C235.522 154.786 235.657 154.855 235.747 154.993L236.386 155.803C236.14 156.091 235.873 156.334 235.585 156.532C235.297 156.724 234.997 156.88 234.685 157C234.379 157.114 234.061 157.195 233.731 157.243C233.407 157.291 233.083 157.315 232.759 157.315C232.189 157.315 231.652 157.21 231.148 157C230.644 156.784 230.203 156.472 229.825 156.064C229.447 155.656 229.147 155.158 228.925 154.57C228.709 153.976 228.601 153.301 228.601 152.545C228.601 151.867 228.697 151.24 228.889 150.664C229.087 150.082 229.375 149.581 229.753 149.161C230.131 148.735 230.599 148.402 231.157 148.162C231.715 147.922 232.357 147.802 233.083 147.802C233.773 147.802 234.376 147.913 234.892 148.135C235.414 148.357 235.882 148.675 236.296 149.089L235.711 149.899ZM247.095 157.18H244.872V149.611H240.588V154.615C240.588 154.903 240.657 155.128 240.795 155.29C240.939 155.452 241.134 155.533 241.38 155.533C241.518 155.533 241.632 155.518 241.722 155.488C241.818 155.452 241.899 155.416 241.965 155.38C242.037 155.344 242.1 155.311 242.154 155.281C242.208 155.245 242.262 155.227 242.316 155.227C242.382 155.227 242.436 155.245 242.478 155.281C242.52 155.311 242.565 155.359 242.613 155.425L243.279 156.505C242.955 156.775 242.583 156.979 242.163 157.117C241.743 157.255 241.308 157.324 240.858 157.324C240.054 157.324 239.436 157.099 239.004 156.649C238.578 156.193 238.365 155.566 238.365 154.768V149.611H237.42C237.3 149.611 237.198 149.572 237.114 149.494C237.03 149.416 236.988 149.299 236.988 149.143V148.261L238.473 148.009L238.941 145.498C238.971 145.378 239.028 145.285 239.112 145.219C239.196 145.153 239.304 145.12 239.436 145.12H240.588V148.027H247.095V157.18ZM247.482 145.219C247.482 145.411 247.443 145.594 247.365 145.768C247.287 145.936 247.182 146.083 247.05 146.209C246.924 146.335 246.771 146.437 246.591 146.515C246.417 146.587 246.231 146.623 246.033 146.623C245.841 146.623 245.661 146.587 245.493 146.515C245.325 146.437 245.178 146.335 245.052 146.209C244.926 146.083 244.824 145.936 244.746 145.768C244.674 145.594 244.638 145.411 244.638 145.219C244.638 145.021 244.674 144.838 244.746 144.67C244.824 144.496 244.926 144.346 245.052 144.22C245.178 144.088 245.325 143.986 245.493 143.914C245.661 143.836 245.841 143.797 246.033 143.797C246.231 143.797 246.417 143.836 246.591 143.914C246.771 143.986 246.924 144.088 247.05 144.22C247.182 144.346 247.287 144.496 247.365 144.67C247.443 144.838 247.482 145.021 247.482 145.219ZM253.45 147.802C254.134 147.802 254.755 147.913 255.313 148.135C255.877 148.357 256.357 148.672 256.753 149.08C257.155 149.488 257.464 149.986 257.68 150.574C257.896 151.162 258.004 151.819 258.004 152.545C258.004 153.277 257.896 153.937 257.68 154.525C257.464 155.113 257.155 155.614 256.753 156.028C256.357 156.442 255.877 156.76 255.313 156.982C254.755 157.204 254.134 157.315 253.45 157.315C252.76 157.315 252.133 157.204 251.569 156.982C251.005 156.76 250.522 156.442 250.12 156.028C249.724 155.614 249.415 155.113 249.193 154.525C248.977 153.937 248.869 153.277 248.869 152.545C248.869 151.819 248.977 151.162 249.193 150.574C249.415 149.986 249.724 149.488 250.12 149.08C250.522 148.672 251.005 148.357 251.569 148.135C252.133 147.913 252.76 147.802 253.45 147.802ZM253.45 155.605C254.218 155.605 254.785 155.347 255.151 154.831C255.523 154.315 255.709 153.559 255.709 152.563C255.709 151.567 255.523 150.808 255.151 150.286C254.785 149.764 254.218 149.503 253.45 149.503C252.67 149.503 252.091 149.767 251.713 150.295C251.341 150.817 251.155 151.573 251.155 152.563C251.155 153.553 251.341 154.309 251.713 154.831C252.091 155.347 252.67 155.605 253.45 155.605ZM261.779 149.08C261.965 148.894 262.16 148.723 262.364 148.567C262.574 148.405 262.793 148.27 263.021 148.162C263.255 148.048 263.504 147.961 263.768 147.901C264.032 147.835 264.32 147.802 264.632 147.802C265.136 147.802 265.583 147.889 265.973 148.063C266.363 148.231 266.687 148.471 266.945 148.783C267.209 149.089 267.407 149.458 267.539 149.89C267.677 150.316 267.746 150.787 267.746 151.303V157.18H265.523V151.303C265.523 150.739 265.394 150.304 265.136 149.998C264.878 149.686 264.485 149.53 263.957 149.53C263.573 149.53 263.213 149.617 262.877 149.791C262.541 149.965 262.223 150.202 261.923 150.502V157.18H259.7V147.946H261.059C261.347 147.946 261.536 148.081 261.626 148.351L261.779 149.08ZM37.9899 169.946L32.9589 181.718C32.8929 181.874 32.8059 181.991 32.6979 182.069C32.5959 182.153 32.4369 182.195 32.2209 182.195H30.5649L32.2929 178.487L28.5579 169.946H30.5109C30.6849 169.946 30.8199 169.988 30.9159 170.072C31.0179 170.156 31.0929 170.252 31.1409 170.36L33.1029 175.148C33.1689 175.31 33.2229 175.472 33.2649 175.634C33.3129 175.796 33.3579 175.961 33.3999 176.129C33.4539 175.961 33.5079 175.796 33.5619 175.634C33.6159 175.466 33.6759 175.301 33.7419 175.139L35.5959 170.36C35.6439 170.24 35.7219 170.141 35.8299 170.063C35.9439 169.985 36.0699 169.946 36.2079 169.946H37.9899ZM44.7618 173.501C44.7618 173.213 44.7198 172.943 44.6358 172.691C44.5578 172.433 44.4378 172.208 44.2758 172.016C44.1138 171.824 43.9068 171.674 43.6548 171.566C43.4088 171.452 43.1208 171.395 42.7908 171.395C42.1488 171.395 41.6418 171.578 41.2698 171.944C40.9038 172.31 40.6698 172.829 40.5678 173.501H44.7618ZM40.5228 174.842C40.5588 175.316 40.6428 175.727 40.7748 176.075C40.9068 176.417 41.0808 176.702 41.2968 176.93C41.5128 177.152 41.7678 177.32 42.0618 177.434C42.3618 177.542 42.6918 177.596 43.0518 177.596C43.4118 177.596 43.7208 177.554 43.9788 177.47C44.2428 177.386 44.4708 177.293 44.6628 177.191C44.8608 177.089 45.0318 176.996 45.1758 176.912C45.3258 176.828 45.4698 176.786 45.6078 176.786C45.7938 176.786 45.9318 176.855 46.0218 176.993L46.6608 177.803C46.4148 178.091 46.1388 178.334 45.8328 178.532C45.5268 178.724 45.2058 178.88 44.8698 179C44.5398 179.114 44.2008 179.195 43.8528 179.243C43.5108 179.291 43.1778 179.315 42.8538 179.315C42.2118 179.315 41.6148 179.21 41.0628 179C40.5108 178.784 40.0308 178.469 39.6228 178.055C39.2148 177.635 38.8938 177.119 38.6598 176.507C38.4258 175.889 38.3088 175.175 38.3088 174.365C38.3088 173.735 38.4108 173.144 38.6148 172.592C38.8188 172.034 39.1098 171.551 39.4878 171.143C39.8718 170.729 40.3368 170.402 40.8828 170.162C41.4348 169.922 42.0558 169.802 42.7458 169.802C43.3278 169.802 43.8648 169.895 44.3568 170.081C44.8488 170.267 45.2718 170.54 45.6258 170.9C45.9798 171.254 46.2558 171.692 46.4538 172.214C46.6578 172.73 46.7598 173.321 46.7598 173.987C46.7598 174.323 46.7238 174.551 46.6518 174.671C46.5798 174.785 46.4418 174.842 46.2378 174.842H40.5228ZM51.4182 179.324C50.6142 179.324 49.9962 179.099 49.5642 178.649C49.1382 178.193 48.9252 177.566 48.9252 176.768V171.611H47.9802C47.8602 171.611 47.7582 171.572 47.6742 171.494C47.5902 171.416 47.5482 171.299 47.5482 171.143V170.261L49.0332 170.018L49.5012 167.498C49.5312 167.378 49.5882 167.285 49.6722 167.219C49.7562 167.153 49.8642 167.12 49.9962 167.12H51.1482V170.027H53.6142V171.611H51.1482V176.615C51.1482 176.903 51.2172 177.128 51.3552 177.29C51.4992 177.452 51.6942 177.533 51.9402 177.533C52.0782 177.533 52.1922 177.518 52.2822 177.488C52.3782 177.452 52.4592 177.416 52.5252 177.38C52.5972 177.344 52.6602 177.311 52.7142 177.281C52.7682 177.245 52.8222 177.227 52.8762 177.227C52.9422 177.227 52.9962 177.245 53.0382 177.281C53.0802 177.311 53.1252 177.359 53.1732 177.425L53.8392 178.505C53.5152 178.775 53.1432 178.979 52.7232 179.117C52.3032 179.255 51.8682 179.324 51.4182 179.324ZM63.5004 169.802C64.1844 169.802 64.8054 169.913 65.3634 170.135C65.9274 170.357 66.4074 170.672 66.8034 171.08C67.2054 171.488 67.5144 171.986 67.7304 172.574C67.9464 173.162 68.0544 173.819 68.0544 174.545C68.0544 175.277 67.9464 175.937 67.7304 176.525C67.5144 177.113 67.2054 177.614 66.8034 178.028C66.4074 178.442 65.9274 178.76 65.3634 178.982C64.8054 179.204 64.1844 179.315 63.5004 179.315C62.8104 179.315 62.1834 179.204 61.6194 178.982C61.0554 178.76 60.5724 178.442 60.1704 178.028C59.7744 177.614 59.4654 177.113 59.2434 176.525C59.0274 175.937 58.9194 175.277 58.9194 174.545C58.9194 173.819 59.0274 173.162 59.2434 172.574C59.4654 171.986 59.7744 171.488 60.1704 171.08C60.5724 170.672 61.0554 170.357 61.6194 170.135C62.1834 169.913 62.8104 169.802 63.5004 169.802ZM63.5004 177.605C64.2684 177.605 64.8354 177.347 65.2014 176.831C65.5734 176.315 65.7594 175.559 65.7594 174.563C65.7594 173.567 65.5734 172.808 65.2014 172.286C64.8354 171.764 64.2684 171.503 63.5004 171.503C62.7204 171.503 62.1414 171.767 61.7634 172.295C61.3914 172.817 61.2054 173.573 61.2054 174.563C61.2054 175.553 61.3914 176.309 61.7634 176.831C62.1414 177.347 62.7204 177.605 63.5004 177.605ZM71.8473 171.548C72.1353 170.996 72.4773 170.564 72.8733 170.252C73.2693 169.934 73.7373 169.775 74.2773 169.775C74.7033 169.775 75.0453 169.868 75.3033 170.054L75.1593 171.719C75.1293 171.827 75.0843 171.905 75.0243 171.953C74.9703 171.995 74.8953 172.016 74.7993 172.016C74.7093 172.016 74.5743 172.001 74.3943 171.971C74.2203 171.941 74.0493 171.926 73.8813 171.926C73.6353 171.926 73.4163 171.962 73.2243 172.034C73.0323 172.106 72.8583 172.211 72.7023 172.349C72.5523 172.481 72.4173 172.643 72.2973 172.835C72.1833 173.027 72.0753 173.246 71.9733 173.492V179.18H69.7503V169.946H71.0553C71.2833 169.946 71.4423 169.988 71.5323 170.072C71.6223 170.15 71.6823 170.294 71.7123 170.504L71.8473 171.548ZM83.5334 179.324C82.7294 179.324 82.1114 179.099 81.6794 178.649C81.2534 178.193 81.0404 177.566 81.0404 176.768V171.611H80.0954C79.9754 171.611 79.8734 171.572 79.7894 171.494C79.7054 171.416 79.6634 171.299 79.6634 171.143V170.261L81.1484 170.018L81.6164 167.498C81.6464 167.378 81.7034 167.285 81.7874 167.219C81.8714 167.153 81.9794 167.12 82.1114 167.12H83.2634V170.027H85.7294V171.611H83.2634V176.615C83.2634 176.903 83.3324 177.128 83.4704 177.29C83.6144 177.452 83.8094 177.533 84.0554 177.533C84.1934 177.533 84.3074 177.518 84.3974 177.488C84.4934 177.452 84.5744 177.416 84.6404 177.38C84.7124 177.344 84.7754 177.311 84.8294 177.281C84.8834 177.245 84.9374 177.227 84.9914 177.227C85.0574 177.227 85.1114 177.245 85.1534 177.281C85.1954 177.311 85.2404 177.359 85.2884 177.425L85.9544 178.505C85.6304 178.775 85.2584 178.979 84.8384 179.117C84.4184 179.255 83.9834 179.324 83.5334 179.324ZM89.3757 170.936C89.7357 170.6 90.1317 170.327 90.5637 170.117C90.9957 169.907 91.5027 169.802 92.0847 169.802C92.5887 169.802 93.0357 169.889 93.4257 170.063C93.8157 170.231 94.1397 170.471 94.3977 170.783C94.6617 171.089 94.8597 171.458 94.9917 171.89C95.1297 172.316 95.1987 172.787 95.1987 173.303V179.18H92.9757V173.303C92.9757 172.739 92.8467 172.304 92.5887 171.998C92.3307 171.686 91.9377 171.53 91.4097 171.53C91.0257 171.53 90.6657 171.617 90.3297 171.791C89.9937 171.965 89.6757 172.202 89.3757 172.502V179.18H87.1527V165.806H89.3757V170.936ZM103.262 173.501C103.262 173.213 103.22 172.943 103.136 172.691C103.058 172.433 102.938 172.208 102.776 172.016C102.614 171.824 102.407 171.674 102.155 171.566C101.909 171.452 101.621 171.395 101.291 171.395C100.649 171.395 100.142 171.578 99.7698 171.944C99.4038 172.31 99.1698 172.829 99.0678 173.501H103.262ZM99.0228 174.842C99.0588 175.316 99.1428 175.727 99.2748 176.075C99.4068 176.417 99.5808 176.702 99.7968 176.93C100.013 177.152 100.268 177.32 100.562 177.434C100.862 177.542 101.192 177.596 101.552 177.596C101.912 177.596 102.221 177.554 102.479 177.47C102.743 177.386 102.971 177.293 103.163 177.191C103.361 177.089 103.532 176.996 103.676 176.912C103.826 176.828 103.97 176.786 104.108 176.786C104.294 176.786 104.432 176.855 104.522 176.993L105.161 177.803C104.915 178.091 104.639 178.334 104.333 178.532C104.027 178.724 103.706 178.88 103.37 179C103.04 179.114 102.701 179.195 102.353 179.243C102.011 179.291 101.678 179.315 101.354 179.315C100.712 179.315 100.115 179.21 99.5628 179C99.0108 178.784 98.5308 178.469 98.1228 178.055C97.7148 177.635 97.3938 177.119 97.1598 176.507C96.9258 175.889 96.8088 175.175 96.8088 174.365C96.8088 173.735 96.9108 173.144 97.1148 172.592C97.3188 172.034 97.6098 171.551 97.9878 171.143C98.3718 170.729 98.8368 170.402 99.3828 170.162C99.9348 169.922 100.556 169.802 101.246 169.802C101.828 169.802 102.365 169.895 102.857 170.081C103.349 170.267 103.772 170.54 104.126 170.9C104.48 171.254 104.756 171.692 104.954 172.214C105.158 172.73 105.26 173.321 105.26 173.987C105.26 174.323 105.224 174.551 105.152 174.671C105.08 174.785 104.942 174.842 104.738 174.842H99.0228ZM113.528 170.936C113.888 170.6 114.284 170.327 114.716 170.117C115.148 169.907 115.655 169.802 116.237 169.802C116.741 169.802 117.188 169.889 117.578 170.063C117.968 170.231 118.292 170.471 118.55 170.783C118.814 171.089 119.012 171.458 119.144 171.89C119.282 172.316 119.351 172.787 119.351 173.303V179.18H117.128V173.303C117.128 172.739 116.999 172.304 116.741 171.998C116.483 171.686 116.09 171.53 115.562 171.53C115.178 171.53 114.818 171.617 114.482 171.791C114.146 171.965 113.828 172.202 113.528 172.502V179.18H111.305V165.806H113.528V170.936ZM123.769 169.946V179.18H121.537V169.946H123.769ZM124.075 167.255C124.075 167.447 124.036 167.627 123.958 167.795C123.88 167.963 123.775 168.11 123.643 168.236C123.517 168.362 123.367 168.464 123.193 168.542C123.019 168.614 122.833 168.65 122.635 168.65C122.443 168.65 122.26 168.614 122.086 168.542C121.918 168.464 121.771 168.362 121.645 168.236C121.519 168.11 121.417 167.963 121.339 167.795C121.267 167.627 121.231 167.447 121.231 167.255C121.231 167.057 121.267 166.871 121.339 166.697C121.417 166.523 121.519 166.373 121.645 166.247C121.771 166.121 121.918 166.022 122.086 165.95C122.26 165.872 122.443 165.833 122.635 165.833C122.833 165.833 123.019 165.872 123.193 165.95C123.367 166.022 123.517 166.121 123.643 166.247C123.775 166.373 123.88 166.523 123.958 166.697C124.036 166.871 124.075 167.057 124.075 167.255ZM131.67 171.746C131.61 171.842 131.547 171.911 131.481 171.953C131.415 171.989 131.331 172.007 131.229 172.007C131.121 172.007 131.004 171.977 130.878 171.917C130.758 171.857 130.617 171.791 130.455 171.719C130.293 171.641 130.107 171.572 129.896 171.512C129.693 171.452 129.45 171.422 129.168 171.422C128.73 171.422 128.385 171.515 128.133 171.701C127.887 171.887 127.764 172.13 127.764 172.43C127.764 172.628 127.827 172.796 127.953 172.934C128.085 173.066 128.256 173.183 128.466 173.285C128.682 173.387 128.925 173.48 129.195 173.564C129.465 173.642 129.738 173.729 130.014 173.825C130.296 173.921 130.572 174.032 130.842 174.158C131.112 174.278 131.352 174.434 131.562 174.626C131.778 174.812 131.949 175.037 132.075 175.301C132.207 175.565 132.273 175.883 132.273 176.255C132.273 176.699 132.192 177.11 132.03 177.488C131.874 177.86 131.64 178.184 131.328 178.46C131.016 178.73 130.629 178.943 130.167 179.099C129.711 179.249 129.183 179.324 128.583 179.324C128.265 179.324 127.953 179.294 127.647 179.234C127.347 179.18 127.056 179.102 126.774 179C126.498 178.898 126.24 178.778 126 178.64C125.766 178.502 125.559 178.352 125.379 178.19L125.892 177.344C125.958 177.242 126.036 177.164 126.125 177.11C126.215 177.056 126.33 177.029 126.468 177.029C126.606 177.029 126.735 177.068 126.855 177.146C126.981 177.224 127.125 177.308 127.287 177.398C127.449 177.488 127.638 177.572 127.854 177.65C128.076 177.728 128.355 177.767 128.691 177.767C128.955 177.767 129.18 177.737 129.366 177.677C129.558 177.611 129.714 177.527 129.834 177.425C129.96 177.323 130.049 177.206 130.104 177.074C130.164 176.936 130.194 176.795 130.194 176.651C130.194 176.435 130.128 176.258 129.996 176.12C129.87 175.982 129.699 175.862 129.482 175.76C129.273 175.658 129.03 175.568 128.754 175.49C128.484 175.406 128.205 175.316 127.917 175.22C127.635 175.124 127.356 175.013 127.08 174.887C126.81 174.755 126.567 174.59 126.351 174.392C126.141 174.194 125.97 173.951 125.838 173.663C125.712 173.375 125.649 173.027 125.649 172.619C125.649 172.241 125.724 171.881 125.874 171.539C126.024 171.197 126.243 170.9 126.531 170.648C126.825 170.39 127.188 170.186 127.62 170.036C128.058 169.88 128.562 169.802 129.132 169.802C129.768 169.802 130.347 169.907 130.869 170.117C131.391 170.327 131.826 170.603 132.174 170.945L131.67 171.746ZM137.024 179.324C136.22 179.324 135.602 179.099 135.17 178.649C134.744 178.193 134.531 177.566 134.531 176.768V171.611H133.586C133.466 171.611 133.364 171.572 133.28 171.494C133.196 171.416 133.154 171.299 133.154 171.143V170.261L134.639 170.018L135.107 167.498C135.137 167.378 135.194 167.285 135.278 167.219C135.362 167.153 135.47 167.12 135.602 167.12H136.754V170.027H139.22V171.611H136.754V176.615C136.754 176.903 136.823 177.128 136.961 177.29C137.105 177.452 137.3 177.533 137.546 177.533C137.684 177.533 137.798 177.518 137.888 177.488C137.984 177.452 138.065 177.416 138.131 177.38C138.203 177.344 138.266 177.311 138.32 177.281C138.374 177.245 138.428 177.227 138.482 177.227C138.548 177.227 138.602 177.245 138.644 177.281C138.686 177.311 138.731 177.359 138.779 177.425L139.445 178.505C139.121 178.775 138.749 178.979 138.329 179.117C137.909 179.255 137.474 179.324 137.024 179.324ZM144.659 169.802C145.343 169.802 145.964 169.913 146.522 170.135C147.086 170.357 147.566 170.672 147.962 171.08C148.364 171.488 148.673 171.986 148.889 172.574C149.105 173.162 149.213 173.819 149.213 174.545C149.213 175.277 149.105 175.937 148.889 176.525C148.673 177.113 148.364 177.614 147.962 178.028C147.566 178.442 147.086 178.76 146.522 178.982C145.964 179.204 145.343 179.315 144.659 179.315C143.969 179.315 143.342 179.204 142.778 178.982C142.214 178.76 141.731 178.442 141.329 178.028C140.933 177.614 140.624 177.113 140.402 176.525C140.186 175.937 140.078 175.277 140.078 174.545C140.078 173.819 140.186 173.162 140.402 172.574C140.624 171.986 140.933 171.488 141.329 171.08C141.731 170.672 142.214 170.357 142.778 170.135C143.342 169.913 143.969 169.802 144.659 169.802ZM144.659 177.605C145.427 177.605 145.994 177.347 146.36 176.831C146.732 176.315 146.918 175.559 146.918 174.563C146.918 173.567 146.732 172.808 146.36 172.286C145.994 171.764 145.427 171.503 144.659 171.503C143.879 171.503 143.3 171.767 142.922 172.295C142.55 172.817 142.364 173.573 142.364 174.563C142.364 175.553 142.55 176.309 142.922 176.831C143.3 177.347 143.879 177.605 144.659 177.605ZM153.006 171.548C153.294 170.996 153.636 170.564 154.032 170.252C154.428 169.934 154.896 169.775 155.436 169.775C155.862 169.775 156.204 169.868 156.462 170.054L156.318 171.719C156.288 171.827 156.243 171.905 156.183 171.953C156.129 171.995 156.054 172.016 155.958 172.016C155.868 172.016 155.733 172.001 155.553 171.971C155.379 171.941 155.208 171.926 155.04 171.926C154.794 171.926 154.575 171.962 154.383 172.034C154.191 172.106 154.017 172.211 153.861 172.349C153.711 172.481 153.576 172.643 153.456 172.835C153.342 173.027 153.234 173.246 153.132 173.492V179.18H150.909V169.946H152.214C152.442 169.946 152.601 169.988 152.691 170.072C152.781 170.15 152.841 170.294 152.871 170.504L153.006 171.548ZM166.011 169.946L160.98 181.718C160.914 181.874 160.827 181.991 160.719 182.069C160.617 182.153 160.458 182.195 160.242 182.195H158.586L160.314 178.487L156.579 169.946H158.532C158.706 169.946 158.841 169.988 158.937 170.072C159.039 170.156 159.114 170.252 159.162 170.36L161.124 175.148C161.19 175.31 161.244 175.472 161.286 175.634C161.334 175.796 161.379 175.961 161.421 176.129C161.475 175.961 161.529 175.796 161.583 175.634C161.637 175.466 161.697 175.301 161.763 175.139L163.617 170.36C163.665 170.24 163.743 170.141 163.851 170.063C163.965 169.985 164.091 169.946 164.229 169.946H166.011ZM171.036 179.18V169.946H172.395C172.683 169.946 172.872 170.081 172.962 170.351L173.106 171.035C173.268 170.855 173.436 170.69 173.61 170.54C173.79 170.39 173.979 170.261 174.177 170.153C174.381 170.045 174.597 169.961 174.825 169.901C175.059 169.835 175.314 169.802 175.59 169.802C176.172 169.802 176.649 169.961 177.021 170.279C177.399 170.591 177.681 171.008 177.867 171.53C178.011 171.224 178.191 170.963 178.407 170.747C178.623 170.525 178.86 170.345 179.118 170.207C179.376 170.069 179.649 169.967 179.937 169.901C180.231 169.835 180.525 169.802 180.819 169.802C181.329 169.802 181.782 169.88 182.178 170.036C182.574 170.192 182.907 170.42 183.177 170.72C183.447 171.02 183.651 171.386 183.789 171.818C183.933 172.25 184.005 172.745 184.005 173.303V179.18H181.782V173.303C181.782 172.715 181.653 172.274 181.395 171.98C181.137 171.68 180.759 171.53 180.261 171.53C180.033 171.53 179.82 171.569 179.622 171.647C179.43 171.725 179.259 171.839 179.109 171.989C178.965 172.133 178.851 172.316 178.767 172.538C178.683 172.76 178.641 173.015 178.641 173.303V179.18H176.409V173.303C176.409 172.685 176.283 172.235 176.031 171.953C175.785 171.671 175.422 171.53 174.942 171.53C174.618 171.53 174.315 171.611 174.033 171.773C173.757 171.929 173.499 172.145 173.259 172.421V179.18H171.036ZM188.422 169.946V179.18H186.19V169.946H188.422ZM188.728 167.255C188.728 167.447 188.689 167.627 188.611 167.795C188.533 167.963 188.428 168.11 188.296 168.236C188.17 168.362 188.02 168.464 187.846 168.542C187.672 168.614 187.486 168.65 187.288 168.65C187.096 168.65 186.913 168.614 186.739 168.542C186.571 168.464 186.424 168.362 186.298 168.236C186.172 168.11 186.07 167.963 185.992 167.795C185.92 167.627 185.884 167.447 185.884 167.255C185.884 167.057 185.92 166.871 185.992 166.697C186.07 166.523 186.172 166.373 186.298 166.247C186.424 166.121 186.571 166.022 186.739 165.95C186.913 165.872 187.096 165.833 187.288 165.833C187.486 165.833 187.672 165.872 187.846 165.95C188.02 166.022 188.17 166.121 188.296 166.247C188.428 166.373 188.533 166.523 188.611 166.697C188.689 166.871 188.728 167.057 188.728 167.255ZM194.063 174.338C194.339 174.338 194.579 174.302 194.783 174.23C194.987 174.152 195.155 174.047 195.287 173.915C195.425 173.783 195.527 173.624 195.593 173.438C195.665 173.252 195.701 173.048 195.701 172.826C195.701 172.37 195.563 172.01 195.287 171.746C195.017 171.476 194.609 171.341 194.063 171.341C193.517 171.341 193.106 171.476 192.83 171.746C192.56 172.01 192.425 172.37 192.425 172.826C192.425 173.042 192.458 173.243 192.524 173.429C192.596 173.615 192.698 173.777 192.83 173.915C192.968 174.047 193.139 174.152 193.343 174.23C193.553 174.302 193.793 174.338 194.063 174.338ZM196.574 179.594C196.574 179.414 196.52 179.267 196.412 179.153C196.304 179.039 196.157 178.952 195.971 178.892C195.785 178.826 195.566 178.778 195.314 178.748C195.068 178.718 194.804 178.697 194.522 178.685C194.246 178.667 193.958 178.652 193.658 178.64C193.364 178.628 193.076 178.604 192.794 178.568C192.548 178.706 192.347 178.868 192.191 179.054C192.041 179.24 191.966 179.456 191.966 179.702C191.966 179.864 192.005 180.014 192.083 180.152C192.167 180.296 192.296 180.419 192.47 180.521C192.65 180.623 192.881 180.701 193.163 180.755C193.445 180.815 193.79 180.845 194.198 180.845C194.612 180.845 194.969 180.812 195.269 180.746C195.569 180.686 195.815 180.599 196.007 180.485C196.205 180.377 196.349 180.245 196.439 180.089C196.529 179.939 196.574 179.774 196.574 179.594ZM198.788 170.261V171.089C198.788 171.353 198.629 171.515 198.311 171.575L197.483 171.728C197.609 172.046 197.672 172.394 197.672 172.772C197.672 173.228 197.579 173.642 197.393 174.014C197.213 174.38 196.961 174.692 196.637 174.95C196.313 175.208 195.929 175.409 195.485 175.553C195.047 175.691 194.573 175.76 194.063 175.76C193.883 175.76 193.709 175.751 193.541 175.733C193.373 175.715 193.208 175.691 193.046 175.661C192.758 175.835 192.614 176.03 192.614 176.246C192.614 176.432 192.698 176.57 192.866 176.66C193.04 176.744 193.268 176.804 193.55 176.84C193.832 176.876 194.153 176.9 194.513 176.912C194.873 176.918 195.242 176.936 195.62 176.966C195.998 176.996 196.367 177.05 196.727 177.128C197.087 177.2 197.408 177.317 197.69 177.479C197.972 177.641 198.197 177.863 198.365 178.145C198.539 178.421 198.626 178.778 198.626 179.216C198.626 179.624 198.524 180.02 198.32 180.404C198.122 180.788 197.831 181.13 197.447 181.43C197.069 181.73 196.601 181.97 196.043 182.15C195.491 182.336 194.861 182.429 194.153 182.429C193.457 182.429 192.851 182.36 192.335 182.222C191.819 182.09 191.39 181.91 191.048 181.682C190.706 181.46 190.451 181.202 190.283 180.908C190.115 180.614 190.031 180.308 190.031 179.99C190.031 179.558 190.16 179.198 190.418 178.91C190.682 178.616 191.042 178.382 191.498 178.208C191.252 178.082 191.057 177.914 190.913 177.704C190.769 177.494 190.697 177.218 190.697 176.876C190.697 176.738 190.721 176.597 190.769 176.453C190.823 176.303 190.898 176.156 190.994 176.012C191.096 175.868 191.222 175.733 191.372 175.607C191.522 175.475 191.699 175.358 191.903 175.256C191.435 175.004 191.066 174.668 190.796 174.248C190.532 173.828 190.4 173.336 190.4 172.772C190.4 172.316 190.49 171.905 190.67 171.539C190.856 171.167 191.111 170.852 191.435 170.594C191.765 170.33 192.152 170.129 192.596 169.991C193.046 169.853 193.535 169.784 194.063 169.784C194.459 169.784 194.831 169.826 195.179 169.91C195.527 169.988 195.845 170.105 196.133 170.261H198.788ZM202.421 170.936C202.781 170.6 203.177 170.327 203.609 170.117C204.041 169.907 204.548 169.802 205.13 169.802C205.634 169.802 206.081 169.889 206.471 170.063C206.861 170.231 207.185 170.471 207.443 170.783C207.707 171.089 207.905 171.458 208.037 171.89C208.175 172.316 208.244 172.787 208.244 173.303V179.18H206.021V173.303C206.021 172.739 205.892 172.304 205.634 171.998C205.376 171.686 204.983 171.53 204.455 171.53C204.071 171.53 203.711 171.617 203.375 171.791C203.039 171.965 202.721 172.202 202.421 172.502V179.18H200.198V165.806H202.421V170.936ZM213.313 179.324C212.509 179.324 211.891 179.099 211.459 178.649C211.033 178.193 210.82 177.566 210.82 176.768V171.611H209.875C209.755 171.611 209.653 171.572 209.569 171.494C209.485 171.416 209.443 171.299 209.443 171.143V170.261L210.928 170.018L211.396 167.498C211.426 167.378 211.483 167.285 211.567 167.219C211.651 167.153 211.759 167.12 211.891 167.12H213.043V170.027H215.509V171.611H213.043V176.615C213.043 176.903 213.112 177.128 213.25 177.29C213.394 177.452 213.589 177.533 213.835 177.533C213.973 177.533 214.087 177.518 214.177 177.488C214.273 177.452 214.354 177.416 214.42 177.38C214.492 177.344 214.555 177.311 214.609 177.281C214.663 177.245 214.717 177.227 214.771 177.227C214.837 177.227 214.891 177.245 214.933 177.281C214.975 177.311 215.02 177.359 215.068 177.425L215.734 178.505C215.41 178.775 215.038 178.979 214.618 179.117C214.198 179.255 213.763 179.324 213.313 179.324ZM223.532 176.786C223.784 177.092 224.057 177.308 224.351 177.434C224.651 177.56 224.966 177.623 225.296 177.623C225.638 177.623 225.944 177.563 226.214 177.443C226.49 177.317 226.724 177.125 226.916 176.867C227.108 176.603 227.255 176.27 227.357 175.868C227.459 175.46 227.51 174.974 227.51 174.41C227.51 173.396 227.342 172.664 227.006 172.214C226.67 171.758 226.187 171.53 225.557 171.53C225.131 171.53 224.759 171.629 224.441 171.827C224.123 172.019 223.82 172.292 223.532 172.646V176.786ZM223.532 171.08C223.904 170.69 224.315 170.381 224.765 170.153C225.221 169.919 225.74 169.802 226.322 169.802C226.856 169.802 227.336 169.907 227.762 170.117C228.194 170.327 228.56 170.63 228.86 171.026C229.166 171.416 229.4 171.89 229.562 172.448C229.724 173.006 229.805 173.633 229.805 174.329C229.805 175.079 229.712 175.76 229.526 176.372C229.34 176.984 229.073 177.509 228.725 177.947C228.383 178.379 227.969 178.715 227.483 178.955C226.997 179.195 226.457 179.315 225.863 179.315C225.575 179.315 225.314 179.285 225.08 179.225C224.846 179.171 224.63 179.093 224.432 178.991C224.234 178.889 224.051 178.766 223.883 178.622C223.721 178.472 223.565 178.307 223.415 178.127L223.316 178.748C223.28 178.904 223.217 179.015 223.127 179.081C223.043 179.147 222.926 179.18 222.776 179.18H221.309V165.806H223.532V171.08ZM237.471 173.501C237.471 173.213 237.429 172.943 237.345 172.691C237.267 172.433 237.147 172.208 236.985 172.016C236.823 171.824 236.616 171.674 236.364 171.566C236.118 171.452 235.83 171.395 235.5 171.395C234.858 171.395 234.351 171.578 233.979 171.944C233.613 172.31 233.379 172.829 233.277 173.501H237.471ZM233.232 174.842C233.268 175.316 233.352 175.727 233.484 176.075C233.616 176.417 233.79 176.702 234.006 176.93C234.222 177.152 234.477 177.32 234.771 177.434C235.071 177.542 235.401 177.596 235.761 177.596C236.121 177.596 236.43 177.554 236.688 177.47C236.952 177.386 237.18 177.293 237.372 177.191C237.57 177.089 237.741 176.996 237.885 176.912C238.035 176.828 238.179 176.786 238.317 176.786C238.503 176.786 238.641 176.855 238.731 176.993L239.37 177.803C239.124 178.091 238.848 178.334 238.542 178.532C238.236 178.724 237.915 178.88 237.579 179C237.249 179.114 236.91 179.195 236.562 179.243C236.22 179.291 235.887 179.315 235.563 179.315C234.921 179.315 234.324 179.21 233.772 179C233.22 178.784 232.74 178.469 232.332 178.055C231.924 177.635 231.603 177.119 231.369 176.507C231.135 175.889 231.018 175.175 231.018 174.365C231.018 173.735 231.12 173.144 231.324 172.592C231.528 172.034 231.819 171.551 232.197 171.143C232.581 170.729 233.046 170.402 233.592 170.162C234.144 169.922 234.765 169.802 235.455 169.802C236.037 169.802 236.574 169.895 237.066 170.081C237.558 170.267 237.981 170.54 238.335 170.9C238.689 171.254 238.965 171.692 239.163 172.214C239.367 172.73 239.469 173.321 239.469 173.987C239.469 174.323 239.433 174.551 239.361 174.671C239.289 174.785 239.151 174.842 238.947 174.842H233.232ZM20.554 193.08C20.74 192.894 20.935 192.723 21.139 192.567C21.349 192.405 21.568 192.27 21.796 192.162C22.03 192.048 22.279 191.961 22.543 191.901C22.807 191.835 23.095 191.802 23.407 191.802C23.911 191.802 24.358 191.889 24.748 192.063C25.138 192.231 25.462 192.471 25.72 192.783C25.984 193.089 26.182 193.458 26.314 193.89C26.452 194.316 26.521 194.787 26.521 195.303V201.18H24.298V195.303C24.298 194.739 24.169 194.304 23.911 193.998C23.653 193.686 23.26 193.53 22.732 193.53C22.348 193.53 21.988 193.617 21.652 193.791C21.316 193.965 20.998 194.202 20.698 194.502V201.18H18.475V191.946H19.834C20.122 191.946 20.311 192.081 20.401 192.351L20.554 193.08ZM32.7211 191.802C33.4051 191.802 34.0261 191.913 34.5841 192.135C35.1481 192.357 35.6281 192.672 36.0241 193.08C36.4261 193.488 36.7351 193.986 36.9511 194.574C37.1671 195.162 37.2751 195.819 37.2751 196.545C37.2751 197.277 37.1671 197.937 36.9511 198.525C36.7351 199.113 36.4261 199.614 36.0241 200.028C35.6281 200.442 35.1481 200.76 34.5841 200.982C34.0261 201.204 33.4051 201.315 32.7211 201.315C32.0311 201.315 31.4041 201.204 30.8401 200.982C30.2761 200.76 29.7931 200.442 29.3911 200.028C28.9951 199.614 28.6861 199.113 28.4641 198.525C28.2481 197.937 28.1401 197.277 28.1401 196.545C28.1401 195.819 28.2481 195.162 28.4641 194.574C28.6861 193.986 28.9951 193.488 29.3911 193.08C29.7931 192.672 30.2761 192.357 30.8401 192.135C31.4041 191.913 32.0311 191.802 32.7211 191.802ZM32.7211 199.605C33.4891 199.605 34.0561 199.347 34.4221 198.831C34.7941 198.315 34.9801 197.559 34.9801 196.563C34.9801 195.567 34.7941 194.808 34.4221 194.286C34.0561 193.764 33.4891 193.503 32.7211 193.503C31.9411 193.503 31.3621 193.767 30.9841 194.295C30.6121 194.817 30.4261 195.573 30.4261 196.563C30.4261 197.553 30.6121 198.309 30.9841 198.831C31.3621 199.347 31.9411 199.605 32.7211 199.605ZM41.8733 201.324C41.0693 201.324 40.4513 201.099 40.0193 200.649C39.5933 200.193 39.3803 199.566 39.3803 198.768V193.611H38.4353C38.3153 193.611 38.2133 193.572 38.1293 193.494C38.0453 193.416 38.0033 193.299 38.0033 193.143V192.261L39.4883 192.018L39.9563 189.498C39.9863 189.378 40.0433 189.285 40.1273 189.219C40.2113 189.153 40.3193 189.12 40.4513 189.12H41.6033V192.027H44.0693V193.611H41.6033V198.615C41.6033 198.903 41.6723 199.128 41.8103 199.29C41.9543 199.452 42.1493 199.533 42.3953 199.533C42.5333 199.533 42.6473 199.518 42.7373 199.488C42.8333 199.452 42.9143 199.416 42.9803 199.38C43.0523 199.344 43.1153 199.311 43.1693 199.281C43.2233 199.245 43.2773 199.227 43.3313 199.227C43.3973 199.227 43.4513 199.245 43.4933 199.281C43.5353 199.311 43.5803 199.359 43.6283 199.425L44.2943 200.505C43.9703 200.775 43.5983 200.979 43.1783 201.117C42.7583 201.255 42.3233 201.324 41.8733 201.324ZM54.7475 197.238C54.1055 197.268 53.5655 197.325 53.1275 197.409C52.6895 197.487 52.3385 197.589 52.0745 197.715C51.8105 197.841 51.6215 197.988 51.5075 198.156C51.3935 198.324 51.3365 198.507 51.3365 198.705C51.3365 199.095 51.4505 199.374 51.6785 199.542C51.9125 199.71 52.2155 199.794 52.5875 199.794C53.0435 199.794 53.4365 199.713 53.7665 199.551C54.1025 199.383 54.4295 199.131 54.7475 198.795V197.238ZM49.6535 193.233C50.7155 192.261 51.9935 191.775 53.4875 191.775C54.0275 191.775 54.5105 191.865 54.9365 192.045C55.3625 192.219 55.7225 192.465 56.0165 192.783C56.3105 193.095 56.5325 193.47 56.6825 193.908C56.8385 194.346 56.9165 194.826 56.9165 195.348V201.18H55.9085C55.6985 201.18 55.5365 201.15 55.4225 201.09C55.3085 201.024 55.2185 200.895 55.1525 200.703L54.9545 200.037C54.7205 200.247 54.4925 200.433 54.2705 200.595C54.0485 200.751 53.8175 200.883 53.5775 200.991C53.3375 201.099 53.0795 201.18 52.8035 201.234C52.5335 201.294 52.2335 201.324 51.9035 201.324C51.5135 201.324 51.1535 201.273 50.8235 201.171C50.4935 201.063 50.2085 200.904 49.9685 200.694C49.7285 200.484 49.5425 200.223 49.4105 199.911C49.2785 199.599 49.2125 199.236 49.2125 198.822C49.2125 198.588 49.2515 198.357 49.3295 198.129C49.4075 197.895 49.5335 197.673 49.7075 197.463C49.8875 197.253 50.1185 197.055 50.4005 196.869C50.6825 196.683 51.0275 196.521 51.4355 196.383C51.8495 196.245 52.3295 196.134 52.8755 196.05C53.4215 195.96 54.0455 195.906 54.7475 195.888V195.348C54.7475 194.73 54.6155 194.274 54.3515 193.98C54.0875 193.68 53.7065 193.53 53.2085 193.53C52.8485 193.53 52.5485 193.572 52.3085 193.656C52.0745 193.74 51.8675 193.836 51.6875 193.944C51.5075 194.046 51.3425 194.139 51.1925 194.223C51.0485 194.307 50.8865 194.349 50.7065 194.349C50.5505 194.349 50.4185 194.31 50.3105 194.232C50.2025 194.148 50.1155 194.052 50.0495 193.944L49.6535 193.233ZM67.1242 191.946L63.4612 201.18H61.4452L57.7822 191.946H59.6182C59.7862 191.946 59.9242 191.985 60.0322 192.063C60.1462 192.141 60.2212 192.24 60.2572 192.36L62.0392 197.292C62.1352 197.58 62.2192 197.862 62.2912 198.138C62.3632 198.414 62.4262 198.69 62.4802 198.966C62.5402 198.69 62.6062 198.414 62.6782 198.138C62.7502 197.862 62.8372 197.58 62.9392 197.292L64.7572 192.36C64.7992 192.24 64.8742 192.141 64.9822 192.063C65.0902 191.985 65.2192 191.946 65.3692 191.946H67.1242ZM72.9584 197.238C72.3164 197.268 71.7764 197.325 71.3384 197.409C70.9004 197.487 70.5494 197.589 70.2854 197.715C70.0214 197.841 69.8324 197.988 69.7184 198.156C69.6044 198.324 69.5474 198.507 69.5474 198.705C69.5474 199.095 69.6614 199.374 69.8894 199.542C70.1234 199.71 70.4264 199.794 70.7984 199.794C71.2544 199.794 71.6474 199.713 71.9774 199.551C72.3134 199.383 72.6404 199.131 72.9584 198.795V197.238ZM67.8644 193.233C68.9264 192.261 70.2044 191.775 71.6984 191.775C72.2384 191.775 72.7214 191.865 73.1474 192.045C73.5734 192.219 73.9334 192.465 74.2274 192.783C74.5214 193.095 74.7434 193.47 74.8934 193.908C75.0494 194.346 75.1274 194.826 75.1274 195.348V201.18H74.1194C73.9094 201.18 73.7474 201.15 73.6334 201.09C73.5194 201.024 73.4294 200.895 73.3634 200.703L73.1654 200.037C72.9314 200.247 72.7034 200.433 72.4814 200.595C72.2594 200.751 72.0284 200.883 71.7884 200.991C71.5484 201.099 71.2904 201.18 71.0144 201.234C70.7444 201.294 70.4444 201.324 70.1144 201.324C69.7244 201.324 69.3644 201.273 69.0344 201.171C68.7044 201.063 68.4194 200.904 68.1794 200.694C67.9394 200.484 67.7534 200.223 67.6214 199.911C67.4894 199.599 67.4234 199.236 67.4234 198.822C67.4234 198.588 67.4624 198.357 67.5404 198.129C67.6184 197.895 67.7444 197.673 67.9184 197.463C68.0984 197.253 68.3294 197.055 68.6114 196.869C68.8934 196.683 69.2384 196.521 69.6464 196.383C70.0604 196.245 70.5404 196.134 71.0864 196.05C71.6324 195.96 72.2564 195.906 72.9584 195.888V195.348C72.9584 194.73 72.8264 194.274 72.5624 193.98C72.2984 193.68 71.9174 193.53 71.4194 193.53C71.0594 193.53 70.7594 193.572 70.5194 193.656C70.2854 193.74 70.0784 193.836 69.8984 193.944C69.7184 194.046 69.5534 194.139 69.4034 194.223C69.2594 194.307 69.0974 194.349 68.9174 194.349C68.7614 194.349 68.6294 194.31 68.5214 194.232C68.4134 194.148 68.3264 194.052 68.2604 193.944L67.8644 193.233ZM79.525 191.946V201.18H77.293V191.946H79.525ZM79.831 189.255C79.831 189.447 79.792 189.627 79.714 189.795C79.636 189.963 79.531 190.11 79.399 190.236C79.273 190.362 79.123 190.464 78.949 190.542C78.775 190.614 78.589 190.65 78.391 190.65C78.199 190.65 78.016 190.614 77.842 190.542C77.674 190.464 77.527 190.362 77.401 190.236C77.275 190.11 77.173 189.963 77.095 189.795C77.023 189.627 76.987 189.447 76.987 189.255C76.987 189.057 77.023 188.871 77.095 188.697C77.173 188.523 77.275 188.373 77.401 188.247C77.527 188.121 77.674 188.022 77.842 187.95C78.016 187.872 78.199 187.833 78.391 187.833C78.589 187.833 78.775 187.872 78.949 187.95C79.123 188.022 79.273 188.121 79.399 188.247C79.531 188.373 79.636 188.523 79.714 188.697C79.792 188.871 79.831 189.057 79.831 189.255ZM84.0414 187.806V201.18H81.8184V187.806H84.0414ZM91.1342 197.238C90.4922 197.268 89.9522 197.325 89.5142 197.409C89.0762 197.487 88.7252 197.589 88.4612 197.715C88.1972 197.841 88.0082 197.988 87.8942 198.156C87.7802 198.324 87.7232 198.507 87.7232 198.705C87.7232 199.095 87.8372 199.374 88.0652 199.542C88.2992 199.71 88.6022 199.794 88.9742 199.794C89.4302 199.794 89.8232 199.713 90.1532 199.551C90.4892 199.383 90.8162 199.131 91.1342 198.795V197.238ZM86.0402 193.233C87.1022 192.261 88.3802 191.775 89.8742 191.775C90.4142 191.775 90.8972 191.865 91.3232 192.045C91.7492 192.219 92.1092 192.465 92.4032 192.783C92.6972 193.095 92.9192 193.47 93.0692 193.908C93.2252 194.346 93.3032 194.826 93.3032 195.348V201.18H92.2952C92.0852 201.18 91.9232 201.15 91.8092 201.09C91.6952 201.024 91.6052 200.895 91.5392 200.703L91.3412 200.037C91.1072 200.247 90.8792 200.433 90.6572 200.595C90.4352 200.751 90.2042 200.883 89.9642 200.991C89.7242 201.099 89.4662 201.18 89.1902 201.234C88.9202 201.294 88.6202 201.324 88.2902 201.324C87.9002 201.324 87.5402 201.273 87.2102 201.171C86.8802 201.063 86.5952 200.904 86.3552 200.694C86.1152 200.484 85.9292 200.223 85.7972 199.911C85.6652 199.599 85.5992 199.236 85.5992 198.822C85.5992 198.588 85.6382 198.357 85.7162 198.129C85.7942 197.895 85.9202 197.673 86.0942 197.463C86.2742 197.253 86.5052 197.055 86.7872 196.869C87.0692 196.683 87.4142 196.521 87.8222 196.383C88.2362 196.245 88.7162 196.134 89.2622 196.05C89.8082 195.96 90.4322 195.906 91.1342 195.888V195.348C91.1342 194.73 91.0022 194.274 90.7382 193.98C90.4742 193.68 90.0932 193.53 89.5952 193.53C89.2352 193.53 88.9352 193.572 88.6952 193.656C88.4612 193.74 88.2542 193.836 88.0742 193.944C87.8942 194.046 87.7292 194.139 87.5792 194.223C87.4352 194.307 87.2732 194.349 87.0932 194.349C86.9372 194.349 86.8052 194.31 86.6972 194.232C86.5892 194.148 86.5022 194.052 86.4362 193.944L86.0402 193.233ZM97.6198 198.786C97.8718 199.092 98.1448 199.308 98.4388 199.434C98.7388 199.56 99.0538 199.623 99.3838 199.623C99.7258 199.623 100.032 199.563 100.302 199.443C100.578 199.317 100.812 199.125 101.004 198.867C101.196 198.603 101.343 198.27 101.445 197.868C101.547 197.46 101.598 196.974 101.598 196.41C101.598 195.396 101.43 194.664 101.094 194.214C100.758 193.758 100.275 193.53 99.6448 193.53C99.2188 193.53 98.8468 193.629 98.5288 193.827C98.2108 194.019 97.9078 194.292 97.6198 194.646V198.786ZM97.6198 193.08C97.9918 192.69 98.4028 192.381 98.8528 192.153C99.3088 191.919 99.8278 191.802 100.41 191.802C100.944 191.802 101.424 191.907 101.85 192.117C102.282 192.327 102.648 192.63 102.948 193.026C103.254 193.416 103.488 193.89 103.65 194.448C103.812 195.006 103.893 195.633 103.893 196.329C103.893 197.079 103.8 197.76 103.614 198.372C103.428 198.984 103.161 199.509 102.813 199.947C102.471 200.379 102.057 200.715 101.571 200.955C101.085 201.195 100.545 201.315 99.9508 201.315C99.6628 201.315 99.4018 201.285 99.1678 201.225C98.9338 201.171 98.7178 201.093 98.5198 200.991C98.3218 200.889 98.1388 200.766 97.9708 200.622C97.8088 200.472 97.6528 200.307 97.5028 200.127L97.4038 200.748C97.3678 200.904 97.3048 201.015 97.2148 201.081C97.1308 201.147 97.0138 201.18 96.8638 201.18H95.3968V187.806H97.6198V193.08ZM107.86 187.806V201.18H105.637V187.806H107.86ZM116.024 195.501C116.024 195.213 115.982 194.943 115.898 194.691C115.82 194.433 115.7 194.208 115.538 194.016C115.376 193.824 115.169 193.674 114.917 193.566C114.671 193.452 114.383 193.395 114.053 193.395C113.411 193.395 112.904 193.578 112.532 193.944C112.166 194.31 111.932 194.829 111.83 195.501H116.024ZM111.785 196.842C111.821 197.316 111.905 197.727 112.037 198.075C112.169 198.417 112.343 198.702 112.559 198.93C112.775 199.152 113.03 199.32 113.324 199.434C113.624 199.542 113.954 199.596 114.314 199.596C114.674 199.596 114.983 199.554 115.241 199.47C115.505 199.386 115.733 199.293 115.925 199.191C116.123 199.089 116.294 198.996 116.438 198.912C116.588 198.828 116.732 198.786 116.87 198.786C117.056 198.786 117.194 198.855 117.284 198.993L117.923 199.803C117.677 200.091 117.401 200.334 117.095 200.532C116.789 200.724 116.468 200.88 116.132 201C115.802 201.114 115.463 201.195 115.115 201.243C114.773 201.291 114.44 201.315 114.116 201.315C113.474 201.315 112.877 201.21 112.325 201C111.773 200.784 111.293 200.469 110.885 200.055C110.477 199.635 110.156 199.119 109.922 198.507C109.688 197.889 109.571 197.175 109.571 196.365C109.571 195.735 109.673 195.144 109.877 194.592C110.081 194.034 110.372 193.551 110.75 193.143C111.134 192.729 111.599 192.402 112.145 192.162C112.697 191.922 113.318 191.802 114.008 191.802C114.59 191.802 115.127 191.895 115.619 192.081C116.111 192.267 116.534 192.54 116.888 192.9C117.242 193.254 117.518 193.692 117.716 194.214C117.92 194.73 118.022 195.321 118.022 195.987C118.022 196.323 117.986 196.551 117.914 196.671C117.842 196.785 117.704 196.842 117.5 196.842H111.785ZM124.715 201.18V193.62L123.914 193.494C123.74 193.458 123.599 193.398 123.491 193.314C123.389 193.224 123.338 193.098 123.338 192.936V192.027H124.715V191.343C124.715 190.815 124.793 190.341 124.949 189.921C125.111 189.501 125.339 189.144 125.633 188.85C125.933 188.556 126.296 188.331 126.722 188.175C127.148 188.019 127.628 187.941 128.162 187.941C128.588 187.941 128.984 187.998 129.35 188.112L129.305 189.228C129.299 189.312 129.275 189.381 129.233 189.435C129.191 189.483 129.134 189.522 129.062 189.552C128.996 189.576 128.918 189.594 128.828 189.606C128.738 189.612 128.642 189.615 128.54 189.615C128.276 189.615 128.039 189.645 127.829 189.705C127.625 189.759 127.451 189.858 127.307 190.002C127.163 190.14 127.052 190.326 126.974 190.56C126.902 190.788 126.866 191.073 126.866 191.415V192.027H129.269V193.611H126.938V201.18H124.715ZM134.358 191.802C135.042 191.802 135.663 191.913 136.221 192.135C136.785 192.357 137.265 192.672 137.661 193.08C138.063 193.488 138.372 193.986 138.588 194.574C138.804 195.162 138.912 195.819 138.912 196.545C138.912 197.277 138.804 197.937 138.588 198.525C138.372 199.113 138.063 199.614 137.661 200.028C137.265 200.442 136.785 200.76 136.221 200.982C135.663 201.204 135.042 201.315 134.358 201.315C133.668 201.315 133.041 201.204 132.477 200.982C131.913 200.76 131.43 200.442 131.028 200.028C130.632 199.614 130.323 199.113 130.101 198.525C129.885 197.937 129.777 197.277 129.777 196.545C129.777 195.819 129.885 195.162 130.101 194.574C130.323 193.986 130.632 193.488 131.028 193.08C131.43 192.672 131.913 192.357 132.477 192.135C133.041 191.913 133.668 191.802 134.358 191.802ZM134.358 199.605C135.126 199.605 135.693 199.347 136.059 198.831C136.431 198.315 136.617 197.559 136.617 196.563C136.617 195.567 136.431 194.808 136.059 194.286C135.693 193.764 135.126 193.503 134.358 193.503C133.578 193.503 132.999 193.767 132.621 194.295C132.249 194.817 132.063 195.573 132.063 196.563C132.063 197.553 132.249 198.309 132.621 198.831C132.999 199.347 133.578 199.605 134.358 199.605ZM142.705 193.548C142.993 192.996 143.335 192.564 143.731 192.252C144.127 191.934 144.595 191.775 145.135 191.775C145.561 191.775 145.903 191.868 146.161 192.054L146.017 193.719C145.987 193.827 145.942 193.905 145.882 193.953C145.828 193.995 145.753 194.016 145.657 194.016C145.567 194.016 145.432 194.001 145.252 193.971C145.078 193.941 144.907 193.926 144.739 193.926C144.493 193.926 144.274 193.962 144.082 194.034C143.89 194.106 143.716 194.211 143.56 194.349C143.41 194.481 143.275 194.643 143.155 194.835C143.041 195.027 142.933 195.246 142.831 195.492V201.18H140.608V191.946H141.913C142.141 191.946 142.3 191.988 142.39 192.072C142.48 192.15 142.54 192.294 142.57 192.504L142.705 193.548ZM159.244 191.946L154.213 203.718C154.147 203.874 154.06 203.991 153.952 204.069C153.85 204.153 153.691 204.195 153.475 204.195H151.819L153.547 200.487L149.812 191.946H151.765C151.939 191.946 152.074 191.988 152.17 192.072C152.272 192.156 152.347 192.252 152.395 192.36L154.357 197.148C154.423 197.31 154.477 197.472 154.519 197.634C154.567 197.796 154.612 197.961 154.654 198.129C154.708 197.961 154.762 197.796 154.816 197.634C154.87 197.466 154.93 197.301 154.996 197.139L156.85 192.36C156.898 192.24 156.976 192.141 157.084 192.063C157.198 191.985 157.324 191.946 157.462 191.946H159.244ZM164.153 191.802C164.837 191.802 165.458 191.913 166.016 192.135C166.58 192.357 167.06 192.672 167.456 193.08C167.858 193.488 168.167 193.986 168.383 194.574C168.599 195.162 168.707 195.819 168.707 196.545C168.707 197.277 168.599 197.937 168.383 198.525C168.167 199.113 167.858 199.614 167.456 200.028C167.06 200.442 166.58 200.76 166.016 200.982C165.458 201.204 164.837 201.315 164.153 201.315C163.463 201.315 162.836 201.204 162.272 200.982C161.708 200.76 161.225 200.442 160.823 200.028C160.427 199.614 160.118 199.113 159.896 198.525C159.68 197.937 159.572 197.277 159.572 196.545C159.572 195.819 159.68 195.162 159.896 194.574C160.118 193.986 160.427 193.488 160.823 193.08C161.225 192.672 161.708 192.357 162.272 192.135C162.836 191.913 163.463 191.802 164.153 191.802ZM164.153 199.605C164.921 199.605 165.488 199.347 165.854 198.831C166.226 198.315 166.412 197.559 166.412 196.563C166.412 195.567 166.226 194.808 165.854 194.286C165.488 193.764 164.921 193.503 164.153 193.503C163.373 193.503 162.794 193.767 162.416 194.295C162.044 194.817 161.858 195.573 161.858 196.563C161.858 197.553 162.044 198.309 162.416 198.831C162.794 199.347 163.373 199.605 164.153 199.605ZM178.359 191.946V201.18H177C176.706 201.18 176.52 201.045 176.442 200.775L176.289 200.037C175.911 200.421 175.494 200.733 175.038 200.973C174.582 201.207 174.045 201.324 173.427 201.324C172.923 201.324 172.476 201.24 172.086 201.072C171.702 200.898 171.378 200.655 171.114 200.343C170.85 200.031 170.649 199.662 170.511 199.236C170.379 198.804 170.313 198.33 170.313 197.814V191.946H172.536V197.814C172.536 198.378 172.665 198.816 172.923 199.128C173.187 199.434 173.58 199.587 174.102 199.587C174.486 199.587 174.846 199.503 175.182 199.335C175.518 199.161 175.836 198.924 176.136 198.624V191.946H178.359ZM182.66 193.548C182.948 192.996 183.29 192.564 183.686 192.252C184.082 191.934 184.55 191.775 185.09 191.775C185.516 191.775 185.858 191.868 186.116 192.054L185.972 193.719C185.942 193.827 185.897 193.905 185.837 193.953C185.783 193.995 185.708 194.016 185.612 194.016C185.522 194.016 185.387 194.001 185.207 193.971C185.033 193.941 184.862 193.926 184.694 193.926C184.448 193.926 184.229 193.962 184.037 194.034C183.845 194.106 183.671 194.211 183.515 194.349C183.365 194.481 183.23 194.643 183.11 194.835C182.996 195.027 182.888 195.246 182.786 195.492V201.18H180.563V191.946H181.868C182.096 191.946 182.255 191.988 182.345 192.072C182.435 192.15 182.495 192.294 182.525 192.504L182.66 193.548ZM196.146 197.238C195.504 197.268 194.964 197.325 194.526 197.409C194.088 197.487 193.737 197.589 193.473 197.715C193.209 197.841 193.02 197.988 192.906 198.156C192.792 198.324 192.735 198.507 192.735 198.705C192.735 199.095 192.849 199.374 193.077 199.542C193.311 199.71 193.614 199.794 193.986 199.794C194.442 199.794 194.835 199.713 195.165 199.551C195.501 199.383 195.828 199.131 196.146 198.795V197.238ZM191.052 193.233C192.114 192.261 193.392 191.775 194.886 191.775C195.426 191.775 195.909 191.865 196.335 192.045C196.761 192.219 197.121 192.465 197.415 192.783C197.709 193.095 197.931 193.47 198.081 193.908C198.237 194.346 198.315 194.826 198.315 195.348V201.18H197.307C197.097 201.18 196.935 201.15 196.821 201.09C196.707 201.024 196.617 200.895 196.551 200.703L196.353 200.037C196.119 200.247 195.891 200.433 195.669 200.595C195.447 200.751 195.216 200.883 194.976 200.991C194.736 201.099 194.478 201.18 194.202 201.234C193.932 201.294 193.632 201.324 193.302 201.324C192.912 201.324 192.552 201.273 192.222 201.171C191.892 201.063 191.607 200.904 191.367 200.694C191.127 200.484 190.941 200.223 190.809 199.911C190.677 199.599 190.611 199.236 190.611 198.822C190.611 198.588 190.65 198.357 190.728 198.129C190.806 197.895 190.932 197.673 191.106 197.463C191.286 197.253 191.517 197.055 191.799 196.869C192.081 196.683 192.426 196.521 192.834 196.383C193.248 196.245 193.728 196.134 194.274 196.05C194.82 195.96 195.444 195.906 196.146 195.888V195.348C196.146 194.73 196.014 194.274 195.75 193.98C195.486 193.68 195.105 193.53 194.607 193.53C194.247 193.53 193.947 193.572 193.707 193.656C193.473 193.74 193.266 193.836 193.086 193.944C192.906 194.046 192.741 194.139 192.591 194.223C192.447 194.307 192.285 194.349 192.105 194.349C191.949 194.349 191.817 194.31 191.709 194.232C191.601 194.148 191.514 194.052 191.448 193.944L191.052 193.233ZM206.205 194.304C205.953 193.998 205.677 193.782 205.377 193.656C205.083 193.53 204.765 193.467 204.423 193.467C204.087 193.467 203.784 193.53 203.514 193.656C203.244 193.782 203.013 193.974 202.821 194.232C202.629 194.484 202.482 194.808 202.38 195.204C202.278 195.594 202.227 196.056 202.227 196.59C202.227 197.13 202.269 197.589 202.353 197.967C202.443 198.339 202.569 198.645 202.731 198.885C202.893 199.119 203.091 199.29 203.325 199.398C203.559 199.5 203.82 199.551 204.108 199.551C204.57 199.551 204.963 199.455 205.287 199.263C205.611 199.071 205.917 198.798 206.205 198.444V194.304ZM208.428 187.806V201.18H207.069C206.775 201.18 206.589 201.045 206.511 200.775L206.322 199.884C205.95 200.31 205.521 200.655 205.035 200.919C204.555 201.183 203.994 201.315 203.352 201.315C202.848 201.315 202.386 201.21 201.966 201C201.546 200.79 201.183 200.487 200.877 200.091C200.577 199.689 200.343 199.194 200.175 198.606C200.013 198.018 199.932 197.346 199.932 196.59C199.932 195.906 200.025 195.27 200.211 194.682C200.397 194.094 200.664 193.584 201.012 193.152C201.36 192.72 201.777 192.384 202.263 192.144C202.749 191.898 203.295 191.775 203.901 191.775C204.417 191.775 204.858 191.856 205.224 192.018C205.59 192.18 205.917 192.399 206.205 192.675V187.806H208.428ZM216.417 194.304C216.165 193.998 215.889 193.782 215.589 193.656C215.295 193.53 214.977 193.467 214.635 193.467C214.299 193.467 213.996 193.53 213.726 193.656C213.456 193.782 213.225 193.974 213.033 194.232C212.841 194.484 212.694 194.808 212.592 195.204C212.49 195.594 212.439 196.056 212.439 196.59C212.439 197.13 212.481 197.589 212.565 197.967C212.655 198.339 212.781 198.645 212.943 198.885C213.105 199.119 213.303 199.29 213.537 199.398C213.771 199.5 214.032 199.551 214.32 199.551C214.782 199.551 215.175 199.455 215.499 199.263C215.823 199.071 216.129 198.798 216.417 198.444V194.304ZM218.64 187.806V201.18H217.281C216.987 201.18 216.801 201.045 216.723 200.775L216.534 199.884C216.162 200.31 215.733 200.655 215.247 200.919C214.767 201.183 214.206 201.315 213.564 201.315C213.06 201.315 212.598 201.21 212.178 201C211.758 200.79 211.395 200.487 211.089 200.091C210.789 199.689 210.555 199.194 210.387 198.606C210.225 198.018 210.144 197.346 210.144 196.59C210.144 195.906 210.237 195.27 210.423 194.682C210.609 194.094 210.876 193.584 211.224 193.152C211.572 192.72 211.989 192.384 212.475 192.144C212.961 191.898 213.507 191.775 214.113 191.775C214.629 191.775 215.07 191.856 215.436 192.018C215.802 192.18 216.129 192.399 216.417 192.675V187.806H218.64ZM222.931 193.548C223.219 192.996 223.561 192.564 223.957 192.252C224.353 191.934 224.821 191.775 225.361 191.775C225.787 191.775 226.129 191.868 226.387 192.054L226.243 193.719C226.213 193.827 226.168 193.905 226.108 193.953C226.054 193.995 225.979 194.016 225.883 194.016C225.793 194.016 225.658 194.001 225.478 193.971C225.304 193.941 225.133 193.926 224.965 193.926C224.719 193.926 224.5 193.962 224.308 194.034C224.116 194.106 223.942 194.211 223.786 194.349C223.636 194.481 223.501 194.643 223.381 194.835C223.267 195.027 223.159 195.246 223.057 195.492V201.18H220.834V191.946H222.139C222.367 191.946 222.526 191.988 222.616 192.072C222.706 192.15 222.766 192.294 222.796 192.504L222.931 193.548ZM233.235 195.501C233.235 195.213 233.193 194.943 233.109 194.691C233.031 194.433 232.911 194.208 232.749 194.016C232.587 193.824 232.38 193.674 232.128 193.566C231.882 193.452 231.594 193.395 231.264 193.395C230.622 193.395 230.115 193.578 229.743 193.944C229.377 194.31 229.143 194.829 229.041 195.501H233.235ZM228.996 196.842C229.032 197.316 229.116 197.727 229.248 198.075C229.38 198.417 229.554 198.702 229.77 198.93C229.986 199.152 230.241 199.32 230.535 199.434C230.835 199.542 231.165 199.596 231.525 199.596C231.885 199.596 232.194 199.554 232.452 199.47C232.716 199.386 232.944 199.293 233.136 199.191C233.334 199.089 233.505 198.996 233.649 198.912C233.799 198.828 233.943 198.786 234.081 198.786C234.267 198.786 234.405 198.855 234.495 198.993L235.134 199.803C234.888 200.091 234.612 200.334 234.306 200.532C234 200.724 233.679 200.88 233.343 201C233.013 201.114 232.674 201.195 232.326 201.243C231.984 201.291 231.651 201.315 231.327 201.315C230.685 201.315 230.088 201.21 229.536 201C228.984 200.784 228.504 200.469 228.096 200.055C227.688 199.635 227.367 199.119 227.133 198.507C226.899 197.889 226.781 197.175 226.781 196.365C226.781 195.735 226.884 195.144 227.088 194.592C227.292 194.034 227.583 193.551 227.961 193.143C228.345 192.729 228.81 192.402 229.356 192.162C229.908 191.922 230.529 191.802 231.219 191.802C231.801 191.802 232.338 191.895 232.83 192.081C233.322 192.267 233.745 192.54 234.099 192.9C234.453 193.254 234.729 193.692 234.927 194.214C235.131 194.73 235.232 195.321 235.232 195.987C235.232 196.323 235.197 196.551 235.125 196.671C235.053 196.785 234.915 196.842 234.711 196.842H228.996ZM242.535 193.746C242.475 193.842 242.412 193.911 242.346 193.953C242.28 193.989 242.196 194.007 242.094 194.007C241.986 194.007 241.869 193.977 241.743 193.917C241.623 193.857 241.482 193.791 241.32 193.719C241.158 193.641 240.972 193.572 240.762 193.512C240.558 193.452 240.315 193.422 240.033 193.422C239.595 193.422 239.25 193.515 238.998 193.701C238.752 193.887 238.629 194.13 238.629 194.43C238.629 194.628 238.692 194.796 238.818 194.934C238.95 195.066 239.121 195.183 239.331 195.285C239.547 195.387 239.79 195.48 240.06 195.564C240.33 195.642 240.603 195.729 240.879 195.825C241.161 195.921 241.437 196.032 241.707 196.158C241.977 196.278 242.217 196.434 242.427 196.626C242.643 196.812 242.814 197.037 242.94 197.301C243.072 197.565 243.138 197.883 243.138 198.255C243.138 198.699 243.057 199.11 242.895 199.488C242.739 199.86 242.505 200.184 242.193 200.46C241.881 200.73 241.494 200.943 241.032 201.099C240.576 201.249 240.048 201.324 239.448 201.324C239.13 201.324 238.818 201.294 238.512 201.234C238.212 201.18 237.921 201.102 237.639 201C237.363 200.898 237.105 200.778 236.865 200.64C236.631 200.502 236.424 200.352 236.244 200.19L236.757 199.344C236.823 199.242 236.901 199.164 236.991 199.11C237.081 199.056 237.195 199.029 237.333 199.029C237.471 199.029 237.6 199.068 237.72 199.146C237.846 199.224 237.99 199.308 238.152 199.398C238.314 199.488 238.503 199.572 238.719 199.65C238.941 199.728 239.22 199.767 239.556 199.767C239.82 199.767 240.045 199.737 240.231 199.677C240.423 199.611 240.579 199.527 240.699 199.425C240.825 199.323 240.915 199.206 240.969 199.074C241.029 198.936 241.059 198.795 241.059 198.651C241.059 198.435 240.993 198.258 240.861 198.12C240.735 197.982 240.564 197.862 240.348 197.76C240.138 197.658 239.895 197.568 239.619 197.49C239.349 197.406 239.07 197.316 238.782 197.22C238.5 197.124 238.221 197.013 237.945 196.887C237.675 196.755 237.432 196.59 237.216 196.392C237.006 196.194 236.835 195.951 236.703 195.663C236.577 195.375 236.514 195.027 236.514 194.619C236.514 194.241 236.589 193.881 236.739 193.539C236.889 193.197 237.108 192.9 237.396 192.648C237.69 192.39 238.053 192.186 238.485 192.036C238.923 191.88 239.427 191.802 239.997 191.802C240.633 191.802 241.212 191.907 241.734 192.117C242.256 192.327 242.691 192.603 243.039 192.945L242.535 193.746ZM250.445 193.746C250.385 193.842 250.322 193.911 250.256 193.953C250.19 193.989 250.106 194.007 250.004 194.007C249.896 194.007 249.779 193.977 249.653 193.917C249.533 193.857 249.392 193.791 249.23 193.719C249.068 193.641 248.882 193.572 248.672 193.512C248.468 193.452 248.225 193.422 247.943 193.422C247.505 193.422 247.16 193.515 246.908 193.701C246.662 193.887 246.539 194.13 246.539 194.43C246.539 194.628 246.602 194.796 246.728 194.934C246.86 195.066 247.031 195.183 247.241 195.285C247.457 195.387 247.7 195.48 247.97 195.564C248.24 195.642 248.513 195.729 248.789 195.825C249.071 195.921 249.347 196.032 249.617 196.158C249.887 196.278 250.127 196.434 250.337 196.626C250.553 196.812 250.724 197.037 250.85 197.301C250.982 197.565 251.048 197.883 251.048 198.255C251.048 198.699 250.967 199.11 250.805 199.488C250.649 199.86 250.415 200.184 250.103 200.46C249.791 200.73 249.404 200.943 248.942 201.099C248.486 201.249 247.958 201.324 247.358 201.324C247.04 201.324 246.728 201.294 246.422 201.234C246.122 201.18 245.831 201.102 245.549 201C245.273 200.898 245.015 200.778 244.775 200.64C244.541 200.502 244.334 200.352 244.154 200.19L244.667 199.344C244.733 199.242 244.811 199.164 244.901 199.11C244.991 199.056 245.105 199.029 245.243 199.029C245.381 199.029 245.51 199.068 245.63 199.146C245.756 199.224 245.9 199.308 246.062 199.398C246.224 199.488 246.413 199.572 246.629 199.65C246.851 199.728 247.13 199.767 247.466 199.767C247.73 199.767 247.955 199.737 248.141 199.677C248.333 199.611 248.489 199.527 248.609 199.425C248.735 199.323 248.825 199.206 248.879 199.074C248.939 198.936 248.969 198.795 248.969 198.651C248.969 198.435 248.903 198.258 248.771 198.12C248.645 197.982 248.474 197.862 248.258 197.76C248.048 197.658 247.805 197.568 247.529 197.49C247.259 197.406 246.98 197.316 246.692 197.22C246.41 197.124 246.131 197.013 245.855 196.887C245.585 196.755 245.342 196.59 245.126 196.392C244.916 196.194 244.745 195.951 244.613 195.663C244.487 195.375 244.424 195.027 244.424 194.619C244.424 194.241 244.499 193.881 244.649 193.539C244.799 193.197 245.018 192.9 245.306 192.648C245.6 192.39 245.963 192.186 246.395 192.036C246.833 191.88 247.337 191.802 247.907 191.802C248.543 191.802 249.122 191.907 249.644 192.117C250.166 192.327 250.601 192.603 250.949 192.945L250.445 193.746Z" fill="#E76F51" fill-opacity="0.75"/>
<path d="M156.5 80.9317C156.5 93.1308 146.826 102.932 135 102.932C123.174 102.932 113.5 93.1308 113.5 80.9317C113.5 68.7326 123.174 58.9317 135 58.9317C146.826 58.9317 156.5 68.7326 156.5 80.9317Z" stroke="#E76F51" stroke-opacity="0.75" stroke-width="5"/>
</svg>
