<svg width="164" height="195" viewBox="0 0 164 195" fill="none" xmlns="http://www.w3.org/2000/svg">
<path d="M62.7935 0.607212L62.7935 5.60721C62.7935 5.60721 43.9388 17.5 31.8576 17.5C19.7763 17.5 0.921673 5.60721 0.921673 5.60721L0.921673 0.607209C0.921673 0.607209 19.7763 12.5 31.8576 12.5C43.9388 12.5 62.7935 0.607212 62.7935 0.607212Z" fill="#E76F51" fill-opacity="0.75"/>
<path d="M163.872 0.999989L163.872 5.99999C163.872 5.99999 145.017 17.8928 132.936 17.8928C120.854 17.8928 102 5.99999 102 5.99999L102 0.999986C102 0.999986 120.854 12.8928 132.936 12.8928C145.017 12.8928 163.872 0.999989 163.872 0.999989Z" fill="#E76F51" fill-opacity="0.75"/>
<path d="M16.5234 163.14V168.18H14.1114V163.14L9.36835 155.166H11.5014C11.7114 155.166 11.8764 155.217 11.9964 155.319C12.1224 155.421 12.2274 155.55 12.3114 155.706L14.6874 160.053C14.8254 160.311 14.9454 160.554 15.0474 160.782C15.1554 161.01 15.2514 161.238 15.3354 161.466C15.4134 161.238 15.5034 161.01 15.6054 160.782C15.7074 160.554 15.8244 160.311 15.9564 160.053L18.3234 155.706C18.3894 155.574 18.4884 155.451 18.6204 155.337C18.7524 155.223 18.9204 155.166 19.1244 155.166H21.2664L16.5234 163.14ZM24.3022 158.802C24.9862 158.802 25.6072 158.913 26.1652 159.135C26.7292 159.357 27.2092 159.672 27.6052 160.08C28.0072 160.488 28.3162 160.986 28.5322 161.574C28.7482 162.162 28.8562 162.819 28.8562 163.545C28.8562 164.277 28.7482 164.937 28.5322 165.525C28.3162 166.113 28.0072 166.614 27.6052 167.028C27.2092 167.442 26.7292 167.76 26.1652 167.982C25.6072 168.204 24.9862 168.315 24.3022 168.315C23.6122 168.315 22.9852 168.204 22.4212 167.982C21.8572 167.76 21.3742 167.442 20.9722 167.028C20.5762 166.614 20.2672 166.113 20.0452 165.525C19.8292 164.937 19.7212 164.277 19.7212 163.545C19.7212 162.819 19.8292 162.162 20.0452 161.574C20.2672 160.986 20.5762 160.488 20.9722 160.08C21.3742 159.672 21.8572 159.357 22.4212 159.135C22.9852 158.913 23.6122 158.802 24.3022 158.802ZM24.3022 166.605C25.0702 166.605 25.6372 166.347 26.0032 165.831C26.3752 165.315 26.5612 164.559 26.5612 163.563C26.5612 162.567 26.3752 161.808 26.0032 161.286C25.6372 160.764 25.0702 160.503 24.3022 160.503C23.5222 160.503 22.9432 160.767 22.5652 161.295C22.1932 161.817 22.0072 162.573 22.0072 163.563C22.0072 164.553 22.1932 165.309 22.5652 165.831C22.9432 166.347 23.5222 166.605 24.3022 166.605ZM38.5081 158.946V168.18H37.1491C36.8551 168.18 36.6691 168.045 36.5911 167.775L36.4381 167.037C36.0601 167.421 35.6431 167.733 35.1871 167.973C34.7311 168.207 34.1941 168.324 33.5761 168.324C33.0721 168.324 32.6251 168.24 32.2351 168.072C31.8511 167.898 31.5271 167.655 31.2631 167.343C30.9991 167.031 30.7981 166.662 30.6601 166.236C30.5281 165.804 30.4621 165.33 30.4621 164.814V158.946H32.6851V164.814C32.6851 165.378 32.8141 165.816 33.0721 166.128C33.3361 166.434 33.7291 166.587 34.2511 166.587C34.6351 166.587 34.9951 166.503 35.3311 166.335C35.6671 166.161 35.9851 165.924 36.2851 165.624V158.946H38.5081ZM51.6892 159.936C52.0492 159.6 52.4452 159.327 52.8772 159.117C53.3092 158.907 53.8162 158.802 54.3982 158.802C54.9022 158.802 55.3492 158.889 55.7392 159.063C56.1292 159.231 56.4532 159.471 56.7112 159.783C56.9752 160.089 57.1732 160.458 57.3052 160.89C57.4432 161.316 57.5122 161.787 57.5122 162.303V168.18H55.2892V162.303C55.2892 161.739 55.1602 161.304 54.9022 160.998C54.6442 160.686 54.2512 160.53 53.7232 160.53C53.3392 160.53 52.9792 160.617 52.6432 160.791C52.3072 160.965 51.9892 161.202 51.6892 161.502V168.18H49.4662V154.806H51.6892V159.936ZM64.5043 164.238C63.8623 164.268 63.3223 164.325 62.8843 164.409C62.4463 164.487 62.0953 164.589 61.8313 164.715C61.5673 164.841 61.3783 164.988 61.2643 165.156C61.1503 165.324 61.0933 165.507 61.0933 165.705C61.0933 166.095 61.2073 166.374 61.4353 166.542C61.6693 166.71 61.9723 166.794 62.3443 166.794C62.8003 166.794 63.1933 166.713 63.5233 166.551C63.8593 166.383 64.1863 166.131 64.5043 165.795V164.238ZM59.4103 160.233C60.4723 159.261 61.7503 158.775 63.2443 158.775C63.7843 158.775 64.2673 158.865 64.6933 159.045C65.1193 159.219 65.4793 159.465 65.7733 159.783C66.0673 160.095 66.2893 160.47 66.4393 160.908C66.5953 161.346 66.6733 161.826 66.6733 162.348V168.18H65.6653C65.4553 168.18 65.2933 168.15 65.1793 168.09C65.0653 168.024 64.9753 167.895 64.9093 167.703L64.7113 167.037C64.4773 167.247 64.2493 167.433 64.0273 167.595C63.8053 167.751 63.5743 167.883 63.3343 167.991C63.0943 168.099 62.8363 168.18 62.5603 168.234C62.2903 168.294 61.9903 168.324 61.6603 168.324C61.2703 168.324 60.9103 168.273 60.5803 168.171C60.2503 168.063 59.9653 167.904 59.7253 167.694C59.4853 167.484 59.2993 167.223 59.1673 166.911C59.0353 166.599 58.9693 166.236 58.9693 165.822C58.9693 165.588 59.0083 165.357 59.0863 165.129C59.1643 164.895 59.2903 164.673 59.4643 164.463C59.6443 164.253 59.8753 164.055 60.1573 163.869C60.4393 163.683 60.7843 163.521 61.1923 163.383C61.6063 163.245 62.0863 163.134 62.6323 163.05C63.1783 162.96 63.8023 162.906 64.5043 162.888V162.348C64.5043 161.73 64.3723 161.274 64.1083 160.98C63.8443 160.68 63.4633 160.53 62.9653 160.53C62.6053 160.53 62.3053 160.572 62.0653 160.656C61.8313 160.74 61.6243 160.836 61.4443 160.944C61.2643 161.046 61.0993 161.139 60.9493 161.223C60.8053 161.307 60.6433 161.349 60.4633 161.349C60.3073 161.349 60.1753 161.31 60.0673 161.232C59.9593 161.148 59.8723 161.052 59.8063 160.944L59.4103 160.233ZM76.881 158.946L73.218 168.18H71.202L67.539 158.946H69.375C69.543 158.946 69.681 158.985 69.789 159.063C69.903 159.141 69.978 159.24 70.014 159.36L71.796 164.292C71.892 164.58 71.976 164.862 72.048 165.138C72.12 165.414 72.183 165.69 72.237 165.966C72.297 165.69 72.363 165.414 72.435 165.138C72.507 164.862 72.594 164.58 72.696 164.292L74.514 159.36C74.556 159.24 74.631 159.141 74.739 159.063C74.847 158.985 74.976 158.946 75.126 158.946H76.881ZM83.7335 162.501C83.7335 162.213 83.6915 161.943 83.6075 161.691C83.5295 161.433 83.4095 161.208 83.2475 161.016C83.0855 160.824 82.8785 160.674 82.6265 160.566C82.3805 160.452 82.0925 160.395 81.7625 160.395C81.1205 160.395 80.6135 160.578 80.2415 160.944C79.8755 161.31 79.6415 161.829 79.5395 162.501H83.7335ZM79.4945 163.842C79.5305 164.316 79.6145 164.727 79.7465 165.075C79.8785 165.417 80.0525 165.702 80.2685 165.93C80.4845 166.152 80.7395 166.32 81.0335 166.434C81.3335 166.542 81.6635 166.596 82.0235 166.596C82.3835 166.596 82.6925 166.554 82.9505 166.47C83.2145 166.386 83.4425 166.293 83.6345 166.191C83.8325 166.089 84.0035 165.996 84.1475 165.912C84.2975 165.828 84.4415 165.786 84.5795 165.786C84.7655 165.786 84.9035 165.855 84.9935 165.993L85.6325 166.803C85.3865 167.091 85.1105 167.334 84.8045 167.532C84.4985 167.724 84.1775 167.88 83.8415 168C83.5115 168.114 83.1725 168.195 82.8245 168.243C82.4825 168.291 82.1495 168.315 81.8255 168.315C81.1835 168.315 80.5865 168.21 80.0345 168C79.4825 167.784 79.0025 167.469 78.5945 167.055C78.1865 166.635 77.8655 166.119 77.6315 165.507C77.3975 164.889 77.2805 164.175 77.2805 163.365C77.2805 162.735 77.3825 162.144 77.5865 161.592C77.7905 161.034 78.0815 160.551 78.4595 160.143C78.8435 159.729 79.3085 159.402 79.8545 159.162C80.4065 158.922 81.0275 158.802 81.7175 158.802C82.2995 158.802 82.8365 158.895 83.3285 159.081C83.8205 159.267 84.2435 159.54 84.5975 159.9C84.9515 160.254 85.2275 160.692 85.4255 161.214C85.6295 161.73 85.7315 162.321 85.7315 162.987C85.7315 163.323 85.6955 163.551 85.6235 163.671C85.5515 163.785 85.4135 163.842 85.2095 163.842H79.4945ZM89.4788 160.08C89.6648 159.894 89.8598 159.723 90.0638 159.567C90.2738 159.405 90.4928 159.27 90.7208 159.162C90.9548 159.048 91.2038 158.961 91.4678 158.901C91.7318 158.835 92.0198 158.802 92.3318 158.802C92.8358 158.802 93.2828 158.889 93.6728 159.063C94.0628 159.231 94.3868 159.471 94.6448 159.783C94.9088 160.089 95.1068 160.458 95.2388 160.89C95.3768 161.316 95.4458 161.787 95.4458 162.303V168.18H93.2228V162.303C93.2228 161.739 93.0938 161.304 92.8358 160.998C92.5778 160.686 92.1848 160.53 91.6568 160.53C91.2728 160.53 90.9128 160.617 90.5768 160.791C90.2408 160.965 89.9228 161.202 89.6228 161.502V168.18H87.3998V158.946H88.7588C89.0468 158.946 89.2358 159.081 89.3258 159.351L89.4788 160.08ZM99.0692 155.166V157.758L98.8712 159.162C98.8232 159.426 98.7452 159.63 98.6372 159.774C98.5292 159.912 98.3492 159.981 98.0972 159.981C97.8752 159.981 97.7042 159.912 97.5842 159.774C97.4642 159.63 97.3802 159.426 97.3322 159.162L97.1342 157.758V155.166H99.0692ZM104.189 168.324C103.385 168.324 102.767 168.099 102.335 167.649C101.909 167.193 101.696 166.566 101.696 165.768V160.611H100.751C100.631 160.611 100.529 160.572 100.445 160.494C100.361 160.416 100.319 160.299 100.319 160.143V159.261L101.804 159.018L102.272 156.498C102.302 156.378 102.359 156.285 102.443 156.219C102.527 156.153 102.635 156.12 102.767 156.12H103.919V159.027H106.385V160.611H103.919V165.615C103.919 165.903 103.988 166.128 104.126 166.29C104.27 166.452 104.465 166.533 104.711 166.533C104.849 166.533 104.963 166.518 105.053 166.488C105.149 166.452 105.23 166.416 105.296 166.38C105.368 166.344 105.431 166.311 105.485 166.281C105.539 166.245 105.593 166.227 105.647 166.227C105.713 166.227 105.767 166.245 105.809 166.281C105.851 166.311 105.896 166.359 105.944 166.425L106.61 167.505C106.286 167.775 105.914 167.979 105.494 168.117C105.074 168.255 104.639 168.324 104.189 168.324ZM112.185 168.18V158.946H113.544C113.832 158.946 114.021 159.081 114.111 159.351L114.255 160.035C114.417 159.855 114.585 159.69 114.759 159.54C114.939 159.39 115.128 159.261 115.326 159.153C115.53 159.045 115.746 158.961 115.974 158.901C116.208 158.835 116.463 158.802 116.739 158.802C117.321 158.802 117.798 158.961 118.17 159.279C118.548 159.591 118.83 160.008 119.016 160.53C119.16 160.224 119.34 159.963 119.556 159.747C119.772 159.525 120.009 159.345 120.267 159.207C120.525 159.069 120.798 158.967 121.086 158.901C121.38 158.835 121.674 158.802 121.968 158.802C122.478 158.802 122.931 158.88 123.327 159.036C123.723 159.192 124.056 159.42 124.326 159.72C124.596 160.02 124.8 160.386 124.938 160.818C125.082 161.25 125.154 161.745 125.154 162.303V168.18H122.931V162.303C122.931 161.715 122.802 161.274 122.544 160.98C122.286 160.68 121.908 160.53 121.41 160.53C121.182 160.53 120.969 160.569 120.771 160.647C120.579 160.725 120.408 160.839 120.258 160.989C120.114 161.133 120 161.316 119.916 161.538C119.832 161.76 119.79 162.015 119.79 162.303V168.18H117.558V162.303C117.558 161.685 117.432 161.235 117.18 160.953C116.934 160.671 116.571 160.53 116.091 160.53C115.767 160.53 115.464 160.611 115.182 160.773C114.906 160.929 114.648 161.145 114.408 161.421V168.18H112.185ZM132.145 164.238C131.503 164.268 130.963 164.325 130.525 164.409C130.087 164.487 129.736 164.589 129.472 164.715C129.208 164.841 129.019 164.988 128.905 165.156C128.791 165.324 128.734 165.507 128.734 165.705C128.734 166.095 128.848 166.374 129.076 166.542C129.31 166.71 129.613 166.794 129.985 166.794C130.441 166.794 130.834 166.713 131.164 166.551C131.5 166.383 131.827 166.131 132.145 165.795V164.238ZM127.051 160.233C128.113 159.261 129.391 158.775 130.885 158.775C131.425 158.775 131.908 158.865 132.334 159.045C132.76 159.219 133.12 159.465 133.414 159.783C133.708 160.095 133.93 160.47 134.08 160.908C134.236 161.346 134.314 161.826 134.314 162.348V168.18H133.306C133.096 168.18 132.934 168.15 132.82 168.09C132.706 168.024 132.616 167.895 132.55 167.703L132.352 167.037C132.118 167.247 131.89 167.433 131.668 167.595C131.446 167.751 131.215 167.883 130.975 167.991C130.735 168.099 130.477 168.18 130.201 168.234C129.931 168.294 129.631 168.324 129.301 168.324C128.911 168.324 128.551 168.273 128.221 168.171C127.891 168.063 127.606 167.904 127.366 167.694C127.126 167.484 126.94 167.223 126.808 166.911C126.676 166.599 126.61 166.236 126.61 165.822C126.61 165.588 126.649 165.357 126.727 165.129C126.805 164.895 126.931 164.673 127.105 164.463C127.285 164.253 127.516 164.055 127.798 163.869C128.08 163.683 128.425 163.521 128.833 163.383C129.247 163.245 129.727 163.134 130.273 163.05C130.819 162.96 131.443 162.906 132.145 162.888V162.348C132.145 161.73 132.013 161.274 131.749 160.98C131.485 160.68 131.104 160.53 130.606 160.53C130.246 160.53 129.946 160.572 129.706 160.656C129.472 160.74 129.265 160.836 129.085 160.944C128.905 161.046 128.74 161.139 128.59 161.223C128.446 161.307 128.284 161.349 128.104 161.349C127.948 161.349 127.816 161.31 127.708 161.232C127.6 161.148 127.513 161.052 127.447 160.944L127.051 160.233ZM142.204 161.304C141.952 160.998 141.676 160.782 141.376 160.656C141.082 160.53 140.764 160.467 140.422 160.467C140.086 160.467 139.783 160.53 139.513 160.656C139.243 160.782 139.012 160.974 138.82 161.232C138.628 161.484 138.481 161.808 138.379 162.204C138.277 162.594 138.226 163.056 138.226 163.59C138.226 164.13 138.268 164.589 138.352 164.967C138.442 165.339 138.568 165.645 138.73 165.885C138.892 166.119 139.09 166.29 139.324 166.398C139.558 166.5 139.819 166.551 140.107 166.551C140.569 166.551 140.962 166.455 141.286 166.263C141.61 166.071 141.916 165.798 142.204 165.444V161.304ZM144.427 154.806V168.18H143.068C142.774 168.18 142.588 168.045 142.51 167.775L142.321 166.884C141.949 167.31 141.52 167.655 141.034 167.919C140.554 168.183 139.993 168.315 139.351 168.315C138.847 168.315 138.385 168.21 137.965 168C137.545 167.79 137.182 167.487 136.876 167.091C136.576 166.689 136.342 166.194 136.174 165.606C136.012 165.018 135.931 164.346 135.931 163.59C135.931 162.906 136.024 162.27 136.21 161.682C136.396 161.094 136.663 160.584 137.011 160.152C137.359 159.72 137.776 159.384 138.262 159.144C138.748 158.898 139.294 158.775 139.9 158.775C140.416 158.775 140.857 158.856 141.223 159.018C141.589 159.18 141.916 159.399 142.204 159.675V154.806H144.427ZM152.569 162.501C152.569 162.213 152.527 161.943 152.443 161.691C152.365 161.433 152.245 161.208 152.083 161.016C151.921 160.824 151.714 160.674 151.462 160.566C151.216 160.452 150.928 160.395 150.598 160.395C149.956 160.395 149.449 160.578 149.077 160.944C148.711 161.31 148.477 161.829 148.375 162.501H152.569ZM148.33 163.842C148.366 164.316 148.45 164.727 148.582 165.075C148.714 165.417 148.888 165.702 149.104 165.93C149.32 166.152 149.575 166.32 149.869 166.434C150.169 166.542 150.499 166.596 150.859 166.596C151.219 166.596 151.528 166.554 151.786 166.47C152.05 166.386 152.278 166.293 152.47 166.191C152.668 166.089 152.839 165.996 152.983 165.912C153.133 165.828 153.277 165.786 153.415 165.786C153.601 165.786 153.739 165.855 153.829 165.993L154.468 166.803C154.222 167.091 153.946 167.334 153.64 167.532C153.334 167.724 153.013 167.88 152.677 168C152.347 168.114 152.008 168.195 151.66 168.243C151.318 168.291 150.985 168.315 150.661 168.315C150.019 168.315 149.422 168.21 148.87 168C148.318 167.784 147.838 167.469 147.43 167.055C147.022 166.635 146.701 166.119 146.467 165.507C146.233 164.889 146.116 164.175 146.116 163.365C146.116 162.735 146.218 162.144 146.422 161.592C146.626 161.034 146.917 160.551 147.295 160.143C147.679 159.729 148.144 159.402 148.69 159.162C149.242 158.922 149.863 158.802 150.553 158.802C151.135 158.802 151.672 158.895 152.164 159.081C152.656 159.267 153.079 159.54 153.433 159.9C153.787 160.254 154.063 160.692 154.261 161.214C154.465 161.73 154.567 162.321 154.567 162.987C154.567 163.323 154.531 163.551 154.459 163.671C154.387 163.785 154.249 163.842 154.045 163.842H148.33ZM12.227 186.238C11.585 186.268 11.045 186.325 10.607 186.409C10.169 186.487 9.81798 186.589 9.55398 186.715C9.28998 186.841 9.10098 186.988 8.98698 187.156C8.87298 187.324 8.81598 187.507 8.81598 187.705C8.81598 188.095 8.92998 188.374 9.15798 188.542C9.39198 188.71 9.69498 188.794 10.067 188.794C10.523 188.794 10.916 188.713 11.246 188.551C11.582 188.383 11.909 188.131 12.227 187.795V186.238ZM7.13298 182.233C8.19498 181.261 9.47298 180.775 10.967 180.775C11.507 180.775 11.99 180.865 12.416 181.045C12.842 181.219 13.202 181.465 13.496 181.783C13.79 182.095 14.012 182.47 14.162 182.908C14.318 183.346 14.396 183.826 14.396 184.348V190.18H13.388C13.178 190.18 13.016 190.15 12.902 190.09C12.788 190.024 12.698 189.895 12.632 189.703L12.434 189.037C12.2 189.247 11.972 189.433 11.75 189.595C11.528 189.751 11.297 189.883 11.057 189.991C10.817 190.099 10.559 190.18 10.283 190.234C10.013 190.294 9.71298 190.324 9.38298 190.324C8.99298 190.324 8.63298 190.273 8.30298 190.171C7.97298 190.063 7.68798 189.904 7.44798 189.694C7.20798 189.484 7.02198 189.223 6.88998 188.911C6.75798 188.599 6.69198 188.236 6.69198 187.822C6.69198 187.588 6.73098 187.357 6.80898 187.129C6.88698 186.895 7.01298 186.673 7.18698 186.463C7.36698 186.253 7.59798 186.055 7.87998 185.869C8.16198 185.683 8.50698 185.521 8.91498 185.383C9.32898 185.245 9.80898 185.134 10.355 185.05C10.901 184.96 11.525 184.906 12.227 184.888V184.348C12.227 183.73 12.095 183.274 11.831 182.98C11.567 182.68 11.186 182.53 10.688 182.53C10.328 182.53 10.028 182.572 9.78798 182.656C9.55398 182.74 9.34698 182.836 9.16698 182.944C8.98698 183.046 8.82198 183.139 8.67198 183.223C8.52798 183.307 8.36598 183.349 8.18598 183.349C8.02998 183.349 7.89798 183.31 7.78998 183.232C7.68198 183.148 7.59498 183.052 7.52898 182.944L7.13298 182.233ZM18.5686 182.08C18.7546 181.894 18.9496 181.723 19.1536 181.567C19.3636 181.405 19.5826 181.27 19.8106 181.162C20.0446 181.048 20.2936 180.961 20.5576 180.901C20.8216 180.835 21.1096 180.802 21.4216 180.802C21.9256 180.802 22.3726 180.889 22.7626 181.063C23.1526 181.231 23.4766 181.471 23.7346 181.783C23.9986 182.089 24.1966 182.458 24.3286 182.89C24.4666 183.316 24.5356 183.787 24.5356 184.303V190.18H22.3126V184.303C22.3126 183.739 22.1836 183.304 21.9256 182.998C21.6676 182.686 21.2746 182.53 20.7466 182.53C20.3626 182.53 20.0026 182.617 19.6666 182.791C19.3306 182.965 19.0126 183.202 18.7126 183.502V190.18H16.4896V180.946H17.8486C18.1366 180.946 18.3256 181.081 18.4156 181.351L18.5686 182.08ZM34.7917 180.946L29.7607 192.718C29.6947 192.874 29.6077 192.991 29.4997 193.069C29.3977 193.153 29.2387 193.195 29.0227 193.195H27.3667L29.0947 189.487L25.3597 180.946H27.3127C27.4867 180.946 27.6217 180.988 27.7177 181.072C27.8197 181.156 27.8947 181.252 27.9427 181.36L29.9047 186.148C29.9707 186.31 30.0247 186.472 30.0667 186.634C30.1147 186.796 30.1597 186.961 30.2017 187.129C30.2557 186.961 30.3097 186.796 30.3637 186.634C30.4177 186.466 30.4777 186.301 30.5437 186.139L32.3977 181.36C32.4457 181.24 32.5237 181.141 32.6317 181.063C32.7457 180.985 32.8717 180.946 33.0097 180.946H34.7917ZM42.8938 190.324C42.0898 190.324 41.4718 190.099 41.0398 189.649C40.6138 189.193 40.4008 188.566 40.4008 187.768V182.611H39.4558C39.3358 182.611 39.2338 182.572 39.1498 182.494C39.0658 182.416 39.0238 182.299 39.0238 182.143V181.261L40.5088 181.018L40.9768 178.498C41.0068 178.378 41.0638 178.285 41.1478 178.219C41.2318 178.153 41.3398 178.12 41.4718 178.12H42.6238V181.027H45.0898V182.611H42.6238V187.615C42.6238 187.903 42.6928 188.128 42.8308 188.29C42.9748 188.452 43.1698 188.533 43.4158 188.533C43.5538 188.533 43.6678 188.518 43.7578 188.488C43.8538 188.452 43.9348 188.416 44.0008 188.38C44.0728 188.344 44.1358 188.311 44.1898 188.281C44.2438 188.245 44.2978 188.227 44.3518 188.227C44.4178 188.227 44.4718 188.245 44.5138 188.281C44.5558 188.311 44.6008 188.359 44.6488 188.425L45.3148 189.505C44.9908 189.775 44.6188 189.979 44.1988 190.117C43.7788 190.255 43.3438 190.324 42.8938 190.324ZM48.61 182.548C48.898 181.996 49.24 181.564 49.636 181.252C50.032 180.934 50.5 180.775 51.04 180.775C51.466 180.775 51.808 180.868 52.066 181.054L51.922 182.719C51.892 182.827 51.847 182.905 51.787 182.953C51.733 182.995 51.658 183.016 51.562 183.016C51.472 183.016 51.337 183.001 51.157 182.971C50.983 182.941 50.812 182.926 50.644 182.926C50.398 182.926 50.179 182.962 49.987 183.034C49.795 183.106 49.621 183.211 49.465 183.349C49.315 183.481 49.18 183.643 49.06 183.835C48.946 184.027 48.838 184.246 48.736 184.492V190.18H46.513V180.946H47.818C48.046 180.946 48.205 180.988 48.295 181.072C48.385 181.15 48.445 181.294 48.475 181.504L48.61 182.548ZM57.9828 186.238C57.3408 186.268 56.8008 186.325 56.3628 186.409C55.9248 186.487 55.5738 186.589 55.3098 186.715C55.0458 186.841 54.8568 186.988 54.7428 187.156C54.6288 187.324 54.5718 187.507 54.5718 187.705C54.5718 188.095 54.6858 188.374 54.9138 188.542C55.1478 188.71 55.4508 188.794 55.8228 188.794C56.2788 188.794 56.6718 188.713 57.0018 188.551C57.3378 188.383 57.6648 188.131 57.9828 187.795V186.238ZM52.8888 182.233C53.9508 181.261 55.2288 180.775 56.7228 180.775C57.2628 180.775 57.7458 180.865 58.1718 181.045C58.5978 181.219 58.9578 181.465 59.2518 181.783C59.5458 182.095 59.7678 182.47 59.9178 182.908C60.0738 183.346 60.1518 183.826 60.1518 184.348V190.18H59.1438C58.9338 190.18 58.7718 190.15 58.6578 190.09C58.5438 190.024 58.4538 189.895 58.3878 189.703L58.1898 189.037C57.9558 189.247 57.7278 189.433 57.5058 189.595C57.2838 189.751 57.0528 189.883 56.8128 189.991C56.5728 190.099 56.3148 190.18 56.0388 190.234C55.7688 190.294 55.4688 190.324 55.1388 190.324C54.7488 190.324 54.3888 190.273 54.0588 190.171C53.7288 190.063 53.4438 189.904 53.2038 189.694C52.9638 189.484 52.7778 189.223 52.6458 188.911C52.5138 188.599 52.4478 188.236 52.4478 187.822C52.4478 187.588 52.4868 187.357 52.5648 187.129C52.6428 186.895 52.7688 186.673 52.9428 186.463C53.1228 186.253 53.3538 186.055 53.6358 185.869C53.9178 185.683 54.2628 185.521 54.6708 185.383C55.0848 185.245 55.5648 185.134 56.1108 185.05C56.6568 184.96 57.2808 184.906 57.9828 184.888V184.348C57.9828 183.73 57.8508 183.274 57.5868 182.98C57.3228 182.68 56.9418 182.53 56.4438 182.53C56.0838 182.53 55.7838 182.572 55.5438 182.656C55.3098 182.74 55.1028 182.836 54.9228 182.944C54.7428 183.046 54.5778 183.139 54.4278 183.223C54.2838 183.307 54.1218 183.349 53.9418 183.349C53.7858 183.349 53.6538 183.31 53.5458 183.232C53.4378 183.148 53.3508 183.052 53.2848 182.944L52.8888 182.233ZM64.3245 182.08C64.5105 181.894 64.7055 181.723 64.9095 181.567C65.1195 181.405 65.3385 181.27 65.5665 181.162C65.8005 181.048 66.0495 180.961 66.3135 180.901C66.5775 180.835 66.8655 180.802 67.1775 180.802C67.6815 180.802 68.1285 180.889 68.5185 181.063C68.9085 181.231 69.2325 181.471 69.4905 181.783C69.7545 182.089 69.9525 182.458 70.0845 182.89C70.2225 183.316 70.2915 183.787 70.2915 184.303V190.18H68.0685V184.303C68.0685 183.739 67.9395 183.304 67.6815 182.998C67.4235 182.686 67.0305 182.53 66.5025 182.53C66.1185 182.53 65.7585 182.617 65.4225 182.791C65.0865 182.965 64.7685 183.202 64.4685 183.502V190.18H62.2455V180.946H63.6045C63.8925 180.946 64.0815 181.081 64.1715 181.351L64.3245 182.08ZM78.0396 182.746C77.9796 182.842 77.9166 182.911 77.8506 182.953C77.7846 182.989 77.7006 183.007 77.5986 183.007C77.4906 183.007 77.3736 182.977 77.2476 182.917C77.1276 182.857 76.9866 182.791 76.8246 182.719C76.6626 182.641 76.4766 182.572 76.2666 182.512C76.0626 182.452 75.8196 182.422 75.5376 182.422C75.0996 182.422 74.7546 182.515 74.5026 182.701C74.2566 182.887 74.1336 183.13 74.1336 183.43C74.1336 183.628 74.1966 183.796 74.3226 183.934C74.4546 184.066 74.6256 184.183 74.8356 184.285C75.0516 184.387 75.2946 184.48 75.5646 184.564C75.8346 184.642 76.1076 184.729 76.3836 184.825C76.6656 184.921 76.9416 185.032 77.2116 185.158C77.4816 185.278 77.7216 185.434 77.9316 185.626C78.1476 185.812 78.3186 186.037 78.4446 186.301C78.5766 186.565 78.6426 186.883 78.6426 187.255C78.6426 187.699 78.5616 188.11 78.3996 188.488C78.2436 188.86 78.0096 189.184 77.6976 189.46C77.3856 189.73 76.9986 189.943 76.5366 190.099C76.0806 190.249 75.5526 190.324 74.9526 190.324C74.6346 190.324 74.3226 190.294 74.0166 190.234C73.7166 190.18 73.4256 190.102 73.1436 190C72.8676 189.898 72.6096 189.778 72.3696 189.64C72.1356 189.502 71.9286 189.352 71.7486 189.19L72.2616 188.344C72.3276 188.242 72.4056 188.164 72.4956 188.11C72.5856 188.056 72.6996 188.029 72.8376 188.029C72.9756 188.029 73.1046 188.068 73.2246 188.146C73.3506 188.224 73.4946 188.308 73.6566 188.398C73.8186 188.488 74.0076 188.572 74.2236 188.65C74.4456 188.728 74.7246 188.767 75.0606 188.767C75.3246 188.767 75.5496 188.737 75.7356 188.677C75.9276 188.611 76.0836 188.527 76.2036 188.425C76.3296 188.323 76.4196 188.206 76.4736 188.074C76.5336 187.936 76.5636 187.795 76.5636 187.651C76.5636 187.435 76.4976 187.258 76.3656 187.12C76.2396 186.982 76.0686 186.862 75.8526 186.76C75.6426 186.658 75.3996 186.568 75.1236 186.49C74.8536 186.406 74.5746 186.316 74.2866 186.22C74.0046 186.124 73.7256 186.013 73.4496 185.887C73.1796 185.755 72.9366 185.59 72.7206 185.392C72.5106 185.194 72.3396 184.951 72.2076 184.663C72.0816 184.375 72.0186 184.027 72.0186 183.619C72.0186 183.241 72.0936 182.881 72.2436 182.539C72.3936 182.197 72.6126 181.9 72.9006 181.648C73.1946 181.39 73.5576 181.186 73.9896 181.036C74.4276 180.88 74.9316 180.802 75.5016 180.802C76.1376 180.802 76.7166 180.907 77.2386 181.117C77.7606 181.327 78.1956 181.603 78.5436 181.945L78.0396 182.746ZM85.1938 186.238C84.5518 186.268 84.0118 186.325 83.5738 186.409C83.1358 186.487 82.7848 186.589 82.5208 186.715C82.2568 186.841 82.0678 186.988 81.9538 187.156C81.8398 187.324 81.7828 187.507 81.7828 187.705C81.7828 188.095 81.8968 188.374 82.1248 188.542C82.3588 188.71 82.6618 188.794 83.0338 188.794C83.4898 188.794 83.8828 188.713 84.2128 188.551C84.5488 188.383 84.8758 188.131 85.1938 187.795V186.238ZM80.0998 182.233C81.1618 181.261 82.4398 180.775 83.9338 180.775C84.4738 180.775 84.9568 180.865 85.3828 181.045C85.8088 181.219 86.1688 181.465 86.4628 181.783C86.7568 182.095 86.9788 182.47 87.1288 182.908C87.2848 183.346 87.3628 183.826 87.3628 184.348V190.18H86.3548C86.1448 190.18 85.9828 190.15 85.8688 190.09C85.7548 190.024 85.6648 189.895 85.5988 189.703L85.4008 189.037C85.1668 189.247 84.9388 189.433 84.7168 189.595C84.4948 189.751 84.2638 189.883 84.0238 189.991C83.7838 190.099 83.5258 190.18 83.2498 190.234C82.9798 190.294 82.6798 190.324 82.3498 190.324C81.9598 190.324 81.5998 190.273 81.2698 190.171C80.9398 190.063 80.6548 189.904 80.4148 189.694C80.1748 189.484 79.9888 189.223 79.8568 188.911C79.7248 188.599 79.6588 188.236 79.6588 187.822C79.6588 187.588 79.6978 187.357 79.7758 187.129C79.8538 186.895 79.9798 186.673 80.1538 186.463C80.3338 186.253 80.5648 186.055 80.8468 185.869C81.1288 185.683 81.4738 185.521 81.8818 185.383C82.2958 185.245 82.7758 185.134 83.3218 185.05C83.8678 184.96 84.4918 184.906 85.1938 184.888V184.348C85.1938 183.73 85.0618 183.274 84.7978 182.98C84.5338 182.68 84.1528 182.53 83.6548 182.53C83.2948 182.53 82.9948 182.572 82.7548 182.656C82.5208 182.74 82.3138 182.836 82.1338 182.944C81.9538 183.046 81.7888 183.139 81.6388 183.223C81.4948 183.307 81.3328 183.349 81.1528 183.349C80.9968 183.349 80.8648 183.31 80.7568 183.232C80.6488 183.148 80.5618 183.052 80.4958 182.944L80.0998 182.233ZM96.0714 182.899C96.0054 182.983 95.9394 183.049 95.8734 183.097C95.8134 183.145 95.7234 183.169 95.6034 183.169C95.4894 183.169 95.3784 183.136 95.2704 183.07C95.1624 182.998 95.0334 182.92 94.8834 182.836C94.7334 182.746 94.5534 182.668 94.3434 182.602C94.1394 182.53 93.8844 182.494 93.5784 182.494C93.1884 182.494 92.8464 182.566 92.5524 182.71C92.2584 182.848 92.0124 183.049 91.8144 183.313C91.6224 183.577 91.4784 183.898 91.3824 184.276C91.2864 184.648 91.2384 185.071 91.2384 185.545C91.2384 186.037 91.2894 186.475 91.3914 186.859C91.4994 187.243 91.6524 187.567 91.8504 187.831C92.0484 188.089 92.2884 188.287 92.5704 188.425C92.8524 188.557 93.1704 188.623 93.5244 188.623C93.8784 188.623 94.1634 188.581 94.3794 188.497C94.6014 188.407 94.7874 188.311 94.9374 188.209C95.0874 188.101 95.2164 188.005 95.3244 187.921C95.4384 187.831 95.5644 187.786 95.7024 187.786C95.8824 187.786 96.0174 187.855 96.1074 187.993L96.7464 188.803C96.5004 189.091 96.2334 189.334 95.9454 189.532C95.6574 189.724 95.3574 189.88 95.0454 190C94.7394 190.114 94.4214 190.195 94.0914 190.243C93.7674 190.291 93.4434 190.315 93.1194 190.315C92.5494 190.315 92.0124 190.21 91.5084 190C91.0044 189.784 90.5634 189.472 90.1854 189.064C89.8074 188.656 89.5074 188.158 89.2854 187.57C89.0694 186.976 88.9614 186.301 88.9614 185.545C88.9614 184.867 89.0574 184.24 89.2494 183.664C89.4474 183.082 89.7354 182.581 90.1134 182.161C90.4914 181.735 90.9594 181.402 91.5174 181.162C92.0754 180.922 92.7174 180.802 93.4434 180.802C94.1334 180.802 94.7364 180.913 95.2524 181.135C95.7744 181.357 96.2424 181.675 96.6564 182.089L96.0714 182.899ZM107.455 190.18H105.232V182.611H100.948V187.615C100.948 187.903 101.017 188.128 101.155 188.29C101.299 188.452 101.494 188.533 101.74 188.533C101.878 188.533 101.992 188.518 102.082 188.488C102.178 188.452 102.259 188.416 102.325 188.38C102.397 188.344 102.46 188.311 102.514 188.281C102.568 188.245 102.622 188.227 102.676 188.227C102.742 188.227 102.796 188.245 102.838 188.281C102.88 188.311 102.925 188.359 102.973 188.425L103.639 189.505C103.315 189.775 102.943 189.979 102.523 190.117C102.103 190.255 101.668 190.324 101.218 190.324C100.414 190.324 99.796 190.099 99.364 189.649C98.938 189.193 98.725 188.566 98.725 187.768V182.611H97.78C97.66 182.611 97.558 182.572 97.474 182.494C97.39 182.416 97.348 182.299 97.348 182.143V181.261L98.833 181.009L99.301 178.498C99.331 178.378 99.388 178.285 99.472 178.219C99.556 178.153 99.664 178.12 99.796 178.12H100.948V181.027H107.455V190.18ZM107.842 178.219C107.842 178.411 107.803 178.594 107.725 178.768C107.647 178.936 107.542 179.083 107.41 179.209C107.284 179.335 107.131 179.437 106.951 179.515C106.777 179.587 106.591 179.623 106.393 179.623C106.201 179.623 106.021 179.587 105.853 179.515C105.685 179.437 105.538 179.335 105.412 179.209C105.286 179.083 105.184 178.936 105.106 178.768C105.034 178.594 104.998 178.411 104.998 178.219C104.998 178.021 105.034 177.838 105.106 177.67C105.184 177.496 105.286 177.346 105.412 177.22C105.538 177.088 105.685 176.986 105.853 176.914C106.021 176.836 106.201 176.797 106.393 176.797C106.591 176.797 106.777 176.836 106.951 176.914C107.131 176.986 107.284 177.088 107.41 177.22C107.542 177.346 107.647 177.496 107.725 177.67C107.803 177.838 107.842 178.021 107.842 178.219ZM113.81 180.802C114.494 180.802 115.115 180.913 115.673 181.135C116.237 181.357 116.717 181.672 117.113 182.08C117.515 182.488 117.824 182.986 118.04 183.574C118.256 184.162 118.364 184.819 118.364 185.545C118.364 186.277 118.256 186.937 118.04 187.525C117.824 188.113 117.515 188.614 117.113 189.028C116.717 189.442 116.237 189.76 115.673 189.982C115.115 190.204 114.494 190.315 113.81 190.315C113.12 190.315 112.493 190.204 111.929 189.982C111.365 189.76 110.882 189.442 110.48 189.028C110.084 188.614 109.775 188.113 109.553 187.525C109.337 186.937 109.229 186.277 109.229 185.545C109.229 184.819 109.337 184.162 109.553 183.574C109.775 182.986 110.084 182.488 110.48 182.08C110.882 181.672 111.365 181.357 111.929 181.135C112.493 180.913 113.12 180.802 113.81 180.802ZM113.81 188.605C114.578 188.605 115.145 188.347 115.511 187.831C115.883 187.315 116.069 186.559 116.069 185.563C116.069 184.567 115.883 183.808 115.511 183.286C115.145 182.764 114.578 182.503 113.81 182.503C113.03 182.503 112.451 182.767 112.073 183.295C111.701 183.817 111.515 184.573 111.515 185.563C111.515 186.553 111.701 187.309 112.073 187.831C112.451 188.347 113.03 188.605 113.81 188.605ZM122.139 182.08C122.325 181.894 122.52 181.723 122.724 181.567C122.934 181.405 123.153 181.27 123.381 181.162C123.615 181.048 123.864 180.961 124.128 180.901C124.392 180.835 124.68 180.802 124.992 180.802C125.496 180.802 125.943 180.889 126.333 181.063C126.723 181.231 127.047 181.471 127.305 181.783C127.569 182.089 127.767 182.458 127.899 182.89C128.037 183.316 128.106 183.787 128.106 184.303V190.18H125.883V184.303C125.883 183.739 125.754 183.304 125.496 182.998C125.238 182.686 124.845 182.53 124.317 182.53C123.933 182.53 123.573 182.617 123.237 182.791C122.901 182.965 122.583 183.202 122.283 183.502V190.18H120.06V180.946H121.419C121.707 180.946 121.896 181.081 121.986 181.351L122.139 182.08ZM142.528 180.946L137.497 192.718C137.431 192.874 137.344 192.991 137.236 193.069C137.134 193.153 136.975 193.195 136.759 193.195H135.103L136.831 189.487L133.096 180.946H135.049C135.223 180.946 135.358 180.988 135.454 181.072C135.556 181.156 135.631 181.252 135.679 181.36L137.641 186.148C137.707 186.31 137.761 186.472 137.803 186.634C137.851 186.796 137.896 186.961 137.938 187.129C137.992 186.961 138.046 186.796 138.1 186.634C138.154 186.466 138.214 186.301 138.28 186.139L140.134 181.36C140.182 181.24 140.26 181.141 140.368 181.063C140.482 180.985 140.608 180.946 140.746 180.946H142.528ZM149.3 184.501C149.3 184.213 149.258 183.943 149.174 183.691C149.096 183.433 148.976 183.208 148.814 183.016C148.652 182.824 148.445 182.674 148.193 182.566C147.947 182.452 147.659 182.395 147.329 182.395C146.687 182.395 146.18 182.578 145.808 182.944C145.442 183.31 145.208 183.829 145.106 184.501H149.3ZM145.061 185.842C145.097 186.316 145.181 186.727 145.313 187.075C145.445 187.417 145.619 187.702 145.835 187.93C146.051 188.152 146.306 188.32 146.6 188.434C146.9 188.542 147.23 188.596 147.59 188.596C147.95 188.596 148.259 188.554 148.517 188.47C148.781 188.386 149.009 188.293 149.201 188.191C149.399 188.089 149.57 187.996 149.714 187.912C149.864 187.828 150.008 187.786 150.146 187.786C150.332 187.786 150.47 187.855 150.56 187.993L151.199 188.803C150.953 189.091 150.677 189.334 150.371 189.532C150.065 189.724 149.744 189.88 149.408 190C149.078 190.114 148.739 190.195 148.391 190.243C148.049 190.291 147.716 190.315 147.392 190.315C146.75 190.315 146.153 190.21 145.601 190C145.049 189.784 144.569 189.469 144.161 189.055C143.753 188.635 143.432 188.119 143.198 187.507C142.964 186.889 142.847 186.175 142.847 185.365C142.847 184.735 142.949 184.144 143.153 183.592C143.357 183.034 143.648 182.551 144.026 182.143C144.41 181.729 144.875 181.402 145.421 181.162C145.973 180.922 146.594 180.802 147.284 180.802C147.866 180.802 148.403 180.895 148.895 181.081C149.387 181.267 149.81 181.54 150.164 181.9C150.518 182.254 150.794 182.692 150.992 183.214C151.196 183.73 151.298 184.321 151.298 184.987C151.298 185.323 151.262 185.551 151.19 185.671C151.118 185.785 150.98 185.842 150.776 185.842H145.061ZM155.956 190.324C155.152 190.324 154.534 190.099 154.102 189.649C153.676 189.193 153.463 188.566 153.463 187.768V182.611H152.518C152.398 182.611 152.296 182.572 152.212 182.494C152.128 182.416 152.086 182.299 152.086 182.143V181.261L153.571 181.018L154.039 178.498C154.069 178.378 154.126 178.285 154.21 178.219C154.294 178.153 154.402 178.12 154.534 178.12H155.686V181.027H158.152V182.611H155.686V187.615C155.686 187.903 155.755 188.128 155.893 188.29C156.037 188.452 156.232 188.533 156.478 188.533C156.616 188.533 156.73 188.518 156.82 188.488C156.916 188.452 156.997 188.416 157.063 188.38C157.135 188.344 157.198 188.311 157.252 188.281C157.306 188.245 157.36 188.227 157.414 188.227C157.48 188.227 157.534 188.245 157.576 188.281C157.618 188.311 157.663 188.359 157.711 188.425L158.377 189.505C158.053 189.775 157.681 189.979 157.261 190.117C156.841 190.255 156.406 190.324 155.956 190.324ZM159.252 188.956C159.252 188.77 159.285 188.593 159.351 188.425C159.423 188.257 159.519 188.113 159.639 187.993C159.759 187.873 159.903 187.777 160.071 187.705C160.239 187.633 160.419 187.597 160.611 187.597C160.803 187.597 160.98 187.633 161.142 187.705C161.31 187.777 161.454 187.873 161.574 187.993C161.7 188.113 161.799 188.257 161.871 188.425C161.943 188.593 161.979 188.77 161.979 188.956C161.979 189.148 161.943 189.328 161.871 189.496C161.799 189.658 161.7 189.799 161.574 189.919C161.454 190.039 161.31 190.132 161.142 190.198C160.98 190.27 160.803 190.306 160.611 190.306C160.419 190.306 160.239 190.27 160.071 190.198C159.903 190.132 159.759 190.039 159.639 189.919C159.519 189.799 159.423 189.658 159.351 189.496C159.285 189.328 159.252 189.148 159.252 188.956Z" fill="#E76F51" fill-opacity="0.75"/>
<path d="M106.5 80.9317C106.5 93.1308 96.8258 102.932 85 102.932C73.1742 102.932 63.5 93.1308 63.5 80.9317C63.5 68.7326 73.1742 58.9317 85 58.9317C96.8258 58.9317 106.5 68.7326 106.5 80.9317Z" stroke="#E76F51" stroke-opacity="0.75" stroke-width="5"/>
</svg>
