<svg width="1440" height="900" viewBox="0 0 1440 900" fill="none" xmlns="http://www.w3.org/2000/svg">
<g clip-path="url(#clip0_1019_563)">
<rect width="1440" height="900" rx="10" fill="#1C1E31"/>
<rect width="1440" height="900" fill="#1C1E31"/>
<path d="M1548.78 854.958C1603.81 649.573 1481.71 438.406 1276.06 383.302C1070.41 328.197 859.086 450.024 804.054 655.408" stroke="#2D62E6" stroke-opacity="0.2"/>
<path d="M1641.51 879.804C1710.27 623.207 1557.77 359.399 1300.91 290.573C1044.05 221.746 780.08 373.964 711.325 630.562" stroke="#2D62E6" stroke-opacity="0.2"/>
<path d="M1734.24 904.651C1816.86 596.308 1634.09 279.427 1326.02 196.878C1017.94 114.329 701.216 297.372 618.596 605.715" stroke="#2D62E6" stroke-opacity="0.2"/>
<path d="M1827.93 929.756C1924.28 570.2 1710.68 200.563 1350.86 104.149C991.039 7.73469 621.244 221.053 524.901 580.609" stroke="#2D62E6" stroke-opacity="0.2"/>
<path d="M1920.66 954.603C2030.73 543.834 1786.74 121.557 1375.71 11.4201C964.673 -98.7166 542.237 144.994 432.172 555.763" stroke="#2D62E6" stroke-opacity="0.2"/>
<path d="M432.172 555.763C377.14 761.147 166.03 883.032 -39.3547 827.999" stroke="#2D62E6" stroke-opacity="0.2"/>
<path d="M524.901 580.61C456.003 837.74 192.137 990.449 -64.4601 921.694" stroke="#2D62E6" stroke-opacity="0.2"/>
<path d="M618.596 605.715C535.975 914.058 219.037 1097.04 -89.3068 1014.42" stroke="#2D62E6" stroke-opacity="0.2"/>
<path d="M711.325 630.562C614.982 990.118 245.403 1203.49 -114.153 1107.15" stroke="#2D62E6" stroke-opacity="0.2"/>
<path d="M804.054 655.408C693.988 1066.18 271.769 1309.95 -139 1199.88" stroke="#2D62E6" stroke-opacity="0.2"/>
<rect x="44.46" y="-141" width="712" height="712" rx="100" transform="rotate(45 44.46 -141)" fill="#131522"/>
<rect x="1398.46" y="385" width="712" height="712" rx="100" transform="rotate(45 1398.46 385)" fill="#131522" fill-opacity="0.46"/>
</g>
<defs>
<clipPath id="clip0_1019_563">
<rect width="1440" height="900" rx="10" fill="white"/>
</clipPath>
</defs>
</svg>
