<svg width="48" height="48" viewBox="0 0 48 48" fill="white" xmlns="http://www.w3.org/2000/svg">
<g clip-path="url(#clip0_1042_571)">
<path d="M24 15C24.7956 15 25.5587 15.3161 26.1213 15.8787C26.6839 16.4413 27 17.2044 27 18V21H21V18C21 17.2044 21.3161 16.4413 21.8787 15.8787C22.4413 15.3161 23.2044 15 24 15V15ZM30 21.228V18C30 16.4087 29.3679 14.8826 28.2426 13.7574C27.1174 12.6321 25.5913 12 24 12C22.4087 12 20.8826 12.6321 19.7574 13.7574C18.6321 14.8826 18 16.4087 18 18V21.228C16.38 21.726 15 23.019 15 24.9V32.1C15 34.548 17.343 36 19.5 36H28.5C30.657 36 33 34.548 33 32.1V24.9C33 23.019 31.62 21.726 30 21.228Z" />
<path d="M12 0C10.4087 0 8.88258 0.632141 7.75736 1.75736C6.63214 2.88258 6 4.4087 6 6V42C6 43.5913 6.63214 45.1174 7.75736 46.2426C8.88258 47.3679 10.4087 48 12 48H36C37.5913 48 39.1174 47.3679 40.2426 46.2426C41.3679 45.1174 42 43.5913 42 42V6C42 4.4087 41.3679 2.88258 40.2426 1.75736C39.1174 0.632141 37.5913 0 36 0L12 0ZM12 3H36C36.7956 3 37.5587 3.31607 38.1213 3.87868C38.6839 4.44129 39 5.20435 39 6V42C39 42.7956 38.6839 43.5587 38.1213 44.1213C37.5587 44.6839 36.7956 45 36 45H12C11.2044 45 10.4413 44.6839 9.87868 44.1213C9.31607 43.5587 9 42.7956 9 42V6C9 5.20435 9.31607 4.44129 9.87868 3.87868C10.4413 3.31607 11.2044 3 12 3V3Z" />
</g>
<defs>
<clipPath id="clip0_1042_571">
<rect width="48" height="48" />
</clipPath>
</defs>
</svg>
