<svg width="48" height="48" viewBox="0 0 48 48" fill="white" xmlns="http://www.w3.org/2000/svg">
<path d="M18 1.5C18 1.10218 18.158 0.720644 18.4393 0.43934C18.7206 0.158035 19.1022 0 19.5 0L31.5 0C31.8978 0 32.2794 0.158035 32.5607 0.43934C32.842 0.720644 33 1.10218 33 1.5V13.5H18V1.5ZM21 3V6H24V3H21ZM27 3V6H30V3H27ZM18 15C17.2044 15 16.4413 15.3161 15.8787 15.8787C15.3161 16.4413 15 17.2044 15 18V43.5C15 44.6935 15.4741 45.8381 16.318 46.682C17.1619 47.5259 18.3065 48 19.5 48H31.5C32.6935 48 33.8381 47.5259 34.682 46.682C35.5259 45.8381 36 44.6935 36 43.5V18C36 17.2044 35.6839 16.4413 35.1213 15.8787C34.5587 15.3161 33.7956 15 33 15H18ZM18 18H33V43.5C33 43.8978 32.842 44.2794 32.5607 44.5607C32.2794 44.842 31.8978 45 31.5 45H19.5C19.1022 45 18.7206 44.842 18.4393 44.5607C18.158 44.2794 18 43.8978 18 43.5V18Z" />
</svg>
