<svg width="242" height="52" viewBox="0 0 242 52" fill="none" xmlns="http://www.w3.org/2000/svg">
<path d="M18.992 31.352C17.6267 31.352 16.432 31.1173 15.408 30.648C14.384 30.1787 13.5093 29.7093 12.784 29.24C11.888 28.6853 11.1413 28.3013 10.544 28.088C9.98933 27.8747 9.456 27.768 8.944 27.768C7.36533 27.768 5.95733 28.5147 4.72 30.008C4.336 30.5627 3.84533 30.9253 3.248 31.096C2.65067 31.2667 2.07467 31.2027 1.52 30.904C0.965334 30.6053 0.624 30.1573 0.496 29.56C0.410667 28.92 0.56 28.3227 0.944 27.768C3.12 24.9093 5.82933 23.48 9.072 23.48C10.3947 23.48 11.5467 23.7147 12.528 24.184C13.5093 24.6533 14.3413 25.1013 15.024 25.528C15.8347 26.04 16.5173 26.424 17.072 26.68C17.6267 26.936 18.2453 27.064 18.928 27.064C20.2507 27.064 21.296 26.6373 22.064 25.784C22.5333 25.3147 23.0027 24.9947 23.472 24.824C23.984 24.6107 24.5173 24.6747 25.072 25.016C25.6693 25.3147 26.032 25.784 26.16 26.424C26.288 27.064 26.1387 27.6613 25.712 28.216C24.048 30.3067 21.808 31.352 18.992 31.352ZM54.944 51.64C51.488 51.64 48.2453 50.9787 45.216 49.656C42.2293 48.3333 39.584 46.4987 37.28 44.152C35.0187 41.7627 33.248 39.032 31.968 35.96C30.688 32.8453 30.048 29.5173 30.048 25.976C30.048 22.4773 30.6667 19.192 31.904 16.12C33.184 13.0053 34.9547 10.2747 37.216 7.928C39.52 5.58133 42.1653 3.74666 45.152 2.424C48.1813 1.05866 51.4453 0.375999 54.944 0.375999C58.016 0.375999 60.8107 0.823999 63.328 1.72C65.8453 2.616 68.2773 4.04533 70.624 6.008C71.1787 6.43467 71.4133 6.98933 71.328 7.672C71.2427 8.312 70.9227 8.76 70.368 9.016C70.24 9.528 69.8347 9.848 69.152 9.976C68.512 10.104 67.872 9.912 67.232 9.4C65.568 7.94933 63.7547 6.88266 61.792 6.2C59.8293 5.47467 57.5467 5.112 54.944 5.112C52.1707 5.112 49.568 5.66667 47.136 6.776C44.7467 7.88533 42.6347 9.4 40.8 11.32C38.9653 13.24 37.5147 15.4587 36.448 17.976C35.424 20.4933 34.912 23.16 34.912 25.976C34.912 28.8773 35.424 31.5867 36.448 34.104C37.5147 36.6213 38.9653 38.84 40.8 40.76C42.6347 42.68 44.7467 44.1947 47.136 45.304C49.568 46.3707 52.1707 46.904 54.944 46.904C59.552 46.904 63.7547 45.4107 67.552 42.424C68.32 41.8267 69.1307 41.7413 69.984 42.168C70.88 42.5947 71.328 43.32 71.328 44.344C71.328 45.0267 71.0933 45.624 70.624 46.136C68.448 48.1413 66.016 49.5707 63.328 50.424C60.64 51.2347 57.8453 51.64 54.944 51.64ZM92.607 51C90.047 51 87.935 49.976 86.271 47.928C84.607 45.8373 83.775 43.1707 83.775 39.928V3.448C83.775 2.72266 83.9883 2.14666 84.415 1.72C84.8843 1.25067 85.4817 1.016 86.207 1.016C86.9323 1.016 87.5083 1.25067 87.935 1.72C88.4043 2.14666 88.639 2.72266 88.639 3.448V39.928C88.639 41.7627 89.0017 43.256 89.727 44.408C90.495 45.56 91.455 46.136 92.607 46.136H94.207C94.847 46.136 95.359 46.3707 95.743 46.84C96.127 47.2667 96.319 47.8427 96.319 48.568C96.319 49.2933 96.0417 49.8907 95.487 50.36C94.975 50.7867 94.2923 51 93.439 51H92.607ZM120.956 51.32C117.543 51.32 114.492 50.552 111.804 49.016C109.116 47.48 107.004 45.368 105.468 42.68C103.932 39.992 103.164 36.9413 103.164 33.528C103.164 30.072 103.932 27 105.468 24.312C107.004 21.624 109.116 19.512 111.804 17.976C114.492 16.44 117.543 15.672 120.956 15.672C124.369 15.672 127.399 16.44 130.044 17.976C132.732 19.512 134.844 21.624 136.38 24.312C137.916 27 138.705 30.072 138.748 33.528C138.748 36.9413 137.959 39.992 136.38 42.68C134.844 45.368 132.732 47.48 130.044 49.016C127.399 50.552 124.369 51.32 120.956 51.32ZM120.956 46.84C123.431 46.84 125.649 46.264 127.612 45.112C129.575 43.96 131.111 42.3813 132.22 40.376C133.329 38.3707 133.884 36.088 133.884 33.528C133.884 30.968 133.329 28.6853 132.22 26.68C131.111 24.632 129.575 23.032 127.612 21.88C125.649 20.728 123.431 20.152 120.956 20.152C118.481 20.152 116.263 20.728 114.3 21.88C112.337 23.032 110.78 24.632 109.628 26.68C108.519 28.6853 107.964 30.968 107.964 33.528C107.964 36.088 108.519 38.3707 109.628 40.376C110.78 42.3813 112.337 43.96 114.3 45.112C116.263 46.264 118.481 46.84 120.956 46.84ZM154.605 51C152.983 51 152.173 50.1893 152.173 48.568V18.424C152.173 16.8027 152.983 15.992 154.605 15.992C156.226 15.992 157.037 16.8027 157.037 18.424V21.176C158.317 19.4693 159.895 18.1253 161.773 17.144C163.65 16.12 165.719 15.608 167.981 15.608C169.943 15.608 171.458 15.8853 172.525 16.44C173.591 16.9947 173.997 17.8053 173.741 18.872C173.527 19.8533 173.015 20.3653 172.205 20.408C171.437 20.408 170.519 20.3653 169.453 20.28C167.063 20.0667 164.93 20.3227 163.053 21.048C161.218 21.7307 159.746 22.7973 158.637 24.248C157.57 25.6987 157.037 27.4267 157.037 29.432V48.568C157.037 50.1893 156.226 51 154.605 51ZM188.845 51C188.077 51 187.458 50.7867 186.989 50.36C186.562 49.8907 186.349 49.272 186.349 48.504V18.488C186.349 17.72 186.562 17.1227 186.989 16.696C187.458 16.2267 188.077 15.992 188.845 15.992C189.57 15.992 190.146 16.2267 190.573 16.696C191.042 17.1227 191.277 17.72 191.277 18.488V48.504C191.277 49.272 191.042 49.8907 190.573 50.36C190.146 50.7867 189.57 51 188.845 51ZM188.781 9.336C187.842 9.336 187.032 8.99466 186.349 8.312C185.666 7.62933 185.325 6.79733 185.325 5.816C185.325 4.74933 185.666 3.91733 186.349 3.32C187.074 2.68 187.906 2.36 188.845 2.36C189.741 2.36 190.53 2.68 191.213 3.32C191.938 3.91733 192.301 4.74933 192.301 5.816C192.301 6.79733 191.96 7.62933 191.277 8.312C190.594 8.99466 189.762 9.336 188.781 9.336ZM223.601 51.32C220.188 51.32 217.137 50.552 214.449 49.016C211.761 47.48 209.649 45.368 208.113 42.68C206.577 39.992 205.809 36.9413 205.809 33.528C205.809 30.072 206.577 27 208.113 24.312C209.649 21.624 211.761 19.512 214.449 17.976C217.137 16.44 220.188 15.672 223.601 15.672C227.014 15.672 230.044 16.44 232.689 17.976C235.377 19.512 237.489 21.624 239.025 24.312C240.561 27 241.35 30.072 241.393 33.528C241.393 36.9413 240.604 39.992 239.025 42.68C237.489 45.368 235.377 47.48 232.689 49.016C230.044 50.552 227.014 51.32 223.601 51.32ZM223.601 46.84C226.076 46.84 228.294 46.264 230.257 45.112C232.22 43.96 233.756 42.3813 234.865 40.376C235.974 38.3707 236.529 36.088 236.529 33.528C236.529 30.968 235.974 28.6853 234.865 26.68C233.756 24.632 232.22 23.032 230.257 21.88C228.294 20.728 226.076 20.152 223.601 20.152C221.126 20.152 218.908 20.728 216.945 21.88C214.982 23.032 213.425 24.632 212.273 26.68C211.164 28.6853 210.609 30.968 210.609 33.528C210.609 36.088 211.164 38.3707 212.273 40.376C213.425 42.3813 214.982 43.96 216.945 45.112C218.908 46.264 221.126 46.84 223.601 46.84Z" fill="url(#paint0_linear_1013_563)"/>
<path d="M18.992 31.352C17.6267 31.352 16.432 31.1173 15.408 30.648C14.384 30.1787 13.5093 29.7093 12.784 29.24C11.888 28.6853 11.1413 28.3013 10.544 28.088C9.98933 27.8747 9.456 27.768 8.944 27.768C7.36533 27.768 5.95733 28.5147 4.72 30.008C4.336 30.5627 3.84533 30.9253 3.248 31.096C2.65067 31.2667 2.07467 31.2027 1.52 30.904C0.965334 30.6053 0.624 30.1573 0.496 29.56C0.410667 28.92 0.56 28.3227 0.944 27.768C3.12 24.9093 5.82933 23.48 9.072 23.48C10.3947 23.48 11.5467 23.7147 12.528 24.184C13.5093 24.6533 14.3413 25.1013 15.024 25.528C15.8347 26.04 16.5173 26.424 17.072 26.68C17.6267 26.936 18.2453 27.064 18.928 27.064C20.2507 27.064 21.296 26.6373 22.064 25.784C22.5333 25.3147 23.0027 24.9947 23.472 24.824C23.984 24.6107 24.5173 24.6747 25.072 25.016C25.6693 25.3147 26.032 25.784 26.16 26.424C26.288 27.064 26.1387 27.6613 25.712 28.216C24.048 30.3067 21.808 31.352 18.992 31.352ZM54.944 51.64C51.488 51.64 48.2453 50.9787 45.216 49.656C42.2293 48.3333 39.584 46.4987 37.28 44.152C35.0187 41.7627 33.248 39.032 31.968 35.96C30.688 32.8453 30.048 29.5173 30.048 25.976C30.048 22.4773 30.6667 19.192 31.904 16.12C33.184 13.0053 34.9547 10.2747 37.216 7.928C39.52 5.58133 42.1653 3.74666 45.152 2.424C48.1813 1.05866 51.4453 0.375999 54.944 0.375999C58.016 0.375999 60.8107 0.823999 63.328 1.72C65.8453 2.616 68.2773 4.04533 70.624 6.008C71.1787 6.43467 71.4133 6.98933 71.328 7.672C71.2427 8.312 70.9227 8.76 70.368 9.016C70.24 9.528 69.8347 9.848 69.152 9.976C68.512 10.104 67.872 9.912 67.232 9.4C65.568 7.94933 63.7547 6.88266 61.792 6.2C59.8293 5.47467 57.5467 5.112 54.944 5.112C52.1707 5.112 49.568 5.66667 47.136 6.776C44.7467 7.88533 42.6347 9.4 40.8 11.32C38.9653 13.24 37.5147 15.4587 36.448 17.976C35.424 20.4933 34.912 23.16 34.912 25.976C34.912 28.8773 35.424 31.5867 36.448 34.104C37.5147 36.6213 38.9653 38.84 40.8 40.76C42.6347 42.68 44.7467 44.1947 47.136 45.304C49.568 46.3707 52.1707 46.904 54.944 46.904C59.552 46.904 63.7547 45.4107 67.552 42.424C68.32 41.8267 69.1307 41.7413 69.984 42.168C70.88 42.5947 71.328 43.32 71.328 44.344C71.328 45.0267 71.0933 45.624 70.624 46.136C68.448 48.1413 66.016 49.5707 63.328 50.424C60.64 51.2347 57.8453 51.64 54.944 51.64ZM92.607 51C90.047 51 87.935 49.976 86.271 47.928C84.607 45.8373 83.775 43.1707 83.775 39.928V3.448C83.775 2.72266 83.9883 2.14666 84.415 1.72C84.8843 1.25067 85.4817 1.016 86.207 1.016C86.9323 1.016 87.5083 1.25067 87.935 1.72C88.4043 2.14666 88.639 2.72266 88.639 3.448V39.928C88.639 41.7627 89.0017 43.256 89.727 44.408C90.495 45.56 91.455 46.136 92.607 46.136H94.207C94.847 46.136 95.359 46.3707 95.743 46.84C96.127 47.2667 96.319 47.8427 96.319 48.568C96.319 49.2933 96.0417 49.8907 95.487 50.36C94.975 50.7867 94.2923 51 93.439 51H92.607ZM120.956 51.32C117.543 51.32 114.492 50.552 111.804 49.016C109.116 47.48 107.004 45.368 105.468 42.68C103.932 39.992 103.164 36.9413 103.164 33.528C103.164 30.072 103.932 27 105.468 24.312C107.004 21.624 109.116 19.512 111.804 17.976C114.492 16.44 117.543 15.672 120.956 15.672C124.369 15.672 127.399 16.44 130.044 17.976C132.732 19.512 134.844 21.624 136.38 24.312C137.916 27 138.705 30.072 138.748 33.528C138.748 36.9413 137.959 39.992 136.38 42.68C134.844 45.368 132.732 47.48 130.044 49.016C127.399 50.552 124.369 51.32 120.956 51.32ZM120.956 46.84C123.431 46.84 125.649 46.264 127.612 45.112C129.575 43.96 131.111 42.3813 132.22 40.376C133.329 38.3707 133.884 36.088 133.884 33.528C133.884 30.968 133.329 28.6853 132.22 26.68C131.111 24.632 129.575 23.032 127.612 21.88C125.649 20.728 123.431 20.152 120.956 20.152C118.481 20.152 116.263 20.728 114.3 21.88C112.337 23.032 110.78 24.632 109.628 26.68C108.519 28.6853 107.964 30.968 107.964 33.528C107.964 36.088 108.519 38.3707 109.628 40.376C110.78 42.3813 112.337 43.96 114.3 45.112C116.263 46.264 118.481 46.84 120.956 46.84ZM154.605 51C152.983 51 152.173 50.1893 152.173 48.568V18.424C152.173 16.8027 152.983 15.992 154.605 15.992C156.226 15.992 157.037 16.8027 157.037 18.424V21.176C158.317 19.4693 159.895 18.1253 161.773 17.144C163.65 16.12 165.719 15.608 167.981 15.608C169.943 15.608 171.458 15.8853 172.525 16.44C173.591 16.9947 173.997 17.8053 173.741 18.872C173.527 19.8533 173.015 20.3653 172.205 20.408C171.437 20.408 170.519 20.3653 169.453 20.28C167.063 20.0667 164.93 20.3227 163.053 21.048C161.218 21.7307 159.746 22.7973 158.637 24.248C157.57 25.6987 157.037 27.4267 157.037 29.432V48.568C157.037 50.1893 156.226 51 154.605 51ZM188.845 51C188.077 51 187.458 50.7867 186.989 50.36C186.562 49.8907 186.349 49.272 186.349 48.504V18.488C186.349 17.72 186.562 17.1227 186.989 16.696C187.458 16.2267 188.077 15.992 188.845 15.992C189.57 15.992 190.146 16.2267 190.573 16.696C191.042 17.1227 191.277 17.72 191.277 18.488V48.504C191.277 49.272 191.042 49.8907 190.573 50.36C190.146 50.7867 189.57 51 188.845 51ZM188.781 9.336C187.842 9.336 187.032 8.99466 186.349 8.312C185.666 7.62933 185.325 6.79733 185.325 5.816C185.325 4.74933 185.666 3.91733 186.349 3.32C187.074 2.68 187.906 2.36 188.845 2.36C189.741 2.36 190.53 2.68 191.213 3.32C191.938 3.91733 192.301 4.74933 192.301 5.816C192.301 6.79733 191.96 7.62933 191.277 8.312C190.594 8.99466 189.762 9.336 188.781 9.336ZM223.601 51.32C220.188 51.32 217.137 50.552 214.449 49.016C211.761 47.48 209.649 45.368 208.113 42.68C206.577 39.992 205.809 36.9413 205.809 33.528C205.809 30.072 206.577 27 208.113 24.312C209.649 21.624 211.761 19.512 214.449 17.976C217.137 16.44 220.188 15.672 223.601 15.672C227.014 15.672 230.044 16.44 232.689 17.976C235.377 19.512 237.489 21.624 239.025 24.312C240.561 27 241.35 30.072 241.393 33.528C241.393 36.9413 240.604 39.992 239.025 42.68C237.489 45.368 235.377 47.48 232.689 49.016C230.044 50.552 227.014 51.32 223.601 51.32ZM223.601 46.84C226.076 46.84 228.294 46.264 230.257 45.112C232.22 43.96 233.756 42.3813 234.865 40.376C235.974 38.3707 236.529 36.088 236.529 33.528C236.529 30.968 235.974 28.6853 234.865 26.68C233.756 24.632 232.22 23.032 230.257 21.88C228.294 20.728 226.076 20.152 223.601 20.152C221.126 20.152 218.908 20.728 216.945 21.88C214.982 23.032 213.425 24.632 212.273 26.68C211.164 28.6853 210.609 30.968 210.609 33.528C210.609 36.088 211.164 38.3707 212.273 40.376C213.425 42.3813 214.982 43.96 216.945 45.112C218.908 46.264 221.126 46.84 223.601 46.84Z" fill="white"/>
<defs>
<linearGradient id="paint0_linear_1013_563" x1="122" y1="4" x2="122" y2="57" gradientUnits="userSpaceOnUse">
<stop offset="0.213542" stop-color="#264653"/>
<stop offset="1" stop-color="#264653" stop-opacity="0.36"/>
</linearGradient>
</defs>
</svg>
