<svg width="270" height="117" viewBox="0 0 270 117" fill="none" xmlns="http://www.w3.org/2000/svg">
<path d="M31.992 59.352C30.6267 59.352 29.432 59.1173 28.408 58.648C27.384 58.1787 26.5093 57.7093 25.784 57.24C24.888 56.6853 24.1413 56.3013 23.544 56.088C22.9893 55.8747 22.456 55.768 21.944 55.768C20.3653 55.768 18.9573 56.5147 17.72 58.008C17.336 58.5627 16.8453 58.9253 16.248 59.096C15.6507 59.2667 15.0747 59.2027 14.52 58.904C13.9653 58.6053 13.624 58.1573 13.496 57.56C13.4107 56.92 13.56 56.3227 13.944 55.768C16.12 52.9093 18.8293 51.48 22.072 51.48C23.3947 51.48 24.5467 51.7147 25.528 52.184C26.5093 52.6533 27.3413 53.1013 28.024 53.528C28.8347 54.04 29.5173 54.424 30.072 54.68C30.6267 54.936 31.2453 55.064 31.928 55.064C33.2507 55.064 34.296 54.6373 35.064 53.784C35.5333 53.3147 36.0027 52.9947 36.472 52.824C36.984 52.6107 37.5173 52.6747 38.072 53.016C38.6693 53.3147 39.032 53.784 39.16 54.424C39.288 55.064 39.1387 55.6613 38.712 56.216C37.048 58.3067 34.808 59.352 31.992 59.352ZM67.944 79.64C64.488 79.64 61.2453 78.9787 58.216 77.656C55.2293 76.3333 52.584 74.4987 50.28 72.152C48.0187 69.7627 46.248 67.032 44.968 63.96C43.688 60.8453 43.048 57.5173 43.048 53.976C43.048 50.4773 43.6667 47.192 44.904 44.12C46.184 41.0053 47.9547 38.2747 50.216 35.928C52.52 33.5813 55.1653 31.7467 58.152 30.424C61.1813 29.0587 64.4453 28.376 67.944 28.376C71.016 28.376 73.8107 28.824 76.328 29.72C78.8453 30.616 81.2773 32.0453 83.624 34.008C84.1787 34.4347 84.4133 34.9893 84.328 35.672C84.2427 36.312 83.9227 36.76 83.368 37.016C83.24 37.528 82.8347 37.848 82.152 37.976C81.512 38.104 80.872 37.912 80.232 37.4C78.568 35.9493 76.7547 34.8827 74.792 34.2C72.8293 33.4747 70.5467 33.112 67.944 33.112C65.1707 33.112 62.568 33.6667 60.136 34.776C57.7467 35.8853 55.6347 37.4 53.8 39.32C51.9653 41.24 50.5147 43.4587 49.448 45.976C48.424 48.4933 47.912 51.16 47.912 53.976C47.912 56.8773 48.424 59.5867 49.448 62.104C50.5147 64.6213 51.9653 66.84 53.8 68.76C55.6347 70.68 57.7467 72.1947 60.136 73.304C62.568 74.3707 65.1707 74.904 67.944 74.904C72.552 74.904 76.7547 73.4107 80.552 70.424C81.32 69.8267 82.1307 69.7413 82.984 70.168C83.88 70.5947 84.328 71.32 84.328 72.344C84.328 73.0267 84.0933 73.624 83.624 74.136C81.448 76.1413 79.016 77.5707 76.328 78.424C73.64 79.2347 70.8453 79.64 67.944 79.64ZM105.607 79C103.047 79 100.935 77.976 99.271 75.928C97.607 73.8373 96.775 71.1707 96.775 67.928V31.448C96.775 30.7227 96.9883 30.1467 97.415 29.72C97.8843 29.2507 98.4817 29.016 99.207 29.016C99.9323 29.016 100.508 29.2507 100.935 29.72C101.404 30.1467 101.639 30.7227 101.639 31.448V67.928C101.639 69.7627 102.002 71.256 102.727 72.408C103.495 73.56 104.455 74.136 105.607 74.136H107.207C107.847 74.136 108.359 74.3707 108.743 74.84C109.127 75.2667 109.319 75.8427 109.319 76.568C109.319 77.2933 109.042 77.8907 108.487 78.36C107.975 78.7867 107.292 79 106.439 79H105.607ZM133.956 79.32C130.543 79.32 127.492 78.552 124.804 77.016C122.116 75.48 120.004 73.368 118.468 70.68C116.932 67.992 116.164 64.9413 116.164 61.528C116.164 58.072 116.932 55 118.468 52.312C120.004 49.624 122.116 47.512 124.804 45.976C127.492 44.44 130.543 43.672 133.956 43.672C137.369 43.672 140.399 44.44 143.044 45.976C145.732 47.512 147.844 49.624 149.38 52.312C150.916 55 151.705 58.072 151.748 61.528C151.748 64.9413 150.959 67.992 149.38 70.68C147.844 73.368 145.732 75.48 143.044 77.016C140.399 78.552 137.369 79.32 133.956 79.32ZM133.956 74.84C136.431 74.84 138.649 74.264 140.612 73.112C142.575 71.96 144.111 70.3813 145.22 68.376C146.329 66.3707 146.884 64.088 146.884 61.528C146.884 58.968 146.329 56.6853 145.22 54.68C144.111 52.632 142.575 51.032 140.612 49.88C138.649 48.728 136.431 48.152 133.956 48.152C131.481 48.152 129.263 48.728 127.3 49.88C125.337 51.032 123.78 52.632 122.628 54.68C121.519 56.6853 120.964 58.968 120.964 61.528C120.964 64.088 121.519 66.3707 122.628 68.376C123.78 70.3813 125.337 71.96 127.3 73.112C129.263 74.264 131.481 74.84 133.956 74.84ZM167.605 79C165.983 79 165.173 78.1893 165.173 76.568V46.424C165.173 44.8027 165.983 43.992 167.605 43.992C169.226 43.992 170.037 44.8027 170.037 46.424V49.176C171.317 47.4693 172.895 46.1253 174.773 45.144C176.65 44.12 178.719 43.608 180.981 43.608C182.943 43.608 184.458 43.8853 185.525 44.44C186.591 44.9947 186.997 45.8053 186.741 46.872C186.527 47.8533 186.015 48.3653 185.205 48.408C184.437 48.408 183.519 48.3653 182.453 48.28C180.063 48.0667 177.93 48.3227 176.053 49.048C174.218 49.7307 172.746 50.7973 171.637 52.248C170.57 53.6987 170.037 55.4267 170.037 57.432V76.568C170.037 78.1893 169.226 79 167.605 79ZM201.845 79C201.077 79 200.458 78.7867 199.989 78.36C199.562 77.8907 199.349 77.272 199.349 76.504V46.488C199.349 45.72 199.562 45.1227 199.989 44.696C200.458 44.2267 201.077 43.992 201.845 43.992C202.57 43.992 203.146 44.2267 203.573 44.696C204.042 45.1227 204.277 45.72 204.277 46.488V76.504C204.277 77.272 204.042 77.8907 203.573 78.36C203.146 78.7867 202.57 79 201.845 79ZM201.781 37.336C200.842 37.336 200.032 36.9947 199.349 36.312C198.666 35.6293 198.325 34.7973 198.325 33.816C198.325 32.7493 198.666 31.9173 199.349 31.32C200.074 30.68 200.906 30.36 201.845 30.36C202.741 30.36 203.53 30.68 204.213 31.32C204.938 31.9173 205.301 32.7493 205.301 33.816C205.301 34.7973 204.96 35.6293 204.277 36.312C203.594 36.9947 202.762 37.336 201.781 37.336ZM236.601 79.32C233.188 79.32 230.137 78.552 227.449 77.016C224.761 75.48 222.649 73.368 221.113 70.68C219.577 67.992 218.809 64.9413 218.809 61.528C218.809 58.072 219.577 55 221.113 52.312C222.649 49.624 224.761 47.512 227.449 45.976C230.137 44.44 233.188 43.672 236.601 43.672C240.014 43.672 243.044 44.44 245.689 45.976C248.377 47.512 250.489 49.624 252.025 52.312C253.561 55 254.35 58.072 254.393 61.528C254.393 64.9413 253.604 67.992 252.025 70.68C250.489 73.368 248.377 75.48 245.689 77.016C243.044 78.552 240.014 79.32 236.601 79.32ZM236.601 74.84C239.076 74.84 241.294 74.264 243.257 73.112C245.22 71.96 246.756 70.3813 247.865 68.376C248.974 66.3707 249.529 64.088 249.529 61.528C249.529 58.968 248.974 56.6853 247.865 54.68C246.756 52.632 245.22 51.032 243.257 49.88C241.294 48.728 239.076 48.152 236.601 48.152C234.126 48.152 231.908 48.728 229.945 49.88C227.982 51.032 226.425 52.632 225.273 54.68C224.164 56.6853 223.609 58.968 223.609 61.528C223.609 64.088 224.164 66.3707 225.273 68.376C226.425 70.3813 227.982 71.96 229.945 73.112C231.908 74.264 234.126 74.84 236.601 74.84Z" fill="url(#paint0_linear)"/>
<path d="M31.992 59.352C30.6267 59.352 29.432 59.1173 28.408 58.648C27.384 58.1787 26.5093 57.7093 25.784 57.24C24.888 56.6853 24.1413 56.3013 23.544 56.088C22.9893 55.8747 22.456 55.768 21.944 55.768C20.3653 55.768 18.9573 56.5147 17.72 58.008C17.336 58.5627 16.8453 58.9253 16.248 59.096C15.6507 59.2667 15.0747 59.2027 14.52 58.904C13.9653 58.6053 13.624 58.1573 13.496 57.56C13.4107 56.92 13.56 56.3227 13.944 55.768C16.12 52.9093 18.8293 51.48 22.072 51.48C23.3947 51.48 24.5467 51.7147 25.528 52.184C26.5093 52.6533 27.3413 53.1013 28.024 53.528C28.8347 54.04 29.5173 54.424 30.072 54.68C30.6267 54.936 31.2453 55.064 31.928 55.064C33.2507 55.064 34.296 54.6373 35.064 53.784C35.5333 53.3147 36.0027 52.9947 36.472 52.824C36.984 52.6107 37.5173 52.6747 38.072 53.016C38.6693 53.3147 39.032 53.784 39.16 54.424C39.288 55.064 39.1387 55.6613 38.712 56.216C37.048 58.3067 34.808 59.352 31.992 59.352ZM67.944 79.64C64.488 79.64 61.2453 78.9787 58.216 77.656C55.2293 76.3333 52.584 74.4987 50.28 72.152C48.0187 69.7627 46.248 67.032 44.968 63.96C43.688 60.8453 43.048 57.5173 43.048 53.976C43.048 50.4773 43.6667 47.192 44.904 44.12C46.184 41.0053 47.9547 38.2747 50.216 35.928C52.52 33.5813 55.1653 31.7467 58.152 30.424C61.1813 29.0587 64.4453 28.376 67.944 28.376C71.016 28.376 73.8107 28.824 76.328 29.72C78.8453 30.616 81.2773 32.0453 83.624 34.008C84.1787 34.4347 84.4133 34.9893 84.328 35.672C84.2427 36.312 83.9227 36.76 83.368 37.016C83.24 37.528 82.8347 37.848 82.152 37.976C81.512 38.104 80.872 37.912 80.232 37.4C78.568 35.9493 76.7547 34.8827 74.792 34.2C72.8293 33.4747 70.5467 33.112 67.944 33.112C65.1707 33.112 62.568 33.6667 60.136 34.776C57.7467 35.8853 55.6347 37.4 53.8 39.32C51.9653 41.24 50.5147 43.4587 49.448 45.976C48.424 48.4933 47.912 51.16 47.912 53.976C47.912 56.8773 48.424 59.5867 49.448 62.104C50.5147 64.6213 51.9653 66.84 53.8 68.76C55.6347 70.68 57.7467 72.1947 60.136 73.304C62.568 74.3707 65.1707 74.904 67.944 74.904C72.552 74.904 76.7547 73.4107 80.552 70.424C81.32 69.8267 82.1307 69.7413 82.984 70.168C83.88 70.5947 84.328 71.32 84.328 72.344C84.328 73.0267 84.0933 73.624 83.624 74.136C81.448 76.1413 79.016 77.5707 76.328 78.424C73.64 79.2347 70.8453 79.64 67.944 79.64ZM105.607 79C103.047 79 100.935 77.976 99.271 75.928C97.607 73.8373 96.775 71.1707 96.775 67.928V31.448C96.775 30.7227 96.9883 30.1467 97.415 29.72C97.8843 29.2507 98.4817 29.016 99.207 29.016C99.9323 29.016 100.508 29.2507 100.935 29.72C101.404 30.1467 101.639 30.7227 101.639 31.448V67.928C101.639 69.7627 102.002 71.256 102.727 72.408C103.495 73.56 104.455 74.136 105.607 74.136H107.207C107.847 74.136 108.359 74.3707 108.743 74.84C109.127 75.2667 109.319 75.8427 109.319 76.568C109.319 77.2933 109.042 77.8907 108.487 78.36C107.975 78.7867 107.292 79 106.439 79H105.607ZM133.956 79.32C130.543 79.32 127.492 78.552 124.804 77.016C122.116 75.48 120.004 73.368 118.468 70.68C116.932 67.992 116.164 64.9413 116.164 61.528C116.164 58.072 116.932 55 118.468 52.312C120.004 49.624 122.116 47.512 124.804 45.976C127.492 44.44 130.543 43.672 133.956 43.672C137.369 43.672 140.399 44.44 143.044 45.976C145.732 47.512 147.844 49.624 149.38 52.312C150.916 55 151.705 58.072 151.748 61.528C151.748 64.9413 150.959 67.992 149.38 70.68C147.844 73.368 145.732 75.48 143.044 77.016C140.399 78.552 137.369 79.32 133.956 79.32ZM133.956 74.84C136.431 74.84 138.649 74.264 140.612 73.112C142.575 71.96 144.111 70.3813 145.22 68.376C146.329 66.3707 146.884 64.088 146.884 61.528C146.884 58.968 146.329 56.6853 145.22 54.68C144.111 52.632 142.575 51.032 140.612 49.88C138.649 48.728 136.431 48.152 133.956 48.152C131.481 48.152 129.263 48.728 127.3 49.88C125.337 51.032 123.78 52.632 122.628 54.68C121.519 56.6853 120.964 58.968 120.964 61.528C120.964 64.088 121.519 66.3707 122.628 68.376C123.78 70.3813 125.337 71.96 127.3 73.112C129.263 74.264 131.481 74.84 133.956 74.84ZM167.605 79C165.983 79 165.173 78.1893 165.173 76.568V46.424C165.173 44.8027 165.983 43.992 167.605 43.992C169.226 43.992 170.037 44.8027 170.037 46.424V49.176C171.317 47.4693 172.895 46.1253 174.773 45.144C176.65 44.12 178.719 43.608 180.981 43.608C182.943 43.608 184.458 43.8853 185.525 44.44C186.591 44.9947 186.997 45.8053 186.741 46.872C186.527 47.8533 186.015 48.3653 185.205 48.408C184.437 48.408 183.519 48.3653 182.453 48.28C180.063 48.0667 177.93 48.3227 176.053 49.048C174.218 49.7307 172.746 50.7973 171.637 52.248C170.57 53.6987 170.037 55.4267 170.037 57.432V76.568C170.037 78.1893 169.226 79 167.605 79ZM201.845 79C201.077 79 200.458 78.7867 199.989 78.36C199.562 77.8907 199.349 77.272 199.349 76.504V46.488C199.349 45.72 199.562 45.1227 199.989 44.696C200.458 44.2267 201.077 43.992 201.845 43.992C202.57 43.992 203.146 44.2267 203.573 44.696C204.042 45.1227 204.277 45.72 204.277 46.488V76.504C204.277 77.272 204.042 77.8907 203.573 78.36C203.146 78.7867 202.57 79 201.845 79ZM201.781 37.336C200.842 37.336 200.032 36.9947 199.349 36.312C198.666 35.6293 198.325 34.7973 198.325 33.816C198.325 32.7493 198.666 31.9173 199.349 31.32C200.074 30.68 200.906 30.36 201.845 30.36C202.741 30.36 203.53 30.68 204.213 31.32C204.938 31.9173 205.301 32.7493 205.301 33.816C205.301 34.7973 204.96 35.6293 204.277 36.312C203.594 36.9947 202.762 37.336 201.781 37.336ZM236.601 79.32C233.188 79.32 230.137 78.552 227.449 77.016C224.761 75.48 222.649 73.368 221.113 70.68C219.577 67.992 218.809 64.9413 218.809 61.528C218.809 58.072 219.577 55 221.113 52.312C222.649 49.624 224.761 47.512 227.449 45.976C230.137 44.44 233.188 43.672 236.601 43.672C240.014 43.672 243.044 44.44 245.689 45.976C248.377 47.512 250.489 49.624 252.025 52.312C253.561 55 254.35 58.072 254.393 61.528C254.393 64.9413 253.604 67.992 252.025 70.68C250.489 73.368 248.377 75.48 245.689 77.016C243.044 78.552 240.014 79.32 236.601 79.32ZM236.601 74.84C239.076 74.84 241.294 74.264 243.257 73.112C245.22 71.96 246.756 70.3813 247.865 68.376C248.974 66.3707 249.529 64.088 249.529 61.528C249.529 58.968 248.974 56.6853 247.865 54.68C246.756 52.632 245.22 51.032 243.257 49.88C241.294 48.728 239.076 48.152 236.601 48.152C234.126 48.152 231.908 48.728 229.945 49.88C227.982 51.032 226.425 52.632 225.273 54.68C224.164 56.6853 223.609 58.968 223.609 61.528C223.609 64.088 224.164 66.3707 225.273 68.376C226.425 70.3813 227.982 71.96 229.945 73.112C231.908 74.264 234.126 74.84 236.601 74.84Z" fill="#264653"/>
<defs>
<linearGradient id="paint0_linear" x1="135" y1="32" x2="135" y2="85" gradientUnits="userSpaceOnUse">
<stop offset="0.213542" stop-color="#264653"/>
<stop offset="1" stop-color="#264653" stop-opacity="0.36"/>
</linearGradient>
</defs>
</svg>
