<svg width="191" height="211" viewBox="0 0 191 211" fill="none" xmlns="http://www.w3.org/2000/svg">
<rect x="25" y="3.53553" width="5" height="61.8718" transform="rotate(-45 25 3.53553)" fill="#E76F51" fill-opacity="0.75"/>
<rect x="68.75" y="0.180458" width="5" height="61.8718" transform="rotate(45 68.75 0.180458)" fill="#E76F51" fill-opacity="0.75"/>
<path d="M86.693 155.673C86.693 156.627 86.534 157.512 86.216 158.328C85.904 159.138 85.46 159.84 84.884 160.434C84.308 161.028 83.615 161.493 82.805 161.829C81.995 162.159 81.095 162.324 80.105 162.324C79.121 162.324 78.224 162.159 77.414 161.829C76.604 161.493 75.908 161.028 75.326 160.434C74.75 159.84 74.303 159.138 73.985 158.328C73.667 157.512 73.508 156.627 73.508 155.673C73.508 154.719 73.667 153.837 73.985 153.027C74.303 152.211 74.75 151.506 75.326 150.912C75.908 150.318 76.604 149.856 77.414 149.526C78.224 149.19 79.121 149.022 80.105 149.022C80.765 149.022 81.386 149.1 81.968 149.256C82.55 149.406 83.084 149.622 83.57 149.904C84.056 150.18 84.491 150.519 84.875 150.921C85.265 151.317 85.595 151.761 85.865 152.253C86.135 152.745 86.339 153.279 86.477 153.855C86.621 154.431 86.693 155.037 86.693 155.673ZM84.218 155.673C84.218 154.959 84.122 154.32 83.93 153.756C83.738 153.186 83.465 152.703 83.111 152.307C82.757 151.911 82.325 151.608 81.815 151.398C81.311 151.188 80.741 151.083 80.105 151.083C79.469 151.083 78.896 151.188 78.386 151.398C77.882 151.608 77.45 151.911 77.09 152.307C76.736 152.703 76.463 153.186 76.271 153.756C76.079 154.32 75.983 154.959 75.983 155.673C75.983 156.387 76.079 157.029 76.271 157.599C76.463 158.163 76.736 158.643 77.09 159.039C77.45 159.429 77.882 159.729 78.386 159.939C78.896 160.149 79.469 160.254 80.105 160.254C80.741 160.254 81.311 160.149 81.815 159.939C82.325 159.729 82.757 159.429 83.111 159.039C83.465 158.643 83.738 158.163 83.93 157.599C84.122 157.029 84.218 156.387 84.218 155.673ZM90.5329 159.786C90.7849 160.092 91.0579 160.308 91.3519 160.434C91.6519 160.56 91.9759 160.623 92.3239 160.623C92.6599 160.623 92.9629 160.56 93.2329 160.434C93.5029 160.308 93.7309 160.116 93.9169 159.858C94.1089 159.6 94.2559 159.276 94.3579 158.886C94.4599 158.49 94.5109 158.025 94.5109 157.491C94.5109 156.951 94.4659 156.495 94.3759 156.123C94.2919 155.745 94.1689 155.439 94.0069 155.205C93.8449 154.971 93.6469 154.8 93.4129 154.692C93.1849 154.584 92.9239 154.53 92.6299 154.53C92.1679 154.53 91.7749 154.629 91.4509 154.827C91.1269 155.019 90.8209 155.292 90.5329 155.646V159.786ZM90.4159 154.206C90.7939 153.78 91.2229 153.435 91.7029 153.171C92.1829 152.907 92.7469 152.775 93.3949 152.775C93.8989 152.775 94.3579 152.88 94.7719 153.09C95.1919 153.3 95.5519 153.606 95.8519 154.008C96.1579 154.404 96.3919 154.896 96.5539 155.484C96.7219 156.066 96.8059 156.735 96.8059 157.491C96.8059 158.181 96.7129 158.82 96.5269 159.408C96.3409 159.996 96.0739 160.506 95.7259 160.938C95.3839 161.37 94.9669 161.709 94.4749 161.955C93.9889 162.195 93.4429 162.315 92.8369 162.315C92.3209 162.315 91.8799 162.237 91.5139 162.081C91.1479 161.919 90.8209 161.697 90.5329 161.415V165.195H88.3099V152.946H89.6689C89.9569 152.946 90.1459 153.081 90.2359 153.351L90.4159 154.206ZM104.174 154.746C104.114 154.842 104.051 154.911 103.985 154.953C103.919 154.989 103.835 155.007 103.733 155.007C103.625 155.007 103.508 154.977 103.382 154.917C103.262 154.857 103.121 154.791 102.959 154.719C102.797 154.641 102.611 154.572 102.401 154.512C102.197 154.452 101.954 154.422 101.672 154.422C101.234 154.422 100.889 154.515 100.637 154.701C100.391 154.887 100.268 155.13 100.268 155.43C100.268 155.628 100.331 155.796 100.457 155.934C100.589 156.066 100.76 156.183 100.97 156.285C101.186 156.387 101.429 156.48 101.699 156.564C101.969 156.642 102.242 156.729 102.518 156.825C102.8 156.921 103.076 157.032 103.346 157.158C103.616 157.278 103.856 157.434 104.066 157.626C104.282 157.812 104.453 158.037 104.579 158.301C104.711 158.565 104.777 158.883 104.777 159.255C104.777 159.699 104.696 160.11 104.534 160.488C104.378 160.86 104.144 161.184 103.832 161.46C103.52 161.73 103.133 161.943 102.671 162.099C102.215 162.249 101.687 162.324 101.087 162.324C100.769 162.324 100.457 162.294 100.151 162.234C99.8514 162.18 99.5604 162.102 99.2784 162C99.0024 161.898 98.7444 161.778 98.5044 161.64C98.2704 161.502 98.0634 161.352 97.8834 161.19L98.3964 160.344C98.4624 160.242 98.5404 160.164 98.6304 160.11C98.7204 160.056 98.8344 160.029 98.9724 160.029C99.1104 160.029 99.2394 160.068 99.3594 160.146C99.4854 160.224 99.6294 160.308 99.7914 160.398C99.9534 160.488 100.142 160.572 100.358 160.65C100.58 160.728 100.859 160.767 101.195 160.767C101.459 160.767 101.684 160.737 101.87 160.677C102.062 160.611 102.218 160.527 102.338 160.425C102.464 160.323 102.554 160.206 102.608 160.074C102.668 159.936 102.698 159.795 102.698 159.651C102.698 159.435 102.632 159.258 102.5 159.12C102.374 158.982 102.203 158.862 101.987 158.76C101.777 158.658 101.534 158.568 101.258 158.49C100.988 158.406 100.709 158.316 100.421 158.22C100.139 158.124 99.8604 158.013 99.5844 157.887C99.3144 157.755 99.0714 157.59 98.8554 157.392C98.6454 157.194 98.4744 156.951 98.3424 156.663C98.2164 156.375 98.1534 156.027 98.1534 155.619C98.1534 155.241 98.2284 154.881 98.3784 154.539C98.5284 154.197 98.7474 153.9 99.0354 153.648C99.3294 153.39 99.6924 153.186 100.124 153.036C100.562 152.88 101.066 152.802 101.636 152.802C102.272 152.802 102.851 152.907 103.373 153.117C103.895 153.327 104.33 153.603 104.678 153.945L104.174 154.746ZM106.127 160.956C106.127 160.77 106.16 160.593 106.226 160.425C106.298 160.257 106.394 160.113 106.514 159.993C106.634 159.873 106.778 159.777 106.946 159.705C107.114 159.633 107.294 159.597 107.486 159.597C107.678 159.597 107.855 159.633 108.017 159.705C108.185 159.777 108.329 159.873 108.449 159.993C108.575 160.113 108.674 160.257 108.746 160.425C108.818 160.593 108.854 160.77 108.854 160.956C108.854 161.148 108.818 161.328 108.746 161.496C108.674 161.658 108.575 161.799 108.449 161.919C108.329 162.039 108.185 162.132 108.017 162.198C107.855 162.27 107.678 162.306 107.486 162.306C107.294 162.306 107.114 162.27 106.946 162.198C106.778 162.132 106.634 162.039 106.514 161.919C106.394 161.799 106.298 161.658 106.226 161.496C106.16 161.328 106.127 161.148 106.127 160.956ZM110.398 160.956C110.398 160.77 110.431 160.593 110.497 160.425C110.569 160.257 110.665 160.113 110.785 159.993C110.905 159.873 111.049 159.777 111.217 159.705C111.385 159.633 111.565 159.597 111.757 159.597C111.949 159.597 112.126 159.633 112.288 159.705C112.456 159.777 112.6 159.873 112.72 159.993C112.846 160.113 112.945 160.257 113.017 160.425C113.089 160.593 113.125 160.77 113.125 160.956C113.125 161.148 113.089 161.328 113.017 161.496C112.945 161.658 112.846 161.799 112.72 161.919C112.6 162.039 112.456 162.132 112.288 162.198C112.126 162.27 111.949 162.306 111.757 162.306C111.565 162.306 111.385 162.27 111.217 162.198C111.049 162.132 110.905 162.039 110.785 161.919C110.665 161.799 110.569 161.658 110.497 161.496C110.431 161.328 110.398 161.148 110.398 160.956ZM114.67 160.956C114.67 160.77 114.703 160.593 114.769 160.425C114.841 160.257 114.937 160.113 115.057 159.993C115.177 159.873 115.321 159.777 115.489 159.705C115.657 159.633 115.837 159.597 116.029 159.597C116.221 159.597 116.398 159.633 116.56 159.705C116.728 159.777 116.872 159.873 116.992 159.993C117.118 160.113 117.217 160.257 117.289 160.425C117.361 160.593 117.397 160.77 117.397 160.956C117.397 161.148 117.361 161.328 117.289 161.496C117.217 161.658 117.118 161.799 116.992 161.919C116.872 162.039 116.728 162.132 116.56 162.198C116.398 162.27 116.221 162.306 116.029 162.306C115.837 162.306 115.657 162.27 115.489 162.198C115.321 162.132 115.177 162.039 115.057 161.919C114.937 161.799 114.841 161.658 114.769 161.496C114.703 161.328 114.67 161.148 114.67 160.956ZM8.62314 173.533C8.55114 173.659 8.47314 173.752 8.38914 173.812C8.31114 173.866 8.21214 173.893 8.09214 173.893C7.96614 173.893 7.82814 173.848 7.67814 173.758C7.53414 173.662 7.36014 173.557 7.15614 173.443C6.95214 173.329 6.71214 173.227 6.43614 173.137C6.16614 173.041 5.84514 172.993 5.47314 172.993C5.13714 172.993 4.84314 173.035 4.59114 173.119C4.33914 173.197 4.12614 173.308 3.95214 173.452C3.78414 173.596 3.65814 173.77 3.57414 173.974C3.49014 174.172 3.44814 174.391 3.44814 174.631C3.44814 174.937 3.53214 175.192 3.70014 175.396C3.87414 175.6 4.10214 175.774 4.38414 175.918C4.66614 176.062 4.98714 176.191 5.34714 176.305C5.70714 176.419 6.07614 176.542 6.45414 176.674C6.83214 176.8 7.20114 176.95 7.56114 177.124C7.92114 177.292 8.24214 177.508 8.52414 177.772C8.80614 178.03 9.03114 178.348 9.19914 178.726C9.37314 179.104 9.46014 179.563 9.46014 180.103C9.46014 180.691 9.35814 181.243 9.15414 181.759C8.95614 182.269 8.66214 182.716 8.27214 183.1C7.88814 183.478 7.41714 183.778 6.85914 184C6.30114 184.216 5.66214 184.324 4.94214 184.324C4.52814 184.324 4.12014 184.282 3.71814 184.198C3.31614 184.12 2.92914 184.006 2.55714 183.856C2.19114 183.706 1.84614 183.526 1.52214 183.316C1.19814 183.106 0.910141 182.872 0.658141 182.614L1.36914 181.453C1.42914 181.369 1.50714 181.3 1.60314 181.246C1.69914 181.186 1.80114 181.156 1.90914 181.156C2.05914 181.156 2.22114 181.219 2.39514 181.345C2.56914 181.465 2.77614 181.6 3.01614 181.75C3.25614 181.9 3.53514 182.038 3.85314 182.164C4.17714 182.284 4.56414 182.344 5.01414 182.344C5.70414 182.344 6.23814 182.182 6.61614 181.858C6.99414 181.528 7.18314 181.057 7.18314 180.445C7.18314 180.103 7.09614 179.824 6.92214 179.608C6.75414 179.392 6.52914 179.212 6.24714 179.068C5.96514 178.918 5.64414 178.792 5.28414 178.69C4.92414 178.588 4.55814 178.477 4.18614 178.357C3.81414 178.237 3.44814 178.093 3.08814 177.925C2.72814 177.757 2.40714 177.538 2.12514 177.268C1.84314 176.998 1.61514 176.662 1.44114 176.26C1.27314 175.852 1.18914 175.351 1.18914 174.757C1.18914 174.283 1.28214 173.821 1.46814 173.371C1.66014 172.921 1.93614 172.522 2.29614 172.174C2.65614 171.826 3.10014 171.547 3.62814 171.337C4.15614 171.127 4.76214 171.022 5.44614 171.022C6.21414 171.022 6.92214 171.142 7.57014 171.382C8.21814 171.622 8.77014 171.958 9.22614 172.39L8.62314 173.533ZM15.2719 174.802C15.9559 174.802 16.5769 174.913 17.1349 175.135C17.6989 175.357 18.1789 175.672 18.5749 176.08C18.9769 176.488 19.2859 176.986 19.5019 177.574C19.7179 178.162 19.8259 178.819 19.8259 179.545C19.8259 180.277 19.7179 180.937 19.5019 181.525C19.2859 182.113 18.9769 182.614 18.5749 183.028C18.1789 183.442 17.6989 183.76 17.1349 183.982C16.5769 184.204 15.9559 184.315 15.2719 184.315C14.5819 184.315 13.9549 184.204 13.3909 183.982C12.8269 183.76 12.3439 183.442 11.9419 183.028C11.5459 182.614 11.2369 182.113 11.0149 181.525C10.7989 180.937 10.6909 180.277 10.6909 179.545C10.6909 178.819 10.7989 178.162 11.0149 177.574C11.2369 176.986 11.5459 176.488 11.9419 176.08C12.3439 175.672 12.8269 175.357 13.3909 175.135C13.9549 174.913 14.5819 174.802 15.2719 174.802ZM15.2719 182.605C16.0399 182.605 16.6069 182.347 16.9729 181.831C17.3449 181.315 17.5309 180.559 17.5309 179.563C17.5309 178.567 17.3449 177.808 16.9729 177.286C16.6069 176.764 16.0399 176.503 15.2719 176.503C14.4919 176.503 13.9129 176.767 13.5349 177.295C13.1629 177.817 12.9769 178.573 12.9769 179.563C12.9769 180.553 13.1629 181.309 13.5349 181.831C13.9129 182.347 14.4919 182.605 15.2719 182.605ZM21.5218 184.18V174.946H22.8808C23.1688 174.946 23.3578 175.081 23.4478 175.351L23.5918 176.035C23.7538 175.855 23.9218 175.69 24.0958 175.54C24.2758 175.39 24.4648 175.261 24.6628 175.153C24.8668 175.045 25.0828 174.961 25.3108 174.901C25.5448 174.835 25.7998 174.802 26.0758 174.802C26.6578 174.802 27.1348 174.961 27.5068 175.279C27.8848 175.591 28.1668 176.008 28.3528 176.53C28.4968 176.224 28.6768 175.963 28.8928 175.747C29.1088 175.525 29.3458 175.345 29.6038 175.207C29.8618 175.069 30.1348 174.967 30.4228 174.901C30.7168 174.835 31.0108 174.802 31.3048 174.802C31.8148 174.802 32.2678 174.88 32.6638 175.036C33.0598 175.192 33.3928 175.42 33.6628 175.72C33.9328 176.02 34.1368 176.386 34.2748 176.818C34.4188 177.25 34.4908 177.745 34.4908 178.303V184.18H32.2678V178.303C32.2678 177.715 32.1388 177.274 31.8808 176.98C31.6228 176.68 31.2448 176.53 30.7468 176.53C30.5188 176.53 30.3058 176.569 30.1078 176.647C29.9158 176.725 29.7448 176.839 29.5948 176.989C29.4508 177.133 29.3368 177.316 29.2528 177.538C29.1688 177.76 29.1268 178.015 29.1268 178.303V184.18H26.8948V178.303C26.8948 177.685 26.7688 177.235 26.5168 176.953C26.2708 176.671 25.9078 176.53 25.4278 176.53C25.1038 176.53 24.8008 176.611 24.5188 176.773C24.2428 176.929 23.9848 177.145 23.7448 177.421V184.18H21.5218ZM42.5529 178.501C42.5529 178.213 42.5109 177.943 42.4269 177.691C42.3489 177.433 42.2289 177.208 42.0669 177.016C41.9049 176.824 41.6979 176.674 41.4459 176.566C41.1999 176.452 40.9119 176.395 40.5819 176.395C39.9399 176.395 39.4329 176.578 39.0609 176.944C38.6949 177.31 38.4609 177.829 38.3589 178.501H42.5529ZM38.3139 179.842C38.3499 180.316 38.4339 180.727 38.5659 181.075C38.6979 181.417 38.8719 181.702 39.0879 181.93C39.3039 182.152 39.5589 182.32 39.8529 182.434C40.1529 182.542 40.4829 182.596 40.8429 182.596C41.2029 182.596 41.5119 182.554 41.7699 182.47C42.0339 182.386 42.2619 182.293 42.4539 182.191C42.6519 182.089 42.8229 181.996 42.9669 181.912C43.1169 181.828 43.2609 181.786 43.3989 181.786C43.5849 181.786 43.7229 181.855 43.8129 181.993L44.4519 182.803C44.2059 183.091 43.9299 183.334 43.6239 183.532C43.3179 183.724 42.9969 183.88 42.6609 184C42.3309 184.114 41.9919 184.195 41.6439 184.243C41.3019 184.291 40.9689 184.315 40.6449 184.315C40.0029 184.315 39.4059 184.21 38.8539 184C38.3019 183.784 37.8219 183.469 37.4139 183.055C37.0059 182.635 36.6849 182.119 36.4509 181.507C36.2169 180.889 36.0999 180.175 36.0999 179.365C36.0999 178.735 36.2019 178.144 36.4059 177.592C36.6099 177.034 36.9009 176.551 37.2789 176.143C37.6629 175.729 38.1279 175.402 38.6739 175.162C39.2259 174.922 39.8469 174.802 40.5369 174.802C41.1189 174.802 41.6559 174.895 42.1479 175.081C42.6399 175.267 43.0629 175.54 43.4169 175.9C43.7709 176.254 44.0469 176.692 44.2449 177.214C44.4489 177.73 44.5509 178.321 44.5509 178.987C44.5509 179.323 44.5149 179.551 44.4429 179.671C44.3709 179.785 44.2329 179.842 44.0289 179.842H38.3139ZM49.2092 184.324C48.4052 184.324 47.7872 184.099 47.3552 183.649C46.9292 183.193 46.7162 182.566 46.7162 181.768V176.611H45.7712C45.6512 176.611 45.5492 176.572 45.4652 176.494C45.3812 176.416 45.3392 176.299 45.3392 176.143V175.261L46.8242 175.018L47.2922 172.498C47.3222 172.378 47.3792 172.285 47.4632 172.219C47.5472 172.153 47.6552 172.12 47.7872 172.12H48.9392V175.027H51.4052V176.611H48.9392V181.615C48.9392 181.903 49.0082 182.128 49.1462 182.29C49.2902 182.452 49.4852 182.533 49.7312 182.533C49.8692 182.533 49.9832 182.518 50.0732 182.488C50.1692 182.452 50.2502 182.416 50.3162 182.38C50.3882 182.344 50.4512 182.311 50.5052 182.281C50.5592 182.245 50.6132 182.227 50.6672 182.227C50.7332 182.227 50.7872 182.245 50.8292 182.281C50.8712 182.311 50.9162 182.359 50.9642 182.425L51.6302 183.505C51.3062 183.775 50.9342 183.979 50.5142 184.117C50.0942 184.255 49.6592 184.324 49.2092 184.324ZM55.0515 175.936C55.4115 175.6 55.8075 175.327 56.2395 175.117C56.6715 174.907 57.1785 174.802 57.7605 174.802C58.2645 174.802 58.7115 174.889 59.1015 175.063C59.4915 175.231 59.8155 175.471 60.0735 175.783C60.3375 176.089 60.5355 176.458 60.6675 176.89C60.8055 177.316 60.8745 177.787 60.8745 178.303V184.18H58.6515V178.303C58.6515 177.739 58.5225 177.304 58.2645 176.998C58.0065 176.686 57.6135 176.53 57.0855 176.53C56.7015 176.53 56.3415 176.617 56.0055 176.791C55.6695 176.965 55.3515 177.202 55.0515 177.502V184.18H52.8285V170.806H55.0515V175.936ZM65.2926 174.946V184.18H63.0606V174.946H65.2926ZM65.5986 172.255C65.5986 172.447 65.5596 172.627 65.4816 172.795C65.4036 172.963 65.2986 173.11 65.1666 173.236C65.0406 173.362 64.8906 173.464 64.7166 173.542C64.5426 173.614 64.3566 173.65 64.1586 173.65C63.9666 173.65 63.7836 173.614 63.6096 173.542C63.4416 173.464 63.2946 173.362 63.1686 173.236C63.0426 173.11 62.9406 172.963 62.8626 172.795C62.7906 172.627 62.7546 172.447 62.7546 172.255C62.7546 172.057 62.7906 171.871 62.8626 171.697C62.9406 171.523 63.0426 171.373 63.1686 171.247C63.2946 171.121 63.4416 171.022 63.6096 170.95C63.7836 170.872 63.9666 170.833 64.1586 170.833C64.3566 170.833 64.5426 170.872 64.7166 170.95C64.8906 171.022 65.0406 171.121 65.1666 171.247C65.2986 171.373 65.4036 171.523 65.4816 171.697C65.5596 171.871 65.5986 172.057 65.5986 172.255ZM69.6379 176.08C69.8239 175.894 70.0189 175.723 70.2229 175.567C70.4329 175.405 70.6519 175.27 70.8799 175.162C71.1139 175.048 71.3629 174.961 71.6269 174.901C71.8909 174.835 72.1789 174.802 72.4909 174.802C72.9949 174.802 73.4419 174.889 73.8319 175.063C74.2219 175.231 74.5459 175.471 74.8039 175.783C75.0679 176.089 75.2659 176.458 75.3979 176.89C75.5359 177.316 75.6049 177.787 75.6049 178.303V184.18H73.3819V178.303C73.3819 177.739 73.2529 177.304 72.9949 176.998C72.7369 176.686 72.3439 176.53 71.8159 176.53C71.4319 176.53 71.0719 176.617 70.7359 176.791C70.3999 176.965 70.0819 177.202 69.7819 177.502V184.18H67.5589V174.946H68.9179C69.2059 174.946 69.3949 175.081 69.4849 175.351L69.6379 176.08ZM81.0941 179.338C81.3701 179.338 81.6101 179.302 81.8141 179.23C82.0181 179.152 82.1861 179.047 82.3181 178.915C82.4561 178.783 82.5581 178.624 82.6241 178.438C82.6961 178.252 82.7321 178.048 82.7321 177.826C82.7321 177.37 82.5941 177.01 82.3181 176.746C82.0481 176.476 81.6401 176.341 81.0941 176.341C80.5481 176.341 80.1371 176.476 79.8611 176.746C79.5911 177.01 79.4561 177.37 79.4561 177.826C79.4561 178.042 79.4891 178.243 79.5551 178.429C79.6271 178.615 79.7291 178.777 79.8611 178.915C79.9991 179.047 80.1701 179.152 80.3741 179.23C80.5841 179.302 80.8241 179.338 81.0941 179.338ZM83.6051 184.594C83.6051 184.414 83.5511 184.267 83.4431 184.153C83.3351 184.039 83.1881 183.952 83.0021 183.892C82.8161 183.826 82.5971 183.778 82.3451 183.748C82.0991 183.718 81.8351 183.697 81.5531 183.685C81.2771 183.667 80.9891 183.652 80.6891 183.64C80.3951 183.628 80.1071 183.604 79.8251 183.568C79.5791 183.706 79.3781 183.868 79.2221 184.054C79.0721 184.24 78.9971 184.456 78.9971 184.702C78.9971 184.864 79.0361 185.014 79.1141 185.152C79.1981 185.296 79.3271 185.419 79.5011 185.521C79.6811 185.623 79.9121 185.701 80.1941 185.755C80.4761 185.815 80.8211 185.845 81.2291 185.845C81.6431 185.845 82.0001 185.812 82.3001 185.746C82.6001 185.686 82.8461 185.599 83.0381 185.485C83.2361 185.377 83.3801 185.245 83.4701 185.089C83.5601 184.939 83.6051 184.774 83.6051 184.594ZM85.8191 175.261V176.089C85.8191 176.353 85.6601 176.515 85.3421 176.575L84.5141 176.728C84.6401 177.046 84.7031 177.394 84.7031 177.772C84.7031 178.228 84.6101 178.642 84.4241 179.014C84.2441 179.38 83.9921 179.692 83.6681 179.95C83.3441 180.208 82.9601 180.409 82.5161 180.553C82.0781 180.691 81.6041 180.76 81.0941 180.76C80.9141 180.76 80.7401 180.751 80.5721 180.733C80.4041 180.715 80.2391 180.691 80.0771 180.661C79.7891 180.835 79.6451 181.03 79.6451 181.246C79.6451 181.432 79.7291 181.57 79.8971 181.66C80.0711 181.744 80.2991 181.804 80.5811 181.84C80.8631 181.876 81.1841 181.9 81.5441 181.912C81.9041 181.918 82.2731 181.936 82.6511 181.966C83.0291 181.996 83.3981 182.05 83.7581 182.128C84.1181 182.2 84.4391 182.317 84.7211 182.479C85.0031 182.641 85.2281 182.863 85.3961 183.145C85.5701 183.421 85.6571 183.778 85.6571 184.216C85.6571 184.624 85.5551 185.02 85.3511 185.404C85.1531 185.788 84.8621 186.13 84.4781 186.43C84.1001 186.73 83.6321 186.97 83.0741 187.15C82.5221 187.336 81.8921 187.429 81.1841 187.429C80.4881 187.429 79.8821 187.36 79.3661 187.222C78.8501 187.09 78.4211 186.91 78.0791 186.682C77.7371 186.46 77.4821 186.202 77.3141 185.908C77.1461 185.614 77.0621 185.308 77.0621 184.99C77.0621 184.558 77.1911 184.198 77.4491 183.91C77.7131 183.616 78.0731 183.382 78.5291 183.208C78.2831 183.082 78.0881 182.914 77.9441 182.704C77.8001 182.494 77.7281 182.218 77.7281 181.876C77.7281 181.738 77.7521 181.597 77.8001 181.453C77.8541 181.303 77.9291 181.156 78.0251 181.012C78.1271 180.868 78.2531 180.733 78.4031 180.607C78.5531 180.475 78.7301 180.358 78.9341 180.256C78.4661 180.004 78.0971 179.668 77.8271 179.248C77.5631 178.828 77.4311 178.336 77.4311 177.772C77.4311 177.316 77.5211 176.905 77.7011 176.539C77.8871 176.167 78.1421 175.852 78.4661 175.594C78.7961 175.33 79.1831 175.129 79.6271 174.991C80.0771 174.853 80.5661 174.784 81.0941 174.784C81.4901 174.784 81.8621 174.826 82.2101 174.91C82.5581 174.988 82.8761 175.105 83.1641 175.261H85.8191ZM104.422 174.946L101.488 184.18H99.7057C99.5017 184.18 99.3607 184.048 99.2827 183.784L97.6267 178.447C97.5727 178.267 97.5217 178.09 97.4737 177.916C97.4317 177.736 97.3957 177.556 97.3657 177.376C97.3297 177.556 97.2877 177.739 97.2397 177.925C97.1977 178.105 97.1497 178.285 97.0957 178.465L95.4127 183.784C95.3407 184.048 95.1817 184.18 94.9357 184.18H93.2257L90.3007 174.946H92.0737C92.2357 174.946 92.3737 174.985 92.4877 175.063C92.6017 175.141 92.6767 175.24 92.7127 175.36L94.0357 180.292C94.1017 180.562 94.1587 180.826 94.2067 181.084C94.2607 181.342 94.3057 181.6 94.3417 181.858C94.4077 181.6 94.4767 181.342 94.5487 181.084C94.6267 180.826 94.7077 180.562 94.7917 180.292L96.3217 175.342C96.3577 175.222 96.4267 175.123 96.5287 175.045C96.6367 174.967 96.7657 174.928 96.9157 174.928H97.8967C98.0527 174.928 98.1847 174.967 98.2927 175.045C98.4067 175.123 98.4817 175.222 98.5177 175.342L100.003 180.292C100.081 180.562 100.153 180.829 100.219 181.093C100.291 181.351 100.36 181.609 100.426 181.867C100.504 181.357 100.615 180.832 100.759 180.292L102.118 175.36C102.16 175.24 102.235 175.141 102.343 175.063C102.451 174.985 102.58 174.946 102.73 174.946H104.422ZM111.477 178.501C111.477 178.213 111.435 177.943 111.351 177.691C111.273 177.433 111.153 177.208 110.991 177.016C110.829 176.824 110.622 176.674 110.37 176.566C110.124 176.452 109.836 176.395 109.506 176.395C108.864 176.395 108.357 176.578 107.985 176.944C107.619 177.31 107.385 177.829 107.283 178.501H111.477ZM107.238 179.842C107.274 180.316 107.358 180.727 107.49 181.075C107.622 181.417 107.796 181.702 108.012 181.93C108.228 182.152 108.483 182.32 108.777 182.434C109.077 182.542 109.407 182.596 109.767 182.596C110.127 182.596 110.436 182.554 110.694 182.47C110.958 182.386 111.186 182.293 111.378 182.191C111.576 182.089 111.747 181.996 111.891 181.912C112.041 181.828 112.185 181.786 112.323 181.786C112.509 181.786 112.647 181.855 112.737 181.993L113.376 182.803C113.13 183.091 112.854 183.334 112.548 183.532C112.242 183.724 111.921 183.88 111.585 184C111.255 184.114 110.916 184.195 110.568 184.243C110.226 184.291 109.893 184.315 109.569 184.315C108.927 184.315 108.33 184.21 107.778 184C107.226 183.784 106.746 183.469 106.338 183.055C105.93 182.635 105.609 182.119 105.375 181.507C105.141 180.889 105.024 180.175 105.024 179.365C105.024 178.735 105.126 178.144 105.33 177.592C105.534 177.034 105.825 176.551 106.203 176.143C106.587 175.729 107.052 175.402 107.598 175.162C108.15 174.922 108.771 174.802 109.461 174.802C110.043 174.802 110.58 174.895 111.072 175.081C111.564 175.267 111.987 175.54 112.341 175.9C112.695 176.254 112.971 176.692 113.169 177.214C113.373 177.73 113.475 178.321 113.475 178.987C113.475 179.323 113.439 179.551 113.367 179.671C113.295 179.785 113.157 179.842 112.953 179.842H107.238ZM117.222 176.08C117.408 175.894 117.603 175.723 117.807 175.567C118.017 175.405 118.236 175.27 118.464 175.162C118.698 175.048 118.947 174.961 119.211 174.901C119.475 174.835 119.763 174.802 120.075 174.802C120.579 174.802 121.026 174.889 121.416 175.063C121.806 175.231 122.13 175.471 122.388 175.783C122.652 176.089 122.85 176.458 122.982 176.89C123.12 177.316 123.189 177.787 123.189 178.303V184.18H120.966V178.303C120.966 177.739 120.837 177.304 120.579 176.998C120.321 176.686 119.928 176.53 119.4 176.53C119.016 176.53 118.656 176.617 118.32 176.791C117.984 176.965 117.666 177.202 117.366 177.502V184.18H115.143V174.946H116.502C116.79 174.946 116.979 175.081 117.069 175.351L117.222 176.08ZM128.258 184.324C127.454 184.324 126.836 184.099 126.404 183.649C125.978 183.193 125.765 182.566 125.765 181.768V176.611H124.82C124.7 176.611 124.598 176.572 124.514 176.494C124.43 176.416 124.388 176.299 124.388 176.143V175.261L125.873 175.018L126.341 172.498C126.371 172.378 126.428 172.285 126.512 172.219C126.596 172.153 126.704 172.12 126.836 172.12H127.988V175.027H130.454V176.611H127.988V181.615C127.988 181.903 128.057 182.128 128.195 182.29C128.339 182.452 128.534 182.533 128.78 182.533C128.918 182.533 129.032 182.518 129.122 182.488C129.218 182.452 129.299 182.416 129.365 182.38C129.437 182.344 129.5 182.311 129.554 182.281C129.608 182.245 129.662 182.227 129.716 182.227C129.782 182.227 129.836 182.245 129.878 182.281C129.92 182.311 129.965 182.359 130.013 182.425L130.679 183.505C130.355 183.775 129.983 183.979 129.563 184.117C129.143 184.255 128.708 184.324 128.258 184.324ZM149.07 174.946L146.136 184.18H144.354C144.15 184.18 144.009 184.048 143.931 183.784L142.275 178.447C142.221 178.267 142.17 178.09 142.122 177.916C142.08 177.736 142.044 177.556 142.014 177.376C141.978 177.556 141.936 177.739 141.888 177.925C141.846 178.105 141.798 178.285 141.744 178.465L140.061 183.784C139.989 184.048 139.83 184.18 139.584 184.18H137.874L134.949 174.946H136.722C136.884 174.946 137.022 174.985 137.136 175.063C137.25 175.141 137.325 175.24 137.361 175.36L138.684 180.292C138.75 180.562 138.807 180.826 138.855 181.084C138.909 181.342 138.954 181.6 138.99 181.858C139.056 181.6 139.125 181.342 139.197 181.084C139.275 180.826 139.356 180.562 139.44 180.292L140.97 175.342C141.006 175.222 141.075 175.123 141.177 175.045C141.285 174.967 141.414 174.928 141.564 174.928H142.545C142.701 174.928 142.833 174.967 142.941 175.045C143.055 175.123 143.13 175.222 143.166 175.342L144.651 180.292C144.729 180.562 144.801 180.829 144.867 181.093C144.939 181.351 145.008 181.609 145.074 181.867C145.152 181.357 145.263 180.832 145.407 180.292L146.766 175.36C146.808 175.24 146.883 175.141 146.991 175.063C147.099 174.985 147.228 174.946 147.378 174.946H149.07ZM152.431 176.548C152.719 175.996 153.061 175.564 153.457 175.252C153.853 174.934 154.321 174.775 154.861 174.775C155.287 174.775 155.629 174.868 155.887 175.054L155.743 176.719C155.713 176.827 155.668 176.905 155.608 176.953C155.554 176.995 155.479 177.016 155.383 177.016C155.293 177.016 155.158 177.001 154.978 176.971C154.804 176.941 154.633 176.926 154.465 176.926C154.219 176.926 154 176.962 153.808 177.034C153.616 177.106 153.442 177.211 153.286 177.349C153.136 177.481 153.001 177.643 152.881 177.835C152.767 178.027 152.659 178.246 152.557 178.492V184.18H150.334V174.946H151.639C151.867 174.946 152.026 174.988 152.116 175.072C152.206 175.15 152.266 175.294 152.296 175.504L152.431 176.548ZM160.872 174.802C161.556 174.802 162.177 174.913 162.735 175.135C163.299 175.357 163.779 175.672 164.175 176.08C164.576 176.488 164.885 176.986 165.102 177.574C165.318 178.162 165.426 178.819 165.426 179.545C165.426 180.277 165.318 180.937 165.102 181.525C164.885 182.113 164.576 182.614 164.175 183.028C163.779 183.442 163.299 183.76 162.735 183.982C162.177 184.204 161.556 184.315 160.872 184.315C160.182 184.315 159.555 184.204 158.991 183.982C158.427 183.76 157.944 183.442 157.542 183.028C157.146 182.614 156.837 182.113 156.615 181.525C156.399 180.937 156.291 180.277 156.291 179.545C156.291 178.819 156.399 178.162 156.615 177.574C156.837 176.986 157.146 176.488 157.542 176.08C157.944 175.672 158.427 175.357 158.991 175.135C159.555 174.913 160.182 174.802 160.872 174.802ZM160.872 182.605C161.64 182.605 162.207 182.347 162.573 181.831C162.945 181.315 163.131 180.559 163.131 179.563C163.131 178.567 162.945 177.808 162.573 177.286C162.207 176.764 161.64 176.503 160.872 176.503C160.092 176.503 159.513 176.767 159.135 177.295C158.763 177.817 158.577 178.573 158.577 179.563C158.577 180.553 158.763 181.309 159.135 181.831C159.513 182.347 160.092 182.605 160.872 182.605ZM169.2 176.08C169.386 175.894 169.581 175.723 169.785 175.567C169.995 175.405 170.214 175.27 170.442 175.162C170.676 175.048 170.925 174.961 171.189 174.901C171.453 174.835 171.741 174.802 172.053 174.802C172.557 174.802 173.004 174.889 173.394 175.063C173.784 175.231 174.108 175.471 174.366 175.783C174.63 176.089 174.828 176.458 174.96 176.89C175.098 177.316 175.167 177.787 175.167 178.303V184.18H172.944V178.303C172.944 177.739 172.815 177.304 172.557 176.998C172.299 176.686 171.906 176.53 171.378 176.53C170.994 176.53 170.634 176.617 170.298 176.791C169.962 176.965 169.644 177.202 169.344 177.502V184.18H167.121V174.946H168.48C168.768 174.946 168.957 175.081 169.047 175.351L169.2 176.08ZM180.657 179.338C180.933 179.338 181.173 179.302 181.377 179.23C181.581 179.152 181.749 179.047 181.881 178.915C182.019 178.783 182.121 178.624 182.187 178.438C182.259 178.252 182.295 178.048 182.295 177.826C182.295 177.37 182.157 177.01 181.881 176.746C181.611 176.476 181.203 176.341 180.657 176.341C180.111 176.341 179.7 176.476 179.424 176.746C179.154 177.01 179.019 177.37 179.019 177.826C179.019 178.042 179.052 178.243 179.118 178.429C179.19 178.615 179.292 178.777 179.424 178.915C179.562 179.047 179.733 179.152 179.937 179.23C180.147 179.302 180.387 179.338 180.657 179.338ZM183.168 184.594C183.168 184.414 183.114 184.267 183.006 184.153C182.898 184.039 182.751 183.952 182.565 183.892C182.379 183.826 182.16 183.778 181.908 183.748C181.662 183.718 181.398 183.697 181.116 183.685C180.84 183.667 180.552 183.652 180.252 183.64C179.958 183.628 179.67 183.604 179.388 183.568C179.142 183.706 178.941 183.868 178.785 184.054C178.635 184.24 178.56 184.456 178.56 184.702C178.56 184.864 178.599 185.014 178.677 185.152C178.761 185.296 178.89 185.419 179.064 185.521C179.244 185.623 179.475 185.701 179.757 185.755C180.039 185.815 180.384 185.845 180.792 185.845C181.206 185.845 181.563 185.812 181.863 185.746C182.163 185.686 182.409 185.599 182.601 185.485C182.799 185.377 182.943 185.245 183.033 185.089C183.123 184.939 183.168 184.774 183.168 184.594ZM185.382 175.261V176.089C185.382 176.353 185.223 176.515 184.905 176.575L184.077 176.728C184.203 177.046 184.266 177.394 184.266 177.772C184.266 178.228 184.173 178.642 183.987 179.014C183.807 179.38 183.555 179.692 183.231 179.95C182.907 180.208 182.523 180.409 182.079 180.553C181.641 180.691 181.167 180.76 180.657 180.76C180.477 180.76 180.303 180.751 180.135 180.733C179.967 180.715 179.802 180.691 179.64 180.661C179.352 180.835 179.208 181.03 179.208 181.246C179.208 181.432 179.292 181.57 179.46 181.66C179.634 181.744 179.862 181.804 180.144 181.84C180.426 181.876 180.747 181.9 181.107 181.912C181.467 181.918 181.836 181.936 182.214 181.966C182.592 181.996 182.961 182.05 183.321 182.128C183.681 182.2 184.002 182.317 184.284 182.479C184.566 182.641 184.791 182.863 184.959 183.145C185.133 183.421 185.22 183.778 185.22 184.216C185.22 184.624 185.118 185.02 184.914 185.404C184.716 185.788 184.425 186.13 184.041 186.43C183.663 186.73 183.195 186.97 182.637 187.15C182.085 187.336 181.455 187.429 180.747 187.429C180.051 187.429 179.445 187.36 178.929 187.222C178.413 187.09 177.984 186.91 177.642 186.682C177.3 186.46 177.045 186.202 176.877 185.908C176.709 185.614 176.625 185.308 176.625 184.99C176.625 184.558 176.754 184.198 177.012 183.91C177.276 183.616 177.636 183.382 178.092 183.208C177.846 183.082 177.651 182.914 177.507 182.704C177.363 182.494 177.291 182.218 177.291 181.876C177.291 181.738 177.315 181.597 177.363 181.453C177.417 181.303 177.492 181.156 177.588 181.012C177.69 180.868 177.816 180.733 177.966 180.607C178.116 180.475 178.293 180.358 178.497 180.256C178.029 180.004 177.66 179.668 177.39 179.248C177.126 178.828 176.994 178.336 176.994 177.772C176.994 177.316 177.084 176.905 177.264 176.539C177.45 176.167 177.705 175.852 178.029 175.594C178.359 175.33 178.746 175.129 179.19 174.991C179.64 174.853 180.129 174.784 180.657 174.784C181.053 174.784 181.425 174.826 181.773 174.91C182.121 174.988 182.439 175.105 182.727 175.261H185.382ZM189.275 171.166V176.314C189.275 176.86 189.248 177.397 189.194 177.925C189.14 178.447 189.071 179.002 188.987 179.59H187.475C187.391 179.002 187.322 178.447 187.268 177.925C187.214 177.397 187.187 176.86 187.187 176.314V171.166H189.275ZM186.836 182.956C186.836 182.77 186.869 182.593 186.935 182.425C187.007 182.257 187.103 182.113 187.223 181.993C187.349 181.873 187.496 181.777 187.664 181.705C187.832 181.633 188.012 181.597 188.204 181.597C188.39 181.597 188.567 181.633 188.735 181.705C188.903 181.777 189.047 181.873 189.167 181.993C189.293 182.113 189.392 182.257 189.464 182.425C189.536 182.593 189.572 182.77 189.572 182.956C189.572 183.148 189.536 183.328 189.464 183.496C189.392 183.658 189.293 183.799 189.167 183.919C189.047 184.039 188.903 184.132 188.735 184.198C188.567 184.27 188.39 184.306 188.204 184.306C188.012 184.306 187.832 184.27 187.664 184.198C187.496 184.132 187.349 184.039 187.223 183.919C187.103 183.799 187.007 183.658 186.935 183.496C186.869 183.328 186.836 183.148 186.836 182.956ZM33.4417 199.709C33.8857 199.709 34.2727 199.655 34.6027 199.547C34.9327 199.433 35.2057 199.274 35.4217 199.07C35.6437 198.86 35.8087 198.608 35.9167 198.314C36.0247 198.014 36.0787 197.681 36.0787 197.315C36.0787 196.967 36.0247 196.652 35.9167 196.37C35.8087 196.088 35.6467 195.848 35.4307 195.65C35.2147 195.452 34.9417 195.302 34.6117 195.2C34.2817 195.092 33.8917 195.038 33.4417 195.038H31.6327V199.709H33.4417ZM33.4417 193.166C34.3117 193.166 35.0647 193.268 35.7007 193.472C36.3367 193.676 36.8617 193.961 37.2757 194.327C37.6897 194.693 37.9957 195.131 38.1937 195.641C38.3977 196.151 38.4997 196.709 38.4997 197.315C38.4997 197.945 38.3947 198.524 38.1847 199.052C37.9747 199.574 37.6597 200.024 37.2397 200.402C36.8197 200.78 36.2917 201.074 35.6557 201.284C35.0257 201.494 34.2877 201.599 33.4417 201.599H31.6327V206.18H29.2117V193.166H33.4417ZM42.2201 192.806V206.18H39.9971V192.806H42.2201ZM50.3839 200.501C50.3839 200.213 50.3419 199.943 50.2579 199.691C50.1799 199.433 50.0599 199.208 49.8979 199.016C49.7359 198.824 49.5289 198.674 49.2769 198.566C49.0309 198.452 48.7429 198.395 48.4129 198.395C47.7709 198.395 47.2639 198.578 46.8919 198.944C46.5259 199.31 46.2919 199.829 46.1899 200.501H50.3839ZM46.1449 201.842C46.1809 202.316 46.2649 202.727 46.3969 203.075C46.5289 203.417 46.7029 203.702 46.9189 203.93C47.1349 204.152 47.3899 204.32 47.6839 204.434C47.9839 204.542 48.3139 204.596 48.6739 204.596C49.0339 204.596 49.3429 204.554 49.6009 204.47C49.8649 204.386 50.0929 204.293 50.2849 204.191C50.4829 204.089 50.6539 203.996 50.7979 203.912C50.9479 203.828 51.0919 203.786 51.2299 203.786C51.4159 203.786 51.5539 203.855 51.6439 203.993L52.2829 204.803C52.0369 205.091 51.7609 205.334 51.4549 205.532C51.1489 205.724 50.8279 205.88 50.4919 206C50.1619 206.114 49.8229 206.195 49.4749 206.243C49.1329 206.291 48.7999 206.315 48.4759 206.315C47.8339 206.315 47.2369 206.21 46.6849 206C46.1329 205.784 45.6529 205.469 45.2449 205.055C44.8369 204.635 44.5159 204.119 44.2819 203.507C44.0479 202.889 43.9309 202.175 43.9309 201.365C43.9309 200.735 44.0329 200.144 44.2369 199.592C44.4409 199.034 44.7319 198.551 45.1099 198.143C45.4939 197.729 45.9589 197.402 46.5049 197.162C47.0569 196.922 47.6779 196.802 48.3679 196.802C48.9499 196.802 49.4869 196.895 49.9789 197.081C50.4709 197.267 50.8939 197.54 51.2479 197.9C51.6019 198.254 51.8779 198.692 52.0759 199.214C52.2799 199.73 52.3819 200.321 52.3819 200.987C52.3819 201.323 52.3459 201.551 52.2739 201.671C52.2019 201.785 52.0639 201.842 51.8599 201.842H46.1449ZM58.9281 202.238C58.2861 202.268 57.7461 202.325 57.3081 202.409C56.8701 202.487 56.5191 202.589 56.2551 202.715C55.9911 202.841 55.8021 202.988 55.6881 203.156C55.5741 203.324 55.5171 203.507 55.5171 203.705C55.5171 204.095 55.6311 204.374 55.8591 204.542C56.0931 204.71 56.3961 204.794 56.7681 204.794C57.2241 204.794 57.6171 204.713 57.9471 204.551C58.2831 204.383 58.6101 204.131 58.9281 203.795V202.238ZM53.8341 198.233C54.8961 197.261 56.1741 196.775 57.6681 196.775C58.2081 196.775 58.6911 196.865 59.1171 197.045C59.5431 197.219 59.9031 197.465 60.1971 197.783C60.4911 198.095 60.7131 198.47 60.8631 198.908C61.0191 199.346 61.0971 199.826 61.0971 200.348V206.18H60.0891C59.8791 206.18 59.7171 206.15 59.6031 206.09C59.4891 206.024 59.3991 205.895 59.3331 205.703L59.1351 205.037C58.9011 205.247 58.6731 205.433 58.4511 205.595C58.2291 205.751 57.9981 205.883 57.7581 205.991C57.5181 206.099 57.2601 206.18 56.9841 206.234C56.7141 206.294 56.4141 206.324 56.0841 206.324C55.6941 206.324 55.3341 206.273 55.0041 206.171C54.6741 206.063 54.3891 205.904 54.1491 205.694C53.9091 205.484 53.7231 205.223 53.5911 204.911C53.4591 204.599 53.3931 204.236 53.3931 203.822C53.3931 203.588 53.4321 203.357 53.5101 203.129C53.5881 202.895 53.7141 202.673 53.8881 202.463C54.0681 202.253 54.2991 202.055 54.5811 201.869C54.8631 201.683 55.2081 201.521 55.6161 201.383C56.0301 201.245 56.5101 201.134 57.0561 201.05C57.6021 200.96 58.2261 200.906 58.9281 200.888V200.348C58.9281 199.73 58.7961 199.274 58.5321 198.98C58.2681 198.68 57.8871 198.53 57.3891 198.53C57.0291 198.53 56.7291 198.572 56.4891 198.656C56.2551 198.74 56.0481 198.836 55.8681 198.944C55.6881 199.046 55.5231 199.139 55.3731 199.223C55.2291 199.307 55.0671 199.349 54.8871 199.349C54.7311 199.349 54.5991 199.31 54.4911 199.232C54.3831 199.148 54.2961 199.052 54.2301 198.944L53.8341 198.233ZM68.8248 198.746C68.7648 198.842 68.7018 198.911 68.6358 198.953C68.5698 198.989 68.4858 199.007 68.3838 199.007C68.2758 199.007 68.1588 198.977 68.0328 198.917C67.9128 198.857 67.7718 198.791 67.6098 198.719C67.4478 198.641 67.2618 198.572 67.0518 198.512C66.8478 198.452 66.6048 198.422 66.3228 198.422C65.8848 198.422 65.5398 198.515 65.2878 198.701C65.0418 198.887 64.9188 199.13 64.9188 199.43C64.9188 199.628 64.9818 199.796 65.1078 199.934C65.2398 200.066 65.4108 200.183 65.6208 200.285C65.8368 200.387 66.0798 200.48 66.3498 200.564C66.6198 200.642 66.8928 200.729 67.1688 200.825C67.4508 200.921 67.7268 201.032 67.9968 201.158C68.2668 201.278 68.5068 201.434 68.7168 201.626C68.9328 201.812 69.1038 202.037 69.2298 202.301C69.3618 202.565 69.4278 202.883 69.4278 203.255C69.4278 203.699 69.3468 204.11 69.1848 204.488C69.0288 204.86 68.7948 205.184 68.4828 205.46C68.1708 205.73 67.7838 205.943 67.3218 206.099C66.8658 206.249 66.3378 206.324 65.7378 206.324C65.4198 206.324 65.1078 206.294 64.8018 206.234C64.5018 206.18 64.2108 206.102 63.9288 206C63.6528 205.898 63.3948 205.778 63.1548 205.64C62.9208 205.502 62.7138 205.352 62.5338 205.19L63.0468 204.344C63.1128 204.242 63.1908 204.164 63.2808 204.11C63.3708 204.056 63.4848 204.029 63.6228 204.029C63.7608 204.029 63.8898 204.068 64.0098 204.146C64.1358 204.224 64.2798 204.308 64.4418 204.398C64.6038 204.488 64.7928 204.572 65.0088 204.65C65.2308 204.728 65.5098 204.767 65.8458 204.767C66.1098 204.767 66.3348 204.737 66.5208 204.677C66.7128 204.611 66.8688 204.527 66.9888 204.425C67.1148 204.323 67.2048 204.206 67.2588 204.074C67.3188 203.936 67.3488 203.795 67.3488 203.651C67.3488 203.435 67.2828 203.258 67.1508 203.12C67.0248 202.982 66.8538 202.862 66.6378 202.76C66.4278 202.658 66.1848 202.568 65.9088 202.49C65.6388 202.406 65.3598 202.316 65.0718 202.22C64.7898 202.124 64.5108 202.013 64.2348 201.887C63.9648 201.755 63.7218 201.59 63.5058 201.392C63.2958 201.194 63.1248 200.951 62.9928 200.663C62.8668 200.375 62.8038 200.027 62.8038 199.619C62.8038 199.241 62.8788 198.881 63.0288 198.539C63.1788 198.197 63.3978 197.9 63.6858 197.648C63.9798 197.39 64.3428 197.186 64.7748 197.036C65.2128 196.88 65.7168 196.802 66.2868 196.802C66.9228 196.802 67.5018 196.907 68.0238 197.117C68.5458 197.327 68.9808 197.603 69.3288 197.945L68.8248 198.746ZM77.0499 200.501C77.0499 200.213 77.0079 199.943 76.9239 199.691C76.8459 199.433 76.7259 199.208 76.5639 199.016C76.4019 198.824 76.1949 198.674 75.9429 198.566C75.6969 198.452 75.4089 198.395 75.0789 198.395C74.4369 198.395 73.9299 198.578 73.5579 198.944C73.1919 199.31 72.9579 199.829 72.8559 200.501H77.0499ZM72.8109 201.842C72.8469 202.316 72.9309 202.727 73.0629 203.075C73.1949 203.417 73.3689 203.702 73.5849 203.93C73.8009 204.152 74.0559 204.32 74.3499 204.434C74.6499 204.542 74.9799 204.596 75.3399 204.596C75.6999 204.596 76.0089 204.554 76.2669 204.47C76.5309 204.386 76.7589 204.293 76.9509 204.191C77.1489 204.089 77.3199 203.996 77.4639 203.912C77.6139 203.828 77.7579 203.786 77.8959 203.786C78.0819 203.786 78.2199 203.855 78.3099 203.993L78.9489 204.803C78.7029 205.091 78.4269 205.334 78.1209 205.532C77.8149 205.724 77.4939 205.88 77.1579 206C76.8279 206.114 76.4889 206.195 76.1409 206.243C75.7989 206.291 75.4659 206.315 75.1419 206.315C74.4999 206.315 73.9029 206.21 73.3509 206C72.7989 205.784 72.3189 205.469 71.9109 205.055C71.5029 204.635 71.1819 204.119 70.9479 203.507C70.7139 202.889 70.5969 202.175 70.5969 201.365C70.5969 200.735 70.6989 200.144 70.9029 199.592C71.1069 199.034 71.3979 198.551 71.7759 198.143C72.1599 197.729 72.6249 197.402 73.1709 197.162C73.7229 196.922 74.3439 196.802 75.0339 196.802C75.6159 196.802 76.1529 196.895 76.6449 197.081C77.1369 197.267 77.5599 197.54 77.9139 197.9C78.2679 198.254 78.5439 198.692 78.7419 199.214C78.9459 199.73 79.0479 200.321 79.0479 200.987C79.0479 201.323 79.0119 201.551 78.9399 201.671C78.8679 201.785 78.7299 201.842 78.5259 201.842H72.8109ZM87.1901 198.548C87.4781 197.996 87.8201 197.564 88.2161 197.252C88.6121 196.934 89.0801 196.775 89.6201 196.775C90.0461 196.775 90.3881 196.868 90.6461 197.054L90.5021 198.719C90.4721 198.827 90.4271 198.905 90.3671 198.953C90.3131 198.995 90.2381 199.016 90.1421 199.016C90.0521 199.016 89.9171 199.001 89.7371 198.971C89.5631 198.941 89.3921 198.926 89.2241 198.926C88.9781 198.926 88.7591 198.962 88.5671 199.034C88.3751 199.106 88.2011 199.211 88.0451 199.349C87.8951 199.481 87.7601 199.643 87.6401 199.835C87.5261 200.027 87.4181 200.246 87.3161 200.492V206.18H85.0931V196.946H86.3981C86.6261 196.946 86.7851 196.988 86.8751 197.072C86.9651 197.15 87.0251 197.294 87.0551 197.504L87.1901 198.548ZM97.4933 200.501C97.4933 200.213 97.4513 199.943 97.3673 199.691C97.2893 199.433 97.1693 199.208 97.0073 199.016C96.8453 198.824 96.6383 198.674 96.3863 198.566C96.1403 198.452 95.8523 198.395 95.5223 198.395C94.8803 198.395 94.3733 198.578 94.0013 198.944C93.6353 199.31 93.4013 199.829 93.2993 200.501H97.4933ZM93.2543 201.842C93.2903 202.316 93.3743 202.727 93.5063 203.075C93.6383 203.417 93.8123 203.702 94.0283 203.93C94.2443 204.152 94.4993 204.32 94.7933 204.434C95.0933 204.542 95.4233 204.596 95.7833 204.596C96.1433 204.596 96.4523 204.554 96.7103 204.47C96.9743 204.386 97.2023 204.293 97.3943 204.191C97.5923 204.089 97.7633 203.996 97.9073 203.912C98.0573 203.828 98.2013 203.786 98.3393 203.786C98.5253 203.786 98.6633 203.855 98.7533 203.993L99.3923 204.803C99.1463 205.091 98.8703 205.334 98.5643 205.532C98.2583 205.724 97.9373 205.88 97.6013 206C97.2713 206.114 96.9323 206.195 96.5843 206.243C96.2423 206.291 95.9093 206.315 95.5853 206.315C94.9433 206.315 94.3463 206.21 93.7943 206C93.2423 205.784 92.7623 205.469 92.3543 205.055C91.9463 204.635 91.6253 204.119 91.3913 203.507C91.1573 202.889 91.0403 202.175 91.0403 201.365C91.0403 200.735 91.1423 200.144 91.3463 199.592C91.5503 199.034 91.8413 198.551 92.2193 198.143C92.6033 197.729 93.0683 197.402 93.6143 197.162C94.1663 196.922 94.7873 196.802 95.4773 196.802C96.0593 196.802 96.5963 196.895 97.0883 197.081C97.5803 197.267 98.0033 197.54 98.3573 197.9C98.7113 198.254 98.9873 198.692 99.1853 199.214C99.3893 199.73 99.4913 200.321 99.4913 200.987C99.4913 201.323 99.4553 201.551 99.3833 201.671C99.3113 201.785 99.1733 201.842 98.9693 201.842H93.2543ZM104.15 206.324C103.346 206.324 102.728 206.099 102.296 205.649C101.87 205.193 101.657 204.566 101.657 203.768V198.611H100.712C100.592 198.611 100.49 198.572 100.406 198.494C100.322 198.416 100.28 198.299 100.28 198.143V197.261L101.765 197.018L102.233 194.498C102.263 194.378 102.32 194.285 102.404 194.219C102.488 194.153 102.596 194.12 102.728 194.12H103.88V197.027H106.346V198.611H103.88V203.615C103.88 203.903 103.949 204.128 104.087 204.29C104.231 204.452 104.426 204.533 104.672 204.533C104.81 204.533 104.924 204.518 105.014 204.488C105.11 204.452 105.191 204.416 105.257 204.38C105.329 204.344 105.392 204.311 105.446 204.281C105.5 204.245 105.554 204.227 105.608 204.227C105.674 204.227 105.728 204.245 105.77 204.281C105.812 204.311 105.857 204.359 105.905 204.425L106.571 205.505C106.247 205.775 105.875 205.979 105.455 206.117C105.035 206.255 104.6 206.324 104.15 206.324ZM109.866 198.548C110.154 197.996 110.496 197.564 110.892 197.252C111.288 196.934 111.756 196.775 112.296 196.775C112.722 196.775 113.064 196.868 113.322 197.054L113.178 198.719C113.148 198.827 113.103 198.905 113.043 198.953C112.989 198.995 112.914 199.016 112.818 199.016C112.728 199.016 112.593 199.001 112.413 198.971C112.239 198.941 112.068 198.926 111.9 198.926C111.654 198.926 111.435 198.962 111.243 199.034C111.051 199.106 110.877 199.211 110.721 199.349C110.571 199.481 110.436 199.643 110.316 199.835C110.202 200.027 110.094 200.246 109.992 200.492V206.18H107.769V196.946H109.074C109.302 196.946 109.461 196.988 109.551 197.072C109.641 197.15 109.701 197.294 109.731 197.504L109.866 198.548ZM122.872 196.946L117.841 208.718C117.775 208.874 117.688 208.991 117.58 209.069C117.478 209.153 117.319 209.195 117.103 209.195H115.447L117.175 205.487L113.44 196.946H115.393C115.567 196.946 115.702 196.988 115.798 197.072C115.9 197.156 115.975 197.252 116.023 197.36L117.985 202.148C118.051 202.31 118.105 202.472 118.147 202.634C118.195 202.796 118.24 202.961 118.282 203.129C118.336 202.961 118.39 202.796 118.444 202.634C118.498 202.466 118.558 202.301 118.624 202.139L120.478 197.36C120.526 197.24 120.604 197.141 120.712 197.063C120.826 196.985 120.952 196.946 121.09 196.946H122.872ZM130.146 192.806V206.18H127.923V192.806H130.146ZM137.239 202.238C136.597 202.268 136.057 202.325 135.619 202.409C135.181 202.487 134.83 202.589 134.566 202.715C134.302 202.841 134.113 202.988 133.999 203.156C133.885 203.324 133.828 203.507 133.828 203.705C133.828 204.095 133.942 204.374 134.17 204.542C134.404 204.71 134.707 204.794 135.079 204.794C135.535 204.794 135.928 204.713 136.258 204.551C136.594 204.383 136.921 204.131 137.239 203.795V202.238ZM132.145 198.233C133.207 197.261 134.485 196.775 135.979 196.775C136.519 196.775 137.002 196.865 137.428 197.045C137.854 197.219 138.214 197.465 138.508 197.783C138.802 198.095 139.024 198.47 139.174 198.908C139.33 199.346 139.408 199.826 139.408 200.348V206.18H138.4C138.19 206.18 138.028 206.15 137.914 206.09C137.8 206.024 137.71 205.895 137.644 205.703L137.446 205.037C137.212 205.247 136.984 205.433 136.762 205.595C136.54 205.751 136.309 205.883 136.069 205.991C135.829 206.099 135.571 206.18 135.295 206.234C135.025 206.294 134.725 206.324 134.395 206.324C134.005 206.324 133.645 206.273 133.315 206.171C132.985 206.063 132.7 205.904 132.46 205.694C132.22 205.484 132.034 205.223 131.902 204.911C131.77 204.599 131.704 204.236 131.704 203.822C131.704 203.588 131.743 203.357 131.821 203.129C131.899 202.895 132.025 202.673 132.199 202.463C132.379 202.253 132.61 202.055 132.892 201.869C133.174 201.683 133.519 201.521 133.927 201.383C134.341 201.245 134.821 201.134 135.367 201.05C135.913 200.96 136.537 200.906 137.239 200.888V200.348C137.239 199.73 137.107 199.274 136.843 198.98C136.579 198.68 136.198 198.53 135.7 198.53C135.34 198.53 135.04 198.572 134.8 198.656C134.566 198.74 134.359 198.836 134.179 198.944C133.999 199.046 133.834 199.139 133.684 199.223C133.54 199.307 133.378 199.349 133.198 199.349C133.042 199.349 132.91 199.31 132.802 199.232C132.694 199.148 132.607 199.052 132.541 198.944L132.145 198.233ZM144.456 206.324C143.652 206.324 143.034 206.099 142.602 205.649C142.176 205.193 141.963 204.566 141.963 203.768V198.611H141.018C140.898 198.611 140.796 198.572 140.712 198.494C140.628 198.416 140.586 198.299 140.586 198.143V197.261L142.071 197.018L142.539 194.498C142.569 194.378 142.626 194.285 142.71 194.219C142.794 194.153 142.902 194.12 143.034 194.12H144.186V197.027H146.652V198.611H144.186V203.615C144.186 203.903 144.255 204.128 144.393 204.29C144.537 204.452 144.732 204.533 144.978 204.533C145.116 204.533 145.23 204.518 145.32 204.488C145.416 204.452 145.497 204.416 145.563 204.38C145.635 204.344 145.698 204.311 145.752 204.281C145.806 204.245 145.86 204.227 145.914 204.227C145.98 204.227 146.034 204.245 146.076 204.281C146.118 204.311 146.163 204.359 146.211 204.425L146.877 205.505C146.553 205.775 146.181 205.979 145.761 206.117C145.341 206.255 144.906 206.324 144.456 206.324ZM153.954 200.501C153.954 200.213 153.912 199.943 153.828 199.691C153.75 199.433 153.63 199.208 153.468 199.016C153.306 198.824 153.099 198.674 152.847 198.566C152.601 198.452 152.313 198.395 151.983 198.395C151.341 198.395 150.834 198.578 150.462 198.944C150.096 199.31 149.862 199.829 149.76 200.501H153.954ZM149.715 201.842C149.751 202.316 149.835 202.727 149.967 203.075C150.099 203.417 150.273 203.702 150.489 203.93C150.705 204.152 150.96 204.32 151.254 204.434C151.554 204.542 151.884 204.596 152.244 204.596C152.604 204.596 152.913 204.554 153.171 204.47C153.435 204.386 153.663 204.293 153.855 204.191C154.053 204.089 154.224 203.996 154.368 203.912C154.518 203.828 154.662 203.786 154.8 203.786C154.986 203.786 155.124 203.855 155.214 203.993L155.853 204.803C155.607 205.091 155.331 205.334 155.025 205.532C154.719 205.724 154.398 205.88 154.062 206C153.732 206.114 153.393 206.195 153.045 206.243C152.703 206.291 152.37 206.315 152.046 206.315C151.404 206.315 150.807 206.21 150.255 206C149.703 205.784 149.223 205.469 148.815 205.055C148.407 204.635 148.086 204.119 147.852 203.507C147.618 202.889 147.501 202.175 147.501 201.365C147.501 200.735 147.603 200.144 147.807 199.592C148.011 199.034 148.302 198.551 148.68 198.143C149.064 197.729 149.529 197.402 150.075 197.162C150.627 196.922 151.248 196.802 151.938 196.802C152.52 196.802 153.057 196.895 153.549 197.081C154.041 197.267 154.464 197.54 154.818 197.9C155.172 198.254 155.448 198.692 155.646 199.214C155.85 199.73 155.952 200.321 155.952 200.987C155.952 201.323 155.916 201.551 155.844 201.671C155.772 201.785 155.634 201.842 155.43 201.842H149.715ZM159.717 198.548C160.005 197.996 160.347 197.564 160.743 197.252C161.139 196.934 161.607 196.775 162.147 196.775C162.573 196.775 162.915 196.868 163.173 197.054L163.029 198.719C162.999 198.827 162.954 198.905 162.894 198.953C162.84 198.995 162.765 199.016 162.669 199.016C162.579 199.016 162.444 199.001 162.264 198.971C162.09 198.941 161.919 198.926 161.751 198.926C161.505 198.926 161.286 198.962 161.094 199.034C160.902 199.106 160.728 199.211 160.572 199.349C160.422 199.481 160.287 199.643 160.167 199.835C160.053 200.027 159.945 200.246 159.843 200.492V206.18H157.62V196.946H158.925C159.153 196.946 159.312 196.988 159.402 197.072C159.492 197.15 159.552 197.294 159.582 197.504L159.717 198.548Z" fill="#E76F51" fill-opacity="0.75"/>
<path d="M117.5 85.9317C117.5 98.1308 107.826 107.932 96 107.932C84.1742 107.932 74.5 98.1308 74.5 85.9317C74.5 73.7326 84.1742 63.9317 96 63.9317C107.826 63.9317 117.5 73.7326 117.5 85.9317Z" stroke="#E76F51" stroke-opacity="0.75" stroke-width="5"/>
<rect x="120" y="3.96721" width="5" height="61.8718" transform="rotate(-45 120 3.96721)" fill="#E76F51" fill-opacity="0.75"/>
<rect x="163.75" width="5" height="61.8718" transform="rotate(45 163.75 0)" fill="#E76F51" fill-opacity="0.75"/>
</svg>
