<svg width="191" height="189" viewBox="0 0 191 189" fill="none" xmlns="http://www.w3.org/2000/svg">
<path d="M59 95.4996C87.9995 66.5 107.5 121.5 133.5 95.4996" stroke="#ED937C" stroke-width="7"/>
<line x1="66" y1="45" x2="66" y2="1.5299e-07" stroke="#ED937C" stroke-width="7"/>
<line x1="124" y1="45" x2="124" y2="1.5299e-07" stroke="#ED937C" stroke-width="7"/>
<path d="M21.3653 149.986V163H20.1233C19.9313 163 19.7693 162.97 19.6373 162.91C19.5113 162.844 19.3883 162.736 19.2683 162.586L12.4733 153.91C12.5093 154.306 12.5273 154.672 12.5273 155.008V163H10.3943V149.986H11.6633C11.7653 149.986 11.8523 149.992 11.9243 150.004C12.0023 150.01 12.0683 150.028 12.1223 150.058C12.1823 150.082 12.2393 150.121 12.2933 150.175C12.3473 150.223 12.4073 150.289 12.4733 150.373L19.2953 159.085C19.2773 158.875 19.2623 158.668 19.2503 158.464C19.2383 158.26 19.2323 158.071 19.2323 157.897V149.986H21.3653ZM27.7172 153.622C28.4012 153.622 29.0222 153.733 29.5802 153.955C30.1442 154.177 30.6242 154.492 31.0202 154.9C31.4222 155.308 31.7312 155.806 31.9472 156.394C32.1632 156.982 32.2712 157.639 32.2712 158.365C32.2712 159.097 32.1632 159.757 31.9472 160.345C31.7312 160.933 31.4222 161.434 31.0202 161.848C30.6242 162.262 30.1442 162.58 29.5802 162.802C29.0222 163.024 28.4012 163.135 27.7172 163.135C27.0272 163.135 26.4002 163.024 25.8362 162.802C25.2722 162.58 24.7892 162.262 24.3872 161.848C23.9912 161.434 23.6822 160.933 23.4602 160.345C23.2442 159.757 23.1362 159.097 23.1362 158.365C23.1362 157.639 23.2442 156.982 23.4602 156.394C23.6822 155.806 23.9912 155.308 24.3872 154.9C24.7892 154.492 25.2722 154.177 25.8362 153.955C26.4002 153.733 27.0272 153.622 27.7172 153.622ZM27.7172 161.425C28.4852 161.425 29.0522 161.167 29.4182 160.651C29.7902 160.135 29.9762 159.379 29.9762 158.383C29.9762 157.387 29.7902 156.628 29.4182 156.106C29.0522 155.584 28.4852 155.323 27.7172 155.323C26.9372 155.323 26.3582 155.587 25.9802 156.115C25.6082 156.637 25.4222 157.393 25.4222 158.383C25.4222 159.373 25.6082 160.129 25.9802 160.651C26.3582 161.167 26.9372 161.425 27.7172 161.425ZM36.8694 163.144C36.0654 163.144 35.4474 162.919 35.0154 162.469C34.5894 162.013 34.3764 161.386 34.3764 160.588V155.431H33.4314C33.3114 155.431 33.2094 155.392 33.1254 155.314C33.0414 155.236 32.9994 155.119 32.9994 154.963V154.081L34.4844 153.838L34.9524 151.318C34.9824 151.198 35.0394 151.105 35.1234 151.039C35.2074 150.973 35.3154 150.94 35.4474 150.94H36.5994V153.847H39.0654V155.431H36.5994V160.435C36.5994 160.723 36.6684 160.948 36.8064 161.11C36.9504 161.272 37.1454 161.353 37.3914 161.353C37.5294 161.353 37.6434 161.338 37.7334 161.308C37.8294 161.272 37.9104 161.236 37.9764 161.2C38.0484 161.164 38.1114 161.131 38.1654 161.101C38.2194 161.065 38.2734 161.047 38.3274 161.047C38.3934 161.047 38.4474 161.065 38.4894 161.101C38.5314 161.131 38.5764 161.179 38.6244 161.245L39.2904 162.325C38.9664 162.595 38.5944 162.799 38.1744 162.937C37.7544 163.075 37.3194 163.144 36.8694 163.144ZM42.7116 154.756C43.0716 154.42 43.4676 154.147 43.8996 153.937C44.3316 153.727 44.8386 153.622 45.4206 153.622C45.9246 153.622 46.3716 153.709 46.7616 153.883C47.1516 154.051 47.4756 154.291 47.7336 154.603C47.9976 154.909 48.1956 155.278 48.3276 155.71C48.4656 156.136 48.5346 156.607 48.5346 157.123V163H46.3116V157.123C46.3116 156.559 46.1826 156.124 45.9246 155.818C45.6666 155.506 45.2736 155.35 44.7456 155.35C44.3616 155.35 44.0016 155.437 43.6656 155.611C43.3296 155.785 43.0116 156.022 42.7116 156.322V163H40.4886V149.626H42.7116V154.756ZM52.9528 153.766V163H50.7208V153.766H52.9528ZM53.2588 151.075C53.2588 151.267 53.2198 151.447 53.1418 151.615C53.0638 151.783 52.9588 151.93 52.8268 152.056C52.7008 152.182 52.5508 152.284 52.3768 152.362C52.2028 152.434 52.0168 152.47 51.8188 152.47C51.6268 152.47 51.4438 152.434 51.2698 152.362C51.1018 152.284 50.9548 152.182 50.8288 152.056C50.7028 151.93 50.6008 151.783 50.5228 151.615C50.4508 151.447 50.4148 151.267 50.4148 151.075C50.4148 150.877 50.4508 150.691 50.5228 150.517C50.6008 150.343 50.7028 150.193 50.8288 150.067C50.9548 149.941 51.1018 149.842 51.2698 149.77C51.4438 149.692 51.6268 149.653 51.8188 149.653C52.0168 149.653 52.2028 149.692 52.3768 149.77C52.5508 149.842 52.7008 149.941 52.8268 150.067C52.9588 150.193 53.0638 150.343 53.1418 150.517C53.2198 150.691 53.2588 150.877 53.2588 151.075ZM57.2981 154.9C57.4841 154.714 57.6791 154.543 57.8831 154.387C58.0931 154.225 58.3121 154.09 58.5401 153.982C58.7741 153.868 59.0231 153.781 59.2871 153.721C59.5511 153.655 59.8391 153.622 60.1511 153.622C60.6551 153.622 61.1021 153.709 61.4921 153.883C61.8821 154.051 62.2061 154.291 62.4641 154.603C62.7281 154.909 62.9261 155.278 63.0581 155.71C63.1961 156.136 63.2651 156.607 63.2651 157.123V163H61.0421V157.123C61.0421 156.559 60.9131 156.124 60.6551 155.818C60.3971 155.506 60.0041 155.35 59.4761 155.35C59.0921 155.35 58.7321 155.437 58.3961 155.611C58.0601 155.785 57.7421 156.022 57.4421 156.322V163H55.2191V153.766H56.5781C56.8661 153.766 57.0551 153.901 57.1451 154.171L57.2981 154.9ZM68.7543 158.158C69.0303 158.158 69.2703 158.122 69.4743 158.05C69.6783 157.972 69.8463 157.867 69.9783 157.735C70.1163 157.603 70.2183 157.444 70.2843 157.258C70.3563 157.072 70.3923 156.868 70.3923 156.646C70.3923 156.19 70.2543 155.83 69.9783 155.566C69.7083 155.296 69.3003 155.161 68.7543 155.161C68.2083 155.161 67.7973 155.296 67.5213 155.566C67.2513 155.83 67.1163 156.19 67.1163 156.646C67.1163 156.862 67.1493 157.063 67.2153 157.249C67.2873 157.435 67.3893 157.597 67.5213 157.735C67.6593 157.867 67.8303 157.972 68.0343 158.05C68.2443 158.122 68.4843 158.158 68.7543 158.158ZM71.2653 163.414C71.2653 163.234 71.2113 163.087 71.1033 162.973C70.9953 162.859 70.8483 162.772 70.6623 162.712C70.4763 162.646 70.2573 162.598 70.0053 162.568C69.7593 162.538 69.4953 162.517 69.2133 162.505C68.9373 162.487 68.6493 162.472 68.3493 162.46C68.0553 162.448 67.7673 162.424 67.4853 162.388C67.2393 162.526 67.0383 162.688 66.8823 162.874C66.7323 163.06 66.6572 163.276 66.6572 163.522C66.6572 163.684 66.6963 163.834 66.7743 163.972C66.8583 164.116 66.9873 164.239 67.1613 164.341C67.3413 164.443 67.5723 164.521 67.8543 164.575C68.1363 164.635 68.4813 164.665 68.8893 164.665C69.3033 164.665 69.6603 164.632 69.9603 164.566C70.2603 164.506 70.5063 164.419 70.6983 164.305C70.8963 164.197 71.0403 164.065 71.1303 163.909C71.2203 163.759 71.2653 163.594 71.2653 163.414ZM73.4793 154.081V154.909C73.4793 155.173 73.3203 155.335 73.0023 155.395L72.1743 155.548C72.3003 155.866 72.3633 156.214 72.3633 156.592C72.3633 157.048 72.2703 157.462 72.0843 157.834C71.9043 158.2 71.6523 158.512 71.3283 158.77C71.0043 159.028 70.6203 159.229 70.1763 159.373C69.7383 159.511 69.2643 159.58 68.7543 159.58C68.5743 159.58 68.4003 159.571 68.2323 159.553C68.0643 159.535 67.8993 159.511 67.7373 159.481C67.4493 159.655 67.3053 159.85 67.3053 160.066C67.3053 160.252 67.3893 160.39 67.5573 160.48C67.7313 160.564 67.9593 160.624 68.2413 160.66C68.5233 160.696 68.8443 160.72 69.2043 160.732C69.5643 160.738 69.9333 160.756 70.3113 160.786C70.6893 160.816 71.0583 160.87 71.4183 160.948C71.7783 161.02 72.0993 161.137 72.3813 161.299C72.6633 161.461 72.8883 161.683 73.0563 161.965C73.2303 162.241 73.3173 162.598 73.3173 163.036C73.3173 163.444 73.2153 163.84 73.0113 164.224C72.8133 164.608 72.5223 164.95 72.1383 165.25C71.7603 165.55 71.2923 165.79 70.7343 165.97C70.1823 166.156 69.5523 166.249 68.8443 166.249C68.1483 166.249 67.5423 166.18 67.0263 166.042C66.5103 165.91 66.0813 165.73 65.7393 165.502C65.3973 165.28 65.1423 165.022 64.9743 164.728C64.8063 164.434 64.7223 164.128 64.7223 163.81C64.7223 163.378 64.8513 163.018 65.1093 162.73C65.3733 162.436 65.7333 162.202 66.1893 162.028C65.9433 161.902 65.7483 161.734 65.6042 161.524C65.4603 161.314 65.3883 161.038 65.3883 160.696C65.3883 160.558 65.4123 160.417 65.4603 160.273C65.5143 160.123 65.5893 159.976 65.6853 159.832C65.7873 159.688 65.9133 159.553 66.0633 159.427C66.2133 159.295 66.3903 159.178 66.5942 159.076C66.1263 158.824 65.7573 158.488 65.4873 158.068C65.2233 157.648 65.0913 157.156 65.0913 156.592C65.0913 156.136 65.1813 155.725 65.3613 155.359C65.5473 154.987 65.8023 154.672 66.1263 154.414C66.4563 154.15 66.8433 153.949 67.2873 153.811C67.7373 153.673 68.2263 153.604 68.7543 153.604C69.1503 153.604 69.5223 153.646 69.8703 153.73C70.2183 153.808 70.5363 153.925 70.8243 154.081H73.4793ZM82.344 163.144C81.54 163.144 80.922 162.919 80.49 162.469C80.064 162.013 79.851 161.386 79.851 160.588V155.431H78.906C78.786 155.431 78.684 155.392 78.6 155.314C78.516 155.236 78.474 155.119 78.474 154.963V154.081L79.959 153.838L80.427 151.318C80.457 151.198 80.514 151.105 80.598 151.039C80.682 150.973 80.79 150.94 80.922 150.94H82.074V153.847H84.54V155.431H82.074V160.435C82.074 160.723 82.143 160.948 82.281 161.11C82.425 161.272 82.62 161.353 82.866 161.353C83.004 161.353 83.118 161.338 83.208 161.308C83.304 161.272 83.385 161.236 83.451 161.2C83.523 161.164 83.586 161.131 83.64 161.101C83.694 161.065 83.748 161.047 83.802 161.047C83.868 161.047 83.922 161.065 83.964 161.101C84.006 161.131 84.051 161.179 84.099 161.245L84.765 162.325C84.441 162.595 84.069 162.799 83.649 162.937C83.229 163.075 82.794 163.144 82.344 163.144ZM89.9789 153.622C90.6629 153.622 91.2839 153.733 91.8419 153.955C92.4059 154.177 92.8859 154.492 93.2819 154.9C93.6839 155.308 93.9929 155.806 94.2089 156.394C94.4249 156.982 94.5329 157.639 94.5329 158.365C94.5329 159.097 94.4249 159.757 94.2089 160.345C93.9929 160.933 93.6839 161.434 93.2819 161.848C92.8859 162.262 92.4059 162.58 91.8419 162.802C91.2839 163.024 90.6629 163.135 89.9789 163.135C89.2889 163.135 88.6619 163.024 88.0979 162.802C87.5339 162.58 87.0509 162.262 86.6489 161.848C86.2529 161.434 85.9439 160.933 85.7219 160.345C85.5059 159.757 85.3979 159.097 85.3979 158.365C85.3979 157.639 85.5059 156.982 85.7219 156.394C85.9439 155.806 86.2529 155.308 86.6489 154.9C87.0509 154.492 87.5339 154.177 88.0979 153.955C88.6619 153.733 89.2889 153.622 89.9789 153.622ZM89.9789 161.425C90.7469 161.425 91.3139 161.167 91.6799 160.651C92.0519 160.135 92.2379 159.379 92.2379 158.383C92.2379 157.387 92.0519 156.628 91.6799 156.106C91.3139 155.584 90.7469 155.323 89.9789 155.323C89.1989 155.323 88.6199 155.587 88.2419 156.115C87.8699 156.637 87.6839 157.393 87.6839 158.383C87.6839 159.373 87.8699 160.129 88.2419 160.651C88.6199 161.167 89.1989 161.425 89.9789 161.425ZM106.24 155.566C106.18 155.662 106.117 155.731 106.051 155.773C105.985 155.809 105.901 155.827 105.799 155.827C105.691 155.827 105.574 155.797 105.448 155.737C105.328 155.677 105.187 155.611 105.025 155.539C104.863 155.461 104.677 155.392 104.467 155.332C104.263 155.272 104.02 155.242 103.738 155.242C103.3 155.242 102.955 155.335 102.703 155.521C102.457 155.707 102.334 155.95 102.334 156.25C102.334 156.448 102.397 156.616 102.523 156.754C102.655 156.886 102.826 157.003 103.036 157.105C103.252 157.207 103.495 157.3 103.765 157.384C104.035 157.462 104.308 157.549 104.584 157.645C104.866 157.741 105.142 157.852 105.412 157.978C105.682 158.098 105.922 158.254 106.132 158.446C106.348 158.632 106.519 158.857 106.645 159.121C106.777 159.385 106.843 159.703 106.843 160.075C106.843 160.519 106.762 160.93 106.6 161.308C106.444 161.68 106.21 162.004 105.898 162.28C105.586 162.55 105.199 162.763 104.737 162.919C104.281 163.069 103.753 163.144 103.153 163.144C102.835 163.144 102.523 163.114 102.217 163.054C101.917 163 101.626 162.922 101.344 162.82C101.068 162.718 100.81 162.598 100.57 162.46C100.336 162.322 100.129 162.172 99.9488 162.01L100.462 161.164C100.528 161.062 100.606 160.984 100.696 160.93C100.786 160.876 100.9 160.849 101.038 160.849C101.176 160.849 101.305 160.888 101.425 160.966C101.551 161.044 101.695 161.128 101.857 161.218C102.019 161.308 102.208 161.392 102.424 161.47C102.646 161.548 102.925 161.587 103.261 161.587C103.525 161.587 103.75 161.557 103.936 161.497C104.128 161.431 104.284 161.347 104.404 161.245C104.53 161.143 104.62 161.026 104.674 160.894C104.734 160.756 104.764 160.615 104.764 160.471C104.764 160.255 104.698 160.078 104.566 159.94C104.44 159.802 104.269 159.682 104.053 159.58C103.843 159.478 103.6 159.388 103.324 159.31C103.054 159.226 102.775 159.136 102.487 159.04C102.205 158.944 101.926 158.833 101.65 158.707C101.38 158.575 101.137 158.41 100.921 158.212C100.711 158.014 100.54 157.771 100.408 157.483C100.282 157.195 100.219 156.847 100.219 156.439C100.219 156.061 100.294 155.701 100.444 155.359C100.594 155.017 100.813 154.72 101.101 154.468C101.395 154.21 101.758 154.006 102.19 153.856C102.628 153.7 103.132 153.622 103.702 153.622C104.338 153.622 104.917 153.727 105.439 153.937C105.961 154.147 106.396 154.423 106.744 154.765L106.24 155.566ZM110.739 154.756C111.099 154.42 111.495 154.147 111.927 153.937C112.359 153.727 112.866 153.622 113.448 153.622C113.952 153.622 114.399 153.709 114.789 153.883C115.179 154.051 115.503 154.291 115.761 154.603C116.025 154.909 116.223 155.278 116.355 155.71C116.493 156.136 116.562 156.607 116.562 157.123V163H114.339V157.123C114.339 156.559 114.21 156.124 113.952 155.818C113.694 155.506 113.301 155.35 112.773 155.35C112.389 155.35 112.029 155.437 111.693 155.611C111.357 155.785 111.039 156.022 110.739 156.322V163H108.516V149.626H110.739V154.756ZM122.762 153.622C123.446 153.622 124.067 153.733 124.625 153.955C125.189 154.177 125.669 154.492 126.065 154.9C126.467 155.308 126.776 155.806 126.992 156.394C127.208 156.982 127.316 157.639 127.316 158.365C127.316 159.097 127.208 159.757 126.992 160.345C126.776 160.933 126.467 161.434 126.065 161.848C125.669 162.262 125.189 162.58 124.625 162.802C124.067 163.024 123.446 163.135 122.762 163.135C122.072 163.135 121.445 163.024 120.881 162.802C120.317 162.58 119.834 162.262 119.432 161.848C119.036 161.434 118.727 160.933 118.505 160.345C118.289 159.757 118.181 159.097 118.181 158.365C118.181 157.639 118.289 156.982 118.505 156.394C118.727 155.806 119.036 155.308 119.432 154.9C119.834 154.492 120.317 154.177 120.881 153.955C121.445 153.733 122.072 153.622 122.762 153.622ZM122.762 161.425C123.53 161.425 124.097 161.167 124.463 160.651C124.835 160.135 125.021 159.379 125.021 158.383C125.021 157.387 124.835 156.628 124.463 156.106C124.097 155.584 123.53 155.323 122.762 155.323C121.982 155.323 121.403 155.587 121.025 156.115C120.653 156.637 120.467 157.393 120.467 158.383C120.467 159.373 120.653 160.129 121.025 160.651C121.403 161.167 121.982 161.425 122.762 161.425ZM142.039 153.766L139.105 163H137.323C137.119 163 136.978 162.868 136.9 162.604L135.244 157.267C135.19 157.087 135.139 156.91 135.091 156.736C135.049 156.556 135.013 156.376 134.983 156.196C134.947 156.376 134.905 156.559 134.857 156.745C134.815 156.925 134.767 157.105 134.713 157.285L133.03 162.604C132.958 162.868 132.799 163 132.553 163H130.843L127.918 153.766H129.691C129.853 153.766 129.991 153.805 130.105 153.883C130.219 153.961 130.294 154.06 130.33 154.18L131.653 159.112C131.719 159.382 131.776 159.646 131.824 159.904C131.878 160.162 131.923 160.42 131.959 160.678C132.025 160.42 132.094 160.162 132.166 159.904C132.244 159.646 132.325 159.382 132.409 159.112L133.939 154.162C133.975 154.042 134.044 153.943 134.146 153.865C134.254 153.787 134.383 153.748 134.533 153.748H135.514C135.67 153.748 135.802 153.787 135.91 153.865C136.024 153.943 136.099 154.042 136.135 154.162L137.62 159.112C137.698 159.382 137.77 159.649 137.836 159.913C137.908 160.171 137.977 160.429 138.043 160.687C138.121 160.177 138.232 159.652 138.376 159.112L139.735 154.18C139.777 154.06 139.852 153.961 139.96 153.883C140.068 153.805 140.197 153.766 140.347 153.766H142.039ZM149.534 154.756C149.894 154.42 150.29 154.147 150.722 153.937C151.154 153.727 151.661 153.622 152.243 153.622C152.747 153.622 153.194 153.709 153.584 153.883C153.974 154.051 154.298 154.291 154.556 154.603C154.82 154.909 155.018 155.278 155.15 155.71C155.288 156.136 155.357 156.607 155.357 157.123V163H153.134V157.123C153.134 156.559 153.005 156.124 152.747 155.818C152.489 155.506 152.096 155.35 151.568 155.35C151.184 155.35 150.824 155.437 150.488 155.611C150.152 155.785 149.834 156.022 149.534 156.322V163H147.311V149.626H149.534V154.756ZM163.42 157.321C163.42 157.033 163.378 156.763 163.294 156.511C163.216 156.253 163.096 156.028 162.934 155.836C162.772 155.644 162.565 155.494 162.313 155.386C162.067 155.272 161.779 155.215 161.449 155.215C160.807 155.215 160.3 155.398 159.928 155.764C159.562 156.13 159.328 156.649 159.226 157.321H163.42ZM159.181 158.662C159.217 159.136 159.301 159.547 159.433 159.895C159.565 160.237 159.739 160.522 159.955 160.75C160.171 160.972 160.426 161.14 160.72 161.254C161.02 161.362 161.35 161.416 161.71 161.416C162.07 161.416 162.379 161.374 162.637 161.29C162.901 161.206 163.129 161.113 163.321 161.011C163.519 160.909 163.69 160.816 163.834 160.732C163.984 160.648 164.128 160.606 164.266 160.606C164.452 160.606 164.59 160.675 164.68 160.813L165.319 161.623C165.073 161.911 164.797 162.154 164.491 162.352C164.185 162.544 163.864 162.7 163.528 162.82C163.198 162.934 162.859 163.015 162.511 163.063C162.169 163.111 161.836 163.135 161.512 163.135C160.87 163.135 160.273 163.03 159.721 162.82C159.169 162.604 158.689 162.289 158.281 161.875C157.873 161.455 157.552 160.939 157.318 160.327C157.084 159.709 156.967 158.995 156.967 158.185C156.967 157.555 157.069 156.964 157.273 156.412C157.477 155.854 157.768 155.371 158.146 154.963C158.53 154.549 158.995 154.222 159.541 153.982C160.093 153.742 160.714 153.622 161.404 153.622C161.986 153.622 162.523 153.715 163.015 153.901C163.507 154.087 163.93 154.36 164.284 154.72C164.638 155.074 164.914 155.512 165.112 156.034C165.316 156.55 165.418 157.141 165.418 157.807C165.418 158.143 165.382 158.371 165.31 158.491C165.238 158.605 165.1 158.662 164.896 158.662H159.181ZM169.183 155.368C169.471 154.816 169.813 154.384 170.209 154.072C170.605 153.754 171.073 153.595 171.613 153.595C172.039 153.595 172.381 153.688 172.639 153.874L172.495 155.539C172.465 155.647 172.42 155.725 172.36 155.773C172.306 155.815 172.231 155.836 172.135 155.836C172.045 155.836 171.91 155.821 171.73 155.791C171.556 155.761 171.385 155.746 171.217 155.746C170.971 155.746 170.752 155.782 170.56 155.854C170.368 155.926 170.194 156.031 170.038 156.169C169.888 156.301 169.753 156.463 169.633 156.655C169.519 156.847 169.411 157.066 169.309 157.312V163H167.086V153.766H168.391C168.619 153.766 168.778 153.808 168.868 153.892C168.958 153.97 169.018 154.114 169.048 154.324L169.183 155.368ZM179.486 157.321C179.486 157.033 179.444 156.763 179.36 156.511C179.282 156.253 179.162 156.028 179 155.836C178.838 155.644 178.631 155.494 178.379 155.386C178.133 155.272 177.845 155.215 177.515 155.215C176.873 155.215 176.366 155.398 175.994 155.764C175.628 156.13 175.394 156.649 175.292 157.321H179.486ZM175.247 158.662C175.283 159.136 175.367 159.547 175.499 159.895C175.631 160.237 175.805 160.522 176.021 160.75C176.237 160.972 176.492 161.14 176.786 161.254C177.086 161.362 177.416 161.416 177.776 161.416C178.136 161.416 178.445 161.374 178.703 161.29C178.967 161.206 179.195 161.113 179.387 161.011C179.585 160.909 179.756 160.816 179.9 160.732C180.05 160.648 180.194 160.606 180.332 160.606C180.518 160.606 180.656 160.675 180.746 160.813L181.385 161.623C181.139 161.911 180.863 162.154 180.557 162.352C180.251 162.544 179.93 162.7 179.594 162.82C179.264 162.934 178.925 163.015 178.577 163.063C178.235 163.111 177.902 163.135 177.578 163.135C176.936 163.135 176.339 163.03 175.787 162.82C175.235 162.604 174.755 162.289 174.347 161.875C173.939 161.455 173.618 160.939 173.384 160.327C173.15 159.709 173.033 158.995 173.033 158.185C173.033 157.555 173.135 156.964 173.339 156.412C173.543 155.854 173.834 155.371 174.212 154.963C174.596 154.549 175.061 154.222 175.607 153.982C176.159 153.742 176.78 153.622 177.47 153.622C178.052 153.622 178.589 153.715 179.081 153.901C179.573 154.087 179.996 154.36 180.35 154.72C180.704 155.074 180.98 155.512 181.178 156.034C181.382 156.55 181.484 157.141 181.484 157.807C181.484 158.143 181.448 158.371 181.376 158.491C181.304 158.605 181.166 158.662 180.962 158.662H175.247ZM7.40519 179.96V185H4.99319V179.96L0.250187 171.986H2.38319C2.59319 171.986 2.75819 172.037 2.87819 172.139C3.00419 172.241 3.10919 172.37 3.19319 172.526L5.56919 176.873C5.70719 177.131 5.82719 177.374 5.92919 177.602C6.03719 177.83 6.13319 178.058 6.21719 178.286C6.29519 178.058 6.38519 177.83 6.48719 177.602C6.58919 177.374 6.70619 177.131 6.83819 176.873L9.20519 172.526C9.27119 172.394 9.37019 172.271 9.50219 172.157C9.63419 172.043 9.80219 171.986 10.0062 171.986H12.1482L7.40519 179.96ZM15.184 175.622C15.868 175.622 16.489 175.733 17.047 175.955C17.611 176.177 18.091 176.492 18.487 176.9C18.889 177.308 19.198 177.806 19.414 178.394C19.63 178.982 19.738 179.639 19.738 180.365C19.738 181.097 19.63 181.757 19.414 182.345C19.198 182.933 18.889 183.434 18.487 183.848C18.091 184.262 17.611 184.58 17.047 184.802C16.489 185.024 15.868 185.135 15.184 185.135C14.494 185.135 13.867 185.024 13.303 184.802C12.739 184.58 12.256 184.262 11.854 183.848C11.458 183.434 11.149 182.933 10.927 182.345C10.711 181.757 10.603 181.097 10.603 180.365C10.603 179.639 10.711 178.982 10.927 178.394C11.149 177.806 11.458 177.308 11.854 176.9C12.256 176.492 12.739 176.177 13.303 175.955C13.867 175.733 14.494 175.622 15.184 175.622ZM15.184 183.425C15.952 183.425 16.519 183.167 16.885 182.651C17.257 182.135 17.443 181.379 17.443 180.383C17.443 179.387 17.257 178.628 16.885 178.106C16.519 177.584 15.952 177.323 15.184 177.323C14.404 177.323 13.825 177.587 13.447 178.115C13.075 178.637 12.889 179.393 12.889 180.383C12.889 181.373 13.075 182.129 13.447 182.651C13.825 183.167 14.404 183.425 15.184 183.425ZM29.3899 175.766V185H28.0309C27.7369 185 27.5509 184.865 27.4729 184.595L27.3199 183.857C26.9419 184.241 26.5249 184.553 26.0689 184.793C25.6129 185.027 25.0759 185.144 24.4579 185.144C23.9539 185.144 23.5069 185.06 23.1169 184.892C22.7329 184.718 22.4089 184.475 22.1449 184.163C21.8809 183.851 21.6799 183.482 21.5419 183.056C21.4099 182.624 21.3439 182.15 21.3439 181.634V175.766H23.5669V181.634C23.5669 182.198 23.6959 182.636 23.9539 182.948C24.2179 183.254 24.6109 183.407 25.1329 183.407C25.5169 183.407 25.8769 183.323 26.2129 183.155C26.5489 182.981 26.8669 182.744 27.1669 182.444V175.766H29.3899ZM38.194 176.756C38.554 176.42 38.95 176.147 39.382 175.937C39.814 175.727 40.321 175.622 40.903 175.622C41.407 175.622 41.854 175.709 42.244 175.883C42.634 176.051 42.958 176.291 43.216 176.603C43.48 176.909 43.678 177.278 43.81 177.71C43.948 178.136 44.017 178.607 44.017 179.123V185H41.794V179.123C41.794 178.559 41.665 178.124 41.407 177.818C41.149 177.506 40.756 177.35 40.228 177.35C39.844 177.35 39.484 177.437 39.148 177.611C38.812 177.785 38.494 178.022 38.194 178.322V185H35.971V171.626H38.194V176.756ZM51.0092 181.058C50.3672 181.088 49.8272 181.145 49.3892 181.229C48.9512 181.307 48.6002 181.409 48.3362 181.535C48.0722 181.661 47.8832 181.808 47.7692 181.976C47.6552 182.144 47.5982 182.327 47.5982 182.525C47.5982 182.915 47.7122 183.194 47.9402 183.362C48.1742 183.53 48.4772 183.614 48.8492 183.614C49.3052 183.614 49.6982 183.533 50.0282 183.371C50.3642 183.203 50.6912 182.951 51.0092 182.615V181.058ZM45.9152 177.053C46.9772 176.081 48.2552 175.595 49.7492 175.595C50.2892 175.595 50.7722 175.685 51.1982 175.865C51.6242 176.039 51.9842 176.285 52.2782 176.603C52.5722 176.915 52.7942 177.29 52.9442 177.728C53.1002 178.166 53.1782 178.646 53.1782 179.168V185H52.1702C51.9602 185 51.7982 184.97 51.6842 184.91C51.5702 184.844 51.4802 184.715 51.4142 184.523L51.2162 183.857C50.9822 184.067 50.7542 184.253 50.5322 184.415C50.3102 184.571 50.0792 184.703 49.8392 184.811C49.5992 184.919 49.3412 185 49.0652 185.054C48.7952 185.114 48.4952 185.144 48.1652 185.144C47.7752 185.144 47.4152 185.093 47.0852 184.991C46.7552 184.883 46.4702 184.724 46.2302 184.514C45.9902 184.304 45.8042 184.043 45.6722 183.731C45.5402 183.419 45.4742 183.056 45.4742 182.642C45.4742 182.408 45.5132 182.177 45.5912 181.949C45.6692 181.715 45.7952 181.493 45.9692 181.283C46.1492 181.073 46.3802 180.875 46.6622 180.689C46.9442 180.503 47.2892 180.341 47.6972 180.203C48.1112 180.065 48.5912 179.954 49.1372 179.87C49.6832 179.78 50.3072 179.726 51.0092 179.708V179.168C51.0092 178.55 50.8772 178.094 50.6132 177.8C50.3492 177.5 49.9682 177.35 49.4702 177.35C49.1102 177.35 48.8102 177.392 48.5702 177.476C48.3362 177.56 48.1292 177.656 47.9492 177.764C47.7692 177.866 47.6042 177.959 47.4542 178.043C47.3102 178.127 47.1482 178.169 46.9682 178.169C46.8122 178.169 46.6802 178.13 46.5722 178.052C46.4642 177.968 46.3772 177.872 46.3112 177.764L45.9152 177.053ZM63.3859 175.766L59.7229 185H57.7069L54.0439 175.766H55.8799C56.0479 175.766 56.1859 175.805 56.2939 175.883C56.4079 175.961 56.4829 176.06 56.5189 176.18L58.3009 181.112C58.3969 181.4 58.4809 181.682 58.5529 181.958C58.6249 182.234 58.6879 182.51 58.7419 182.786C58.8019 182.51 58.8679 182.234 58.9399 181.958C59.0119 181.682 59.0989 181.4 59.2009 181.112L61.0189 176.18C61.0609 176.06 61.1359 175.961 61.2439 175.883C61.3519 175.805 61.4809 175.766 61.6309 175.766H63.3859ZM70.2384 179.321C70.2384 179.033 70.1964 178.763 70.1124 178.511C70.0344 178.253 69.9144 178.028 69.7524 177.836C69.5904 177.644 69.3834 177.494 69.1314 177.386C68.8854 177.272 68.5974 177.215 68.2674 177.215C67.6254 177.215 67.1184 177.398 66.7464 177.764C66.3804 178.13 66.1464 178.649 66.0444 179.321H70.2384ZM65.9994 180.662C66.0354 181.136 66.1194 181.547 66.2514 181.895C66.3834 182.237 66.5574 182.522 66.7734 182.75C66.9894 182.972 67.2444 183.14 67.5384 183.254C67.8384 183.362 68.1684 183.416 68.5284 183.416C68.8884 183.416 69.1974 183.374 69.4554 183.29C69.7194 183.206 69.9474 183.113 70.1394 183.011C70.3374 182.909 70.5084 182.816 70.6524 182.732C70.8024 182.648 70.9464 182.606 71.0844 182.606C71.2704 182.606 71.4084 182.675 71.4984 182.813L72.1374 183.623C71.8914 183.911 71.6154 184.154 71.3094 184.352C71.0034 184.544 70.6824 184.7 70.3464 184.82C70.0164 184.934 69.6774 185.015 69.3294 185.063C68.9874 185.111 68.6544 185.135 68.3304 185.135C67.6884 185.135 67.0914 185.03 66.5394 184.82C65.9874 184.604 65.5074 184.289 65.0994 183.875C64.6914 183.455 64.3704 182.939 64.1364 182.327C63.9024 181.709 63.7854 180.995 63.7854 180.185C63.7854 179.555 63.8874 178.964 64.0914 178.412C64.2954 177.854 64.5864 177.371 64.9644 176.963C65.3484 176.549 65.8134 176.222 66.3594 175.982C66.9114 175.742 67.5324 175.622 68.2224 175.622C68.8044 175.622 69.3414 175.715 69.8334 175.901C70.3254 176.087 70.7484 176.36 71.1024 176.72C71.4564 177.074 71.7324 177.512 71.9304 178.034C72.1344 178.55 72.2364 179.141 72.2364 179.807C72.2364 180.143 72.2004 180.371 72.1284 180.491C72.0564 180.605 71.9184 180.662 71.7144 180.662H65.9994ZM80.3606 176.9C80.5466 176.714 80.7416 176.543 80.9456 176.387C81.1556 176.225 81.3746 176.09 81.6026 175.982C81.8366 175.868 82.0856 175.781 82.3496 175.721C82.6136 175.655 82.9016 175.622 83.2136 175.622C83.7176 175.622 84.1646 175.709 84.5546 175.883C84.9446 176.051 85.2686 176.291 85.5266 176.603C85.7906 176.909 85.9886 177.278 86.1206 177.71C86.2586 178.136 86.3276 178.607 86.3276 179.123V185H84.1046V179.123C84.1046 178.559 83.9756 178.124 83.7176 177.818C83.4596 177.506 83.0666 177.35 82.5386 177.35C82.1546 177.35 81.7946 177.437 81.4586 177.611C81.1226 177.785 80.8046 178.022 80.5046 178.322V185H78.2816V175.766H79.6406C79.9286 175.766 80.1176 175.901 80.2076 176.171L80.3606 176.9ZM92.5278 175.622C93.2118 175.622 93.8328 175.733 94.3908 175.955C94.9548 176.177 95.4348 176.492 95.8308 176.9C96.2327 177.308 96.5417 177.806 96.7578 178.394C96.9738 178.982 97.0818 179.639 97.0818 180.365C97.0818 181.097 96.9738 181.757 96.7578 182.345C96.5417 182.933 96.2327 183.434 95.8308 183.848C95.4348 184.262 94.9548 184.58 94.3908 184.802C93.8328 185.024 93.2118 185.135 92.5278 185.135C91.8378 185.135 91.2108 185.024 90.6468 184.802C90.0828 184.58 89.5998 184.262 89.1978 183.848C88.8018 183.434 88.4928 182.933 88.2708 182.345C88.0548 181.757 87.9468 181.097 87.9468 180.365C87.9468 179.639 88.0548 178.982 88.2708 178.394C88.4928 177.806 88.8018 177.308 89.1978 176.9C89.5998 176.492 90.0828 176.177 90.6468 175.955C91.2108 175.733 91.8378 175.622 92.5278 175.622ZM92.5278 183.425C93.2958 183.425 93.8628 183.167 94.2288 182.651C94.6008 182.135 94.7868 181.379 94.7868 180.383C94.7868 179.387 94.6008 178.628 94.2288 178.106C93.8628 177.584 93.2958 177.323 92.5278 177.323C91.7478 177.323 91.1688 177.587 90.7908 178.115C90.4188 178.637 90.2328 179.393 90.2328 180.383C90.2328 181.373 90.4188 182.129 90.7908 182.651C91.1688 183.167 91.7478 183.425 92.5278 183.425ZM108.033 181.058C107.391 181.088 106.851 181.145 106.413 181.229C105.975 181.307 105.624 181.409 105.36 181.535C105.096 181.661 104.907 181.808 104.793 181.976C104.679 182.144 104.622 182.327 104.622 182.525C104.622 182.915 104.736 183.194 104.964 183.362C105.198 183.53 105.501 183.614 105.873 183.614C106.329 183.614 106.722 183.533 107.052 183.371C107.388 183.203 107.715 182.951 108.033 182.615V181.058ZM102.939 177.053C104.001 176.081 105.279 175.595 106.773 175.595C107.313 175.595 107.796 175.685 108.222 175.865C108.648 176.039 109.008 176.285 109.302 176.603C109.596 176.915 109.818 177.29 109.968 177.728C110.124 178.166 110.202 178.646 110.202 179.168V185H109.194C108.984 185 108.822 184.97 108.708 184.91C108.594 184.844 108.504 184.715 108.438 184.523L108.24 183.857C108.006 184.067 107.778 184.253 107.556 184.415C107.334 184.571 107.103 184.703 106.863 184.811C106.623 184.919 106.365 185 106.089 185.054C105.819 185.114 105.519 185.144 105.189 185.144C104.799 185.144 104.439 185.093 104.109 184.991C103.779 184.883 103.494 184.724 103.254 184.514C103.014 184.304 102.828 184.043 102.696 183.731C102.564 183.419 102.498 183.056 102.498 182.642C102.498 182.408 102.537 182.177 102.615 181.949C102.693 181.715 102.819 181.493 102.993 181.283C103.173 181.073 103.404 180.875 103.686 180.689C103.968 180.503 104.313 180.341 104.721 180.203C105.135 180.065 105.615 179.954 106.161 179.87C106.707 179.78 107.331 179.726 108.033 179.708V179.168C108.033 178.55 107.901 178.094 107.637 177.8C107.373 177.5 106.992 177.35 106.494 177.35C106.134 177.35 105.834 177.392 105.594 177.476C105.36 177.56 105.153 177.656 104.973 177.764C104.793 177.866 104.628 177.959 104.478 178.043C104.334 178.127 104.172 178.169 103.992 178.169C103.836 178.169 103.704 178.13 103.596 178.052C103.488 177.968 103.401 177.872 103.335 177.764L102.939 177.053ZM118.91 177.719C118.844 177.803 118.778 177.869 118.712 177.917C118.652 177.965 118.562 177.989 118.442 177.989C118.328 177.989 118.217 177.956 118.109 177.89C118.001 177.818 117.872 177.74 117.722 177.656C117.572 177.566 117.392 177.488 117.182 177.422C116.978 177.35 116.723 177.314 116.417 177.314C116.027 177.314 115.685 177.386 115.391 177.53C115.097 177.668 114.851 177.869 114.653 178.133C114.461 178.397 114.317 178.718 114.221 179.096C114.125 179.468 114.077 179.891 114.077 180.365C114.077 180.857 114.128 181.295 114.23 181.679C114.338 182.063 114.491 182.387 114.689 182.651C114.887 182.909 115.127 183.107 115.409 183.245C115.691 183.377 116.009 183.443 116.363 183.443C116.717 183.443 117.002 183.401 117.218 183.317C117.44 183.227 117.626 183.131 117.776 183.029C117.926 182.921 118.055 182.825 118.163 182.741C118.277 182.651 118.403 182.606 118.541 182.606C118.721 182.606 118.856 182.675 118.946 182.813L119.585 183.623C119.339 183.911 119.072 184.154 118.784 184.352C118.496 184.544 118.196 184.7 117.884 184.82C117.578 184.934 117.26 185.015 116.93 185.063C116.606 185.111 116.282 185.135 115.958 185.135C115.388 185.135 114.851 185.03 114.347 184.82C113.843 184.604 113.402 184.292 113.024 183.884C112.646 183.476 112.346 182.978 112.124 182.39C111.908 181.796 111.8 181.121 111.8 180.365C111.8 179.687 111.896 179.06 112.088 178.484C112.286 177.902 112.574 177.401 112.952 176.981C113.33 176.555 113.798 176.222 114.356 175.982C114.914 175.742 115.556 175.622 116.282 175.622C116.972 175.622 117.575 175.733 118.091 175.955C118.613 176.177 119.081 176.495 119.495 176.909L118.91 177.719ZM130.294 185H128.071V177.431H123.787V182.435C123.787 182.723 123.856 182.948 123.994 183.11C124.138 183.272 124.333 183.353 124.579 183.353C124.717 183.353 124.831 183.338 124.921 183.308C125.017 183.272 125.098 183.236 125.164 183.2C125.236 183.164 125.299 183.131 125.353 183.101C125.407 183.065 125.461 183.047 125.515 183.047C125.581 183.047 125.635 183.065 125.677 183.101C125.719 183.131 125.764 183.179 125.812 183.245L126.478 184.325C126.154 184.595 125.782 184.799 125.362 184.937C124.942 185.075 124.507 185.144 124.057 185.144C123.253 185.144 122.635 184.919 122.203 184.469C121.777 184.013 121.564 183.386 121.564 182.588V177.431H120.619C120.499 177.431 120.397 177.392 120.313 177.314C120.229 177.236 120.187 177.119 120.187 176.963V176.081L121.672 175.829L122.14 173.318C122.17 173.198 122.227 173.105 122.311 173.039C122.395 172.973 122.503 172.94 122.635 172.94H123.787V175.847H130.294V185ZM130.681 173.039C130.681 173.231 130.642 173.414 130.564 173.588C130.486 173.756 130.381 173.903 130.249 174.029C130.123 174.155 129.97 174.257 129.79 174.335C129.616 174.407 129.43 174.443 129.232 174.443C129.04 174.443 128.86 174.407 128.692 174.335C128.524 174.257 128.377 174.155 128.251 174.029C128.125 173.903 128.023 173.756 127.945 173.588C127.873 173.414 127.837 173.231 127.837 173.039C127.837 172.841 127.873 172.658 127.945 172.49C128.023 172.316 128.125 172.166 128.251 172.04C128.377 171.908 128.524 171.806 128.692 171.734C128.86 171.656 129.04 171.617 129.232 171.617C129.43 171.617 129.616 171.656 129.79 171.734C129.97 171.806 130.123 171.908 130.249 172.04C130.381 172.166 130.486 172.316 130.564 172.49C130.642 172.658 130.681 172.841 130.681 173.039ZM140.888 175.766L137.225 185H135.209L131.546 175.766H133.382C133.55 175.766 133.688 175.805 133.796 175.883C133.91 175.961 133.985 176.06 134.021 176.18L135.803 181.112C135.899 181.4 135.983 181.682 136.055 181.958C136.127 182.234 136.19 182.51 136.244 182.786C136.304 182.51 136.37 182.234 136.442 181.958C136.514 181.682 136.601 181.4 136.703 181.112L138.521 176.18C138.563 176.06 138.638 175.961 138.746 175.883C138.854 175.805 138.983 175.766 139.133 175.766H140.888ZM144.377 175.766V185H142.145V175.766H144.377ZM144.683 173.075C144.683 173.267 144.644 173.447 144.566 173.615C144.488 173.783 144.383 173.93 144.251 174.056C144.125 174.182 143.975 174.284 143.801 174.362C143.627 174.434 143.441 174.47 143.243 174.47C143.051 174.47 142.868 174.434 142.694 174.362C142.526 174.284 142.379 174.182 142.253 174.056C142.127 173.93 142.025 173.783 141.947 173.615C141.875 173.447 141.839 173.267 141.839 173.075C141.839 172.877 141.875 172.691 141.947 172.517C142.025 172.343 142.127 172.193 142.253 172.067C142.379 171.941 142.526 171.842 142.694 171.77C142.868 171.692 143.051 171.653 143.243 171.653C143.441 171.653 143.627 171.692 143.801 171.77C143.975 171.842 144.125 171.941 144.251 172.067C144.383 172.193 144.488 172.343 144.566 172.517C144.644 172.691 144.683 172.877 144.683 173.075ZM149.721 185.144C148.917 185.144 148.299 184.919 147.867 184.469C147.441 184.013 147.228 183.386 147.228 182.588V177.431H146.283C146.163 177.431 146.061 177.392 145.977 177.314C145.893 177.236 145.851 177.119 145.851 176.963V176.081L147.336 175.838L147.804 173.318C147.834 173.198 147.891 173.105 147.975 173.039C148.059 172.973 148.167 172.94 148.299 172.94H149.451V175.847H151.917V177.431H149.451V182.435C149.451 182.723 149.52 182.948 149.658 183.11C149.802 183.272 149.997 183.353 150.243 183.353C150.381 183.353 150.495 183.338 150.585 183.308C150.681 183.272 150.762 183.236 150.828 183.2C150.9 183.164 150.963 183.131 151.017 183.101C151.071 183.065 151.125 183.047 151.179 183.047C151.245 183.047 151.299 183.065 151.341 183.101C151.383 183.131 151.428 183.179 151.476 183.245L152.142 184.325C151.818 184.595 151.446 184.799 151.026 184.937C150.606 185.075 150.171 185.144 149.721 185.144ZM161.728 175.766L156.697 187.538C156.631 187.694 156.544 187.811 156.436 187.889C156.334 187.973 156.175 188.015 155.959 188.015H154.303L156.031 184.307L152.296 175.766H154.249C154.423 175.766 154.558 175.808 154.654 175.892C154.756 175.976 154.831 176.072 154.879 176.18L156.841 180.968C156.907 181.13 156.961 181.292 157.003 181.454C157.051 181.616 157.096 181.781 157.138 181.949C157.192 181.781 157.246 181.616 157.3 181.454C157.354 181.286 157.414 181.121 157.48 180.959L159.334 176.18C159.382 176.06 159.46 175.961 159.568 175.883C159.682 175.805 159.808 175.766 159.946 175.766H161.728ZM174.683 175.766L169.652 187.538C169.586 187.694 169.499 187.811 169.391 187.889C169.289 187.973 169.13 188.015 168.914 188.015H167.258L168.986 184.307L165.251 175.766H167.204C167.378 175.766 167.513 175.808 167.609 175.892C167.711 175.976 167.786 176.072 167.834 176.18L169.796 180.968C169.862 181.13 169.916 181.292 169.958 181.454C170.006 181.616 170.051 181.781 170.093 181.949C170.147 181.781 170.201 181.616 170.255 181.454C170.309 181.286 170.369 181.121 170.435 180.959L172.289 176.18C172.337 176.06 172.415 175.961 172.523 175.883C172.637 175.805 172.763 175.766 172.901 175.766H174.683ZM181.455 179.321C181.455 179.033 181.413 178.763 181.329 178.511C181.251 178.253 181.131 178.028 180.969 177.836C180.807 177.644 180.6 177.494 180.348 177.386C180.102 177.272 179.814 177.215 179.484 177.215C178.842 177.215 178.335 177.398 177.963 177.764C177.597 178.13 177.363 178.649 177.261 179.321H181.455ZM177.216 180.662C177.252 181.136 177.336 181.547 177.468 181.895C177.6 182.237 177.774 182.522 177.99 182.75C178.206 182.972 178.461 183.14 178.755 183.254C179.055 183.362 179.385 183.416 179.745 183.416C180.105 183.416 180.414 183.374 180.672 183.29C180.936 183.206 181.164 183.113 181.356 183.011C181.554 182.909 181.725 182.816 181.869 182.732C182.019 182.648 182.163 182.606 182.301 182.606C182.487 182.606 182.625 182.675 182.715 182.813L183.354 183.623C183.108 183.911 182.832 184.154 182.526 184.352C182.22 184.544 181.899 184.7 181.563 184.82C181.233 184.934 180.894 185.015 180.546 185.063C180.204 185.111 179.871 185.135 179.547 185.135C178.905 185.135 178.308 185.03 177.756 184.82C177.204 184.604 176.724 184.289 176.316 183.875C175.908 183.455 175.587 182.939 175.353 182.327C175.119 181.709 175.002 180.995 175.002 180.185C175.002 179.555 175.104 178.964 175.308 178.412C175.512 177.854 175.803 177.371 176.181 176.963C176.565 176.549 177.03 176.222 177.576 175.982C178.128 175.742 178.749 175.622 179.439 175.622C180.021 175.622 180.558 175.715 181.05 175.901C181.542 176.087 181.965 176.36 182.319 176.72C182.673 177.074 182.949 177.512 183.147 178.034C183.351 178.55 183.453 179.141 183.453 179.807C183.453 180.143 183.417 180.371 183.345 180.491C183.273 180.605 183.135 180.662 182.931 180.662H177.216ZM188.112 185.144C187.308 185.144 186.69 184.919 186.258 184.469C185.832 184.013 185.619 183.386 185.619 182.588V177.431H184.674C184.554 177.431 184.452 177.392 184.368 177.314C184.284 177.236 184.242 177.119 184.242 176.963V176.081L185.727 175.838L186.195 173.318C186.225 173.198 186.282 173.105 186.366 173.039C186.45 172.973 186.558 172.94 186.69 172.94H187.842V175.847H190.308V177.431H187.842V182.435C187.842 182.723 187.911 182.948 188.049 183.11C188.193 183.272 188.388 183.353 188.634 183.353C188.772 183.353 188.886 183.338 188.976 183.308C189.072 183.272 189.153 183.236 189.219 183.2C189.291 183.164 189.354 183.131 189.408 183.101C189.462 183.065 189.516 183.047 189.57 183.047C189.636 183.047 189.69 183.065 189.732 183.101C189.774 183.131 189.819 183.179 189.867 183.245L190.533 184.325C190.209 184.595 189.837 184.799 189.417 184.937C188.997 185.075 188.562 185.144 188.112 185.144Z" fill="#E76F51" fill-opacity="0.75"/>
</svg>
