<svg width="196" height="189" viewBox="0 0 196 189" fill="none" xmlns="http://www.w3.org/2000/svg">
<path d="M62 95.4997C73.5 69.5 126.5 70.5 136.5 95.4997" stroke="#ED937C" stroke-width="7"/>
<line x1="69" y1="45" x2="69" y2="1.5299e-07" stroke="#ED937C" stroke-width="7"/>
<line x1="127" y1="45" x2="127" y2="1.5299e-07" stroke="#ED937C" stroke-width="7"/>
<path d="M8.8292 152.353C8.7572 152.479 8.6792 152.572 8.5952 152.632C8.5172 152.686 8.4182 152.713 8.2982 152.713C8.1722 152.713 8.0342 152.668 7.8842 152.578C7.7402 152.482 7.5662 152.377 7.3622 152.263C7.1582 152.149 6.9182 152.047 6.6422 151.957C6.3722 151.861 6.0512 151.813 5.6792 151.813C5.3432 151.813 5.0492 151.855 4.7972 151.939C4.5452 152.017 4.3322 152.128 4.1582 152.272C3.9902 152.416 3.8642 152.59 3.7802 152.794C3.6962 152.992 3.6542 153.211 3.6542 153.451C3.6542 153.757 3.7382 154.012 3.9062 154.216C4.0802 154.42 4.3082 154.594 4.5902 154.738C4.8722 154.882 5.1932 155.011 5.5532 155.125C5.9132 155.239 6.2822 155.362 6.6602 155.494C7.0382 155.62 7.4072 155.77 7.7672 155.944C8.1272 156.112 8.4482 156.328 8.7302 156.592C9.0122 156.85 9.2372 157.168 9.4052 157.546C9.5792 157.924 9.6662 158.383 9.6662 158.923C9.6662 159.511 9.5642 160.063 9.3602 160.579C9.1622 161.089 8.8682 161.536 8.4782 161.92C8.0942 162.298 7.6232 162.598 7.0652 162.82C6.5072 163.036 5.8682 163.144 5.1482 163.144C4.7342 163.144 4.3262 163.102 3.9242 163.018C3.5222 162.94 3.1352 162.826 2.7632 162.676C2.3972 162.526 2.0522 162.346 1.7282 162.136C1.4042 161.926 1.1162 161.692 0.864195 161.434L1.5752 160.273C1.6352 160.189 1.7132 160.12 1.8092 160.066C1.9052 160.006 2.0072 159.976 2.1152 159.976C2.2652 159.976 2.4272 160.039 2.6012 160.165C2.7752 160.285 2.9822 160.42 3.2222 160.57C3.4622 160.72 3.7412 160.858 4.0592 160.984C4.3832 161.104 4.7702 161.164 5.2202 161.164C5.9102 161.164 6.4442 161.002 6.8222 160.678C7.2002 160.348 7.3892 159.877 7.3892 159.265C7.3892 158.923 7.3022 158.644 7.1282 158.428C6.9602 158.212 6.7352 158.032 6.4532 157.888C6.1712 157.738 5.8502 157.612 5.4902 157.51C5.1302 157.408 4.7642 157.297 4.3922 157.177C4.0202 157.057 3.6542 156.913 3.2942 156.745C2.9342 156.577 2.6132 156.358 2.3312 156.088C2.0492 155.818 1.8212 155.482 1.6472 155.08C1.4792 154.672 1.3952 154.171 1.3952 153.577C1.3952 153.103 1.4882 152.641 1.6742 152.191C1.8662 151.741 2.1422 151.342 2.5022 150.994C2.8622 150.646 3.3062 150.367 3.8342 150.157C4.3622 149.947 4.9682 149.842 5.6522 149.842C6.4202 149.842 7.1282 149.962 7.7762 150.202C8.4242 150.442 8.9762 150.778 9.4322 151.21L8.8292 152.353ZM16.1821 159.058C15.5401 159.088 15.0001 159.145 14.5621 159.229C14.1241 159.307 13.7731 159.409 13.5091 159.535C13.2451 159.661 13.0561 159.808 12.9421 159.976C12.8281 160.144 12.7711 160.327 12.7711 160.525C12.7711 160.915 12.8851 161.194 13.1131 161.362C13.3471 161.53 13.6501 161.614 14.0221 161.614C14.4781 161.614 14.8711 161.533 15.2011 161.371C15.5371 161.203 15.8641 160.951 16.1821 160.615V159.058ZM11.0881 155.053C12.1501 154.081 13.4281 153.595 14.9221 153.595C15.4621 153.595 15.9451 153.685 16.3711 153.865C16.7971 154.039 17.1571 154.285 17.4511 154.603C17.7451 154.915 17.9671 155.29 18.1171 155.728C18.2731 156.166 18.3511 156.646 18.3511 157.168V163H17.3431C17.1331 163 16.9711 162.97 16.8571 162.91C16.7431 162.844 16.6531 162.715 16.5871 162.523L16.3891 161.857C16.1551 162.067 15.9271 162.253 15.7051 162.415C15.4831 162.571 15.2521 162.703 15.0121 162.811C14.7721 162.919 14.5141 163 14.2381 163.054C13.9681 163.114 13.6681 163.144 13.3381 163.144C12.9481 163.144 12.5881 163.093 12.2581 162.991C11.9281 162.883 11.6431 162.724 11.4031 162.514C11.1631 162.304 10.9771 162.043 10.8451 161.731C10.7131 161.419 10.6471 161.056 10.6471 160.642C10.6471 160.408 10.6861 160.177 10.7641 159.949C10.8421 159.715 10.9681 159.493 11.1421 159.283C11.3221 159.073 11.5531 158.875 11.8351 158.689C12.1171 158.503 12.4621 158.341 12.8701 158.203C13.2841 158.065 13.7641 157.954 14.3101 157.87C14.8561 157.78 15.4801 157.726 16.1821 157.708V157.168C16.1821 156.55 16.0501 156.094 15.7861 155.8C15.5221 155.5 15.1411 155.35 14.6431 155.35C14.2831 155.35 13.9831 155.392 13.7431 155.476C13.5091 155.56 13.3021 155.656 13.1221 155.764C12.9421 155.866 12.7771 155.959 12.6271 156.043C12.4831 156.127 12.3211 156.169 12.1411 156.169C11.9851 156.169 11.8531 156.13 11.7451 156.052C11.6371 155.968 11.5501 155.872 11.4841 155.764L11.0881 155.053ZM26.2407 156.124C25.9887 155.818 25.7127 155.602 25.4127 155.476C25.1187 155.35 24.8007 155.287 24.4587 155.287C24.1227 155.287 23.8197 155.35 23.5497 155.476C23.2797 155.602 23.0487 155.794 22.8567 156.052C22.6647 156.304 22.5177 156.628 22.4157 157.024C22.3137 157.414 22.2627 157.876 22.2627 158.41C22.2627 158.95 22.3047 159.409 22.3887 159.787C22.4787 160.159 22.6047 160.465 22.7667 160.705C22.9287 160.939 23.1267 161.11 23.3607 161.218C23.5947 161.32 23.8557 161.371 24.1437 161.371C24.6057 161.371 24.9987 161.275 25.3227 161.083C25.6467 160.891 25.9527 160.618 26.2407 160.264V156.124ZM28.4637 149.626V163H27.1047C26.8107 163 26.6247 162.865 26.5467 162.595L26.3577 161.704C25.9857 162.13 25.5567 162.475 25.0707 162.739C24.5907 163.003 24.0297 163.135 23.3877 163.135C22.8837 163.135 22.4217 163.03 22.0017 162.82C21.5817 162.61 21.2187 162.307 20.9127 161.911C20.6127 161.509 20.3787 161.014 20.2107 160.426C20.0487 159.838 19.9677 159.166 19.9677 158.41C19.9677 157.726 20.0607 157.09 20.2467 156.502C20.4327 155.914 20.6997 155.404 21.0477 154.972C21.3957 154.54 21.8127 154.204 22.2987 153.964C22.7847 153.718 23.3307 153.595 23.9367 153.595C24.4527 153.595 24.8937 153.676 25.2597 153.838C25.6257 154 25.9527 154.219 26.2407 154.495V149.626H28.4637ZM32.9076 149.626V163H30.6846V149.626H32.9076ZM43.5104 153.766L38.4794 165.538C38.4134 165.694 38.3264 165.811 38.2184 165.889C38.1164 165.973 37.9574 166.015 37.7414 166.015H36.0854L37.8134 162.307L34.0784 153.766H36.0314C36.2054 153.766 36.3404 153.808 36.4364 153.892C36.5384 153.976 36.6134 154.072 36.6614 154.18L38.6234 158.968C38.6894 159.13 38.7434 159.292 38.7854 159.454C38.8334 159.616 38.8784 159.781 38.9204 159.949C38.9744 159.781 39.0284 159.616 39.0824 159.454C39.1364 159.286 39.1964 159.121 39.2624 158.959L41.1164 154.18C41.1644 154.06 41.2424 153.961 41.3504 153.883C41.4644 153.805 41.5904 153.766 41.7284 153.766H43.5104ZM43.9106 165.205C43.8026 165.115 43.7486 165.004 43.7486 164.872C43.7486 164.824 43.7636 164.77 43.7936 164.71C43.8296 164.65 43.8716 164.596 43.9196 164.548C43.9856 164.476 44.0666 164.386 44.1626 164.278C44.2586 164.176 44.3546 164.056 44.4506 163.918C44.5466 163.786 44.6336 163.639 44.7116 163.477C44.7956 163.321 44.8586 163.153 44.9006 162.973C44.7086 162.973 44.5346 162.94 44.3786 162.874C44.2226 162.802 44.0876 162.706 43.9736 162.586C43.8656 162.466 43.7786 162.325 43.7126 162.163C43.6526 162.001 43.6226 161.824 43.6226 161.632C43.6226 161.464 43.6526 161.308 43.7126 161.164C43.7786 161.014 43.8686 160.885 43.9826 160.777C44.0966 160.663 44.2346 160.576 44.3966 160.516C44.5586 160.45 44.7356 160.417 44.9276 160.417C45.1556 160.417 45.3536 160.459 45.5216 160.543C45.6956 160.621 45.8366 160.732 45.9446 160.876C46.0586 161.014 46.1426 161.176 46.1966 161.362C46.2566 161.542 46.2866 161.734 46.2866 161.938C46.2866 162.226 46.2416 162.529 46.1516 162.847C46.0676 163.165 45.9416 163.483 45.7736 163.801C45.6056 164.119 45.3956 164.428 45.1436 164.728C44.8976 165.028 44.6156 165.304 44.2976 165.556L43.9106 165.205ZM55.6203 163.144C54.8163 163.144 54.1983 162.919 53.7663 162.469C53.3403 162.013 53.1273 161.386 53.1273 160.588V155.431H52.1823C52.0623 155.431 51.9603 155.392 51.8763 155.314C51.7923 155.236 51.7503 155.119 51.7503 154.963V154.081L53.2353 153.838L53.7033 151.318C53.7333 151.198 53.7903 151.105 53.8743 151.039C53.9583 150.973 54.0663 150.94 54.1983 150.94H55.3503V153.847H57.8163V155.431H55.3503V160.435C55.3503 160.723 55.4193 160.948 55.5573 161.11C55.7013 161.272 55.8963 161.353 56.1423 161.353C56.2803 161.353 56.3943 161.338 56.4843 161.308C56.5803 161.272 56.6613 161.236 56.7273 161.2C56.7993 161.164 56.8623 161.131 56.9163 161.101C56.9703 161.065 57.0243 161.047 57.0783 161.047C57.1443 161.047 57.1983 161.065 57.2403 161.101C57.2823 161.131 57.3273 161.179 57.3753 161.245L58.0413 162.325C57.7173 162.595 57.3453 162.799 56.9253 162.937C56.5053 163.075 56.0703 163.144 55.6203 163.144ZM61.4626 154.756C61.8226 154.42 62.2186 154.147 62.6506 153.937C63.0826 153.727 63.5896 153.622 64.1716 153.622C64.6756 153.622 65.1226 153.709 65.5126 153.883C65.9026 154.051 66.2266 154.291 66.4846 154.603C66.7486 154.909 66.9466 155.278 67.0786 155.71C67.2166 156.136 67.2856 156.607 67.2856 157.123V163H65.0626V157.123C65.0626 156.559 64.9336 156.124 64.6756 155.818C64.4176 155.506 64.0246 155.35 63.4966 155.35C63.1126 155.35 62.7526 155.437 62.4166 155.611C62.0806 155.785 61.7626 156.022 61.4626 156.322V163H59.2396V149.626H61.4626V154.756ZM71.7038 153.766V163H69.4718V153.766H71.7038ZM72.0098 151.075C72.0098 151.267 71.9708 151.447 71.8928 151.615C71.8148 151.783 71.7098 151.93 71.5778 152.056C71.4518 152.182 71.3018 152.284 71.1278 152.362C70.9538 152.434 70.7678 152.47 70.5698 152.47C70.3778 152.47 70.1948 152.434 70.0208 152.362C69.8528 152.284 69.7058 152.182 69.5798 152.056C69.4538 151.93 69.3518 151.783 69.2738 151.615C69.2018 151.447 69.1658 151.267 69.1658 151.075C69.1658 150.877 69.2018 150.691 69.2738 150.517C69.3518 150.343 69.4538 150.193 69.5798 150.067C69.7058 149.941 69.8528 149.842 70.0208 149.77C70.1948 149.692 70.3778 149.653 70.5698 149.653C70.7678 149.653 70.9538 149.692 71.1278 149.77C71.3018 149.842 71.4518 149.941 71.5778 150.067C71.7098 150.193 71.8148 150.343 71.8928 150.517C71.9708 150.691 72.0098 150.877 72.0098 151.075ZM79.6041 155.566C79.5441 155.662 79.4811 155.731 79.4151 155.773C79.3491 155.809 79.2651 155.827 79.1631 155.827C79.0551 155.827 78.9381 155.797 78.8121 155.737C78.6921 155.677 78.5511 155.611 78.3891 155.539C78.2271 155.461 78.0411 155.392 77.8311 155.332C77.6271 155.272 77.3841 155.242 77.1021 155.242C76.6641 155.242 76.3191 155.335 76.0671 155.521C75.8211 155.707 75.6981 155.95 75.6981 156.25C75.6981 156.448 75.7611 156.616 75.8871 156.754C76.0191 156.886 76.1901 157.003 76.4001 157.105C76.6161 157.207 76.8591 157.3 77.1291 157.384C77.3991 157.462 77.6721 157.549 77.9481 157.645C78.2301 157.741 78.5061 157.852 78.7761 157.978C79.0461 158.098 79.2861 158.254 79.4961 158.446C79.7121 158.632 79.8831 158.857 80.0091 159.121C80.1411 159.385 80.2071 159.703 80.2071 160.075C80.2071 160.519 80.1261 160.93 79.9641 161.308C79.8081 161.68 79.5741 162.004 79.2621 162.28C78.9501 162.55 78.5631 162.763 78.1011 162.919C77.6451 163.069 77.1171 163.144 76.5171 163.144C76.1991 163.144 75.8871 163.114 75.5811 163.054C75.2811 163 74.9901 162.922 74.7081 162.82C74.4321 162.718 74.1741 162.598 73.9341 162.46C73.7001 162.322 73.4931 162.172 73.3131 162.01L73.8261 161.164C73.8921 161.062 73.9701 160.984 74.0601 160.93C74.1501 160.876 74.2641 160.849 74.4021 160.849C74.5401 160.849 74.6691 160.888 74.7891 160.966C74.9151 161.044 75.0591 161.128 75.2211 161.218C75.3831 161.308 75.5721 161.392 75.7881 161.47C76.0101 161.548 76.2891 161.587 76.6251 161.587C76.8891 161.587 77.1141 161.557 77.3001 161.497C77.4921 161.431 77.6481 161.347 77.7681 161.245C77.8941 161.143 77.9841 161.026 78.0381 160.894C78.0981 160.756 78.1281 160.615 78.1281 160.471C78.1281 160.255 78.0621 160.078 77.9301 159.94C77.8041 159.802 77.6331 159.682 77.4171 159.58C77.2071 159.478 76.9641 159.388 76.6881 159.31C76.4181 159.226 76.1391 159.136 75.8511 159.04C75.5691 158.944 75.2901 158.833 75.0141 158.707C74.7441 158.575 74.5011 158.41 74.2851 158.212C74.0751 158.014 73.9041 157.771 73.7721 157.483C73.6461 157.195 73.5831 156.847 73.5831 156.439C73.5831 156.061 73.6581 155.701 73.8081 155.359C73.9581 155.017 74.1771 154.72 74.4651 154.468C74.7591 154.21 75.1221 154.006 75.5541 153.856C75.9921 153.7 76.4961 153.622 77.0661 153.622C77.7021 153.622 78.2811 153.727 78.8031 153.937C79.3251 154.147 79.7601 154.423 80.1081 154.765L79.6041 155.566ZM86.9052 163V155.44L86.1042 155.314C85.9302 155.278 85.7892 155.218 85.6812 155.134C85.5792 155.044 85.5282 154.918 85.5282 154.756V153.847H86.9052V153.163C86.9052 152.635 86.9832 152.161 87.1392 151.741C87.3012 151.321 87.5292 150.964 87.8232 150.67C88.1232 150.376 88.4862 150.151 88.9122 149.995C89.3382 149.839 89.8182 149.761 90.3522 149.761C90.7782 149.761 91.1742 149.818 91.5402 149.932L91.4952 151.048C91.4892 151.132 91.4652 151.201 91.4232 151.255C91.3812 151.303 91.3242 151.342 91.2522 151.372C91.1862 151.396 91.1082 151.414 91.0182 151.426C90.9282 151.432 90.8322 151.435 90.7302 151.435C90.4662 151.435 90.2292 151.465 90.0192 151.525C89.8152 151.579 89.6412 151.678 89.4972 151.822C89.3532 151.96 89.2422 152.146 89.1642 152.38C89.0922 152.608 89.0562 152.893 89.0562 153.235V153.847H91.4592V155.431H89.1282V163H86.9052ZM98.4113 157.321C98.4113 157.033 98.3693 156.763 98.2853 156.511C98.2073 156.253 98.0873 156.028 97.9253 155.836C97.7633 155.644 97.5563 155.494 97.3043 155.386C97.0583 155.272 96.7703 155.215 96.4403 155.215C95.7983 155.215 95.2913 155.398 94.9193 155.764C94.5533 156.13 94.3193 156.649 94.2173 157.321H98.4113ZM94.1723 158.662C94.2083 159.136 94.2923 159.547 94.4243 159.895C94.5563 160.237 94.7303 160.522 94.9463 160.75C95.1623 160.972 95.4173 161.14 95.7113 161.254C96.0113 161.362 96.3413 161.416 96.7013 161.416C97.0613 161.416 97.3703 161.374 97.6283 161.29C97.8923 161.206 98.1203 161.113 98.3123 161.011C98.5103 160.909 98.6813 160.816 98.8253 160.732C98.9753 160.648 99.1193 160.606 99.2573 160.606C99.4433 160.606 99.5813 160.675 99.6713 160.813L100.31 161.623C100.064 161.911 99.7883 162.154 99.4823 162.352C99.1763 162.544 98.8553 162.7 98.5193 162.82C98.1893 162.934 97.8503 163.015 97.5023 163.063C97.1603 163.111 96.8273 163.135 96.5033 163.135C95.8613 163.135 95.2643 163.03 94.7123 162.82C94.1603 162.604 93.6803 162.289 93.2723 161.875C92.8643 161.455 92.5433 160.939 92.3093 160.327C92.0753 159.709 91.9583 158.995 91.9583 158.185C91.9583 157.555 92.0603 156.964 92.2643 156.412C92.4683 155.854 92.7593 155.371 93.1373 154.963C93.5213 154.549 93.9863 154.222 94.5323 153.982C95.0843 153.742 95.7053 153.622 96.3953 153.622C96.9773 153.622 97.5143 153.715 98.0063 153.901C98.4983 154.087 98.9213 154.36 99.2753 154.72C99.6293 155.074 99.9053 155.512 100.103 156.034C100.307 156.55 100.409 157.141 100.409 157.807C100.409 158.143 100.373 158.371 100.301 158.491C100.229 158.605 100.091 158.662 99.8873 158.662H94.1723ZM106.955 159.058C106.313 159.088 105.773 159.145 105.335 159.229C104.897 159.307 104.546 159.409 104.282 159.535C104.018 159.661 103.829 159.808 103.715 159.976C103.601 160.144 103.544 160.327 103.544 160.525C103.544 160.915 103.658 161.194 103.886 161.362C104.12 161.53 104.423 161.614 104.795 161.614C105.251 161.614 105.644 161.533 105.974 161.371C106.31 161.203 106.637 160.951 106.955 160.615V159.058ZM101.861 155.053C102.923 154.081 104.201 153.595 105.695 153.595C106.235 153.595 106.718 153.685 107.144 153.865C107.57 154.039 107.93 154.285 108.224 154.603C108.518 154.915 108.74 155.29 108.89 155.728C109.046 156.166 109.124 156.646 109.124 157.168V163H108.116C107.906 163 107.744 162.97 107.63 162.91C107.516 162.844 107.426 162.715 107.36 162.523L107.162 161.857C106.928 162.067 106.7 162.253 106.478 162.415C106.256 162.571 106.025 162.703 105.785 162.811C105.545 162.919 105.287 163 105.011 163.054C104.741 163.114 104.441 163.144 104.111 163.144C103.721 163.144 103.361 163.093 103.031 162.991C102.701 162.883 102.416 162.724 102.176 162.514C101.936 162.304 101.75 162.043 101.618 161.731C101.486 161.419 101.42 161.056 101.42 160.642C101.42 160.408 101.459 160.177 101.537 159.949C101.615 159.715 101.741 159.493 101.915 159.283C102.095 159.073 102.326 158.875 102.608 158.689C102.89 158.503 103.235 158.341 103.643 158.203C104.057 158.065 104.537 157.954 105.083 157.87C105.629 157.78 106.253 157.726 106.955 157.708V157.168C106.955 156.55 106.823 156.094 106.559 155.8C106.295 155.5 105.914 155.35 105.416 155.35C105.056 155.35 104.756 155.392 104.516 155.476C104.282 155.56 104.075 155.656 103.895 155.764C103.715 155.866 103.55 155.959 103.4 156.043C103.256 156.127 103.094 156.169 102.914 156.169C102.758 156.169 102.626 156.13 102.518 156.052C102.41 155.968 102.323 155.872 102.257 155.764L101.861 155.053ZM114.173 163.144C113.369 163.144 112.751 162.919 112.319 162.469C111.893 162.013 111.68 161.386 111.68 160.588V155.431H110.735C110.615 155.431 110.513 155.392 110.429 155.314C110.345 155.236 110.303 155.119 110.303 154.963V154.081L111.788 153.838L112.256 151.318C112.286 151.198 112.343 151.105 112.427 151.039C112.511 150.973 112.619 150.94 112.751 150.94H113.903V153.847H116.369V155.431H113.903V160.435C113.903 160.723 113.972 160.948 114.11 161.11C114.254 161.272 114.449 161.353 114.695 161.353C114.833 161.353 114.947 161.338 115.037 161.308C115.133 161.272 115.214 161.236 115.28 161.2C115.352 161.164 115.415 161.131 115.469 161.101C115.523 161.065 115.577 161.047 115.631 161.047C115.697 161.047 115.751 161.065 115.793 161.101C115.835 161.131 115.88 161.179 115.928 161.245L116.594 162.325C116.27 162.595 115.898 162.799 115.478 162.937C115.058 163.075 114.623 163.144 114.173 163.144ZM125.748 153.766V163H124.389C124.095 163 123.909 162.865 123.831 162.595L123.678 161.857C123.3 162.241 122.883 162.553 122.427 162.793C121.971 163.027 121.434 163.144 120.816 163.144C120.312 163.144 119.865 163.06 119.475 162.892C119.091 162.718 118.767 162.475 118.503 162.163C118.239 161.851 118.038 161.482 117.9 161.056C117.768 160.624 117.702 160.15 117.702 159.634V153.766H119.925V159.634C119.925 160.198 120.054 160.636 120.312 160.948C120.576 161.254 120.969 161.407 121.491 161.407C121.875 161.407 122.235 161.323 122.571 161.155C122.907 160.981 123.225 160.744 123.525 160.444V153.766H125.748ZM130.049 155.368C130.337 154.816 130.679 154.384 131.075 154.072C131.471 153.754 131.939 153.595 132.479 153.595C132.905 153.595 133.247 153.688 133.505 153.874L133.361 155.539C133.331 155.647 133.286 155.725 133.226 155.773C133.172 155.815 133.097 155.836 133.001 155.836C132.911 155.836 132.776 155.821 132.596 155.791C132.422 155.761 132.251 155.746 132.083 155.746C131.837 155.746 131.618 155.782 131.426 155.854C131.234 155.926 131.06 156.031 130.904 156.169C130.754 156.301 130.619 156.463 130.499 156.655C130.385 156.847 130.277 157.066 130.175 157.312V163H127.952V153.766H129.257C129.485 153.766 129.644 153.808 129.734 153.892C129.824 153.97 129.884 154.114 129.914 154.324L130.049 155.368ZM140.353 157.321C140.353 157.033 140.311 156.763 140.227 156.511C140.149 156.253 140.029 156.028 139.867 155.836C139.705 155.644 139.498 155.494 139.246 155.386C139 155.272 138.712 155.215 138.382 155.215C137.74 155.215 137.233 155.398 136.861 155.764C136.495 156.13 136.261 156.649 136.159 157.321H140.353ZM136.114 158.662C136.15 159.136 136.234 159.547 136.366 159.895C136.498 160.237 136.672 160.522 136.888 160.75C137.104 160.972 137.359 161.14 137.653 161.254C137.953 161.362 138.283 161.416 138.643 161.416C139.003 161.416 139.312 161.374 139.57 161.29C139.834 161.206 140.062 161.113 140.254 161.011C140.452 160.909 140.623 160.816 140.767 160.732C140.917 160.648 141.061 160.606 141.199 160.606C141.385 160.606 141.523 160.675 141.613 160.813L142.252 161.623C142.006 161.911 141.73 162.154 141.424 162.352C141.118 162.544 140.797 162.7 140.461 162.82C140.131 162.934 139.792 163.015 139.444 163.063C139.102 163.111 138.769 163.135 138.445 163.135C137.803 163.135 137.206 163.03 136.654 162.82C136.102 162.604 135.622 162.289 135.214 161.875C134.806 161.455 134.485 160.939 134.251 160.327C134.017 159.709 133.9 158.995 133.9 158.185C133.9 157.555 134.002 156.964 134.206 156.412C134.41 155.854 134.701 155.371 135.079 154.963C135.463 154.549 135.928 154.222 136.474 153.982C137.026 153.742 137.647 153.622 138.337 153.622C138.919 153.622 139.456 153.715 139.948 153.901C140.44 154.087 140.863 154.36 141.217 154.72C141.571 155.074 141.847 155.512 142.045 156.034C142.249 156.55 142.351 157.141 142.351 157.807C142.351 158.143 142.315 158.371 142.243 158.491C142.171 158.605 142.033 158.662 141.829 158.662H136.114ZM150.7 153.766V163H148.468V153.766H150.7ZM151.006 151.075C151.006 151.267 150.967 151.447 150.889 151.615C150.811 151.783 150.706 151.93 150.574 152.056C150.448 152.182 150.298 152.284 150.124 152.362C149.95 152.434 149.764 152.47 149.566 152.47C149.374 152.47 149.191 152.434 149.017 152.362C148.849 152.284 148.702 152.182 148.576 152.056C148.45 151.93 148.348 151.783 148.27 151.615C148.198 151.447 148.162 151.267 148.162 151.075C148.162 150.877 148.198 150.691 148.27 150.517C148.348 150.343 148.45 150.193 148.576 150.067C148.702 149.941 148.849 149.842 149.017 149.77C149.191 149.692 149.374 149.653 149.566 149.653C149.764 149.653 149.95 149.692 150.124 149.77C150.298 149.842 150.448 149.941 150.574 150.067C150.706 150.193 150.811 150.343 150.889 150.517C150.967 150.691 151.006 150.877 151.006 151.075ZM158.6 155.566C158.54 155.662 158.477 155.731 158.411 155.773C158.345 155.809 158.261 155.827 158.159 155.827C158.051 155.827 157.934 155.797 157.808 155.737C157.688 155.677 157.547 155.611 157.385 155.539C157.223 155.461 157.037 155.392 156.827 155.332C156.623 155.272 156.38 155.242 156.098 155.242C155.66 155.242 155.315 155.335 155.063 155.521C154.817 155.707 154.694 155.95 154.694 156.25C154.694 156.448 154.757 156.616 154.883 156.754C155.015 156.886 155.186 157.003 155.396 157.105C155.612 157.207 155.855 157.3 156.125 157.384C156.395 157.462 156.668 157.549 156.944 157.645C157.226 157.741 157.502 157.852 157.772 157.978C158.042 158.098 158.282 158.254 158.492 158.446C158.708 158.632 158.879 158.857 159.005 159.121C159.137 159.385 159.203 159.703 159.203 160.075C159.203 160.519 159.122 160.93 158.96 161.308C158.804 161.68 158.57 162.004 158.258 162.28C157.946 162.55 157.559 162.763 157.097 162.919C156.641 163.069 156.113 163.144 155.513 163.144C155.195 163.144 154.883 163.114 154.577 163.054C154.277 163 153.986 162.922 153.704 162.82C153.428 162.718 153.17 162.598 152.93 162.46C152.696 162.322 152.489 162.172 152.309 162.01L152.822 161.164C152.888 161.062 152.966 160.984 153.056 160.93C153.146 160.876 153.26 160.849 153.398 160.849C153.536 160.849 153.665 160.888 153.785 160.966C153.911 161.044 154.055 161.128 154.217 161.218C154.379 161.308 154.568 161.392 154.784 161.47C155.006 161.548 155.285 161.587 155.621 161.587C155.885 161.587 156.11 161.557 156.296 161.497C156.488 161.431 156.644 161.347 156.764 161.245C156.89 161.143 156.98 161.026 157.034 160.894C157.094 160.756 157.124 160.615 157.124 160.471C157.124 160.255 157.058 160.078 156.926 159.94C156.8 159.802 156.629 159.682 156.413 159.58C156.203 159.478 155.96 159.388 155.684 159.31C155.414 159.226 155.135 159.136 154.847 159.04C154.565 158.944 154.286 158.833 154.01 158.707C153.74 158.575 153.497 158.41 153.281 158.212C153.071 158.014 152.9 157.771 152.768 157.483C152.642 157.195 152.579 156.847 152.579 156.439C152.579 156.061 152.654 155.701 152.804 155.359C152.954 155.017 153.173 154.72 153.461 154.468C153.755 154.21 154.118 154.006 154.55 153.856C154.988 153.7 155.492 153.622 156.062 153.622C156.698 153.622 157.277 153.727 157.799 153.937C158.321 154.147 158.756 154.423 159.104 154.765L158.6 155.566ZM167.332 154.9C167.518 154.714 167.713 154.543 167.917 154.387C168.127 154.225 168.346 154.09 168.574 153.982C168.808 153.868 169.057 153.781 169.321 153.721C169.585 153.655 169.873 153.622 170.185 153.622C170.689 153.622 171.136 153.709 171.526 153.883C171.916 154.051 172.24 154.291 172.498 154.603C172.762 154.909 172.96 155.278 173.092 155.71C173.23 156.136 173.299 156.607 173.299 157.123V163H171.076V157.123C171.076 156.559 170.947 156.124 170.689 155.818C170.431 155.506 170.038 155.35 169.51 155.35C169.126 155.35 168.766 155.437 168.43 155.611C168.094 155.785 167.776 156.022 167.476 156.322V163H165.253V153.766H166.612C166.9 153.766 167.089 153.901 167.179 154.171L167.332 154.9ZM179.499 153.622C180.183 153.622 180.804 153.733 181.362 153.955C181.926 154.177 182.406 154.492 182.802 154.9C183.204 155.308 183.513 155.806 183.729 156.394C183.945 156.982 184.053 157.639 184.053 158.365C184.053 159.097 183.945 159.757 183.729 160.345C183.513 160.933 183.204 161.434 182.802 161.848C182.406 162.262 181.926 162.58 181.362 162.802C180.804 163.024 180.183 163.135 179.499 163.135C178.809 163.135 178.182 163.024 177.618 162.802C177.054 162.58 176.571 162.262 176.169 161.848C175.773 161.434 175.464 160.933 175.242 160.345C175.026 159.757 174.918 159.097 174.918 158.365C174.918 157.639 175.026 156.982 175.242 156.394C175.464 155.806 175.773 155.308 176.169 154.9C176.571 154.492 177.054 154.177 177.618 153.955C178.182 153.733 178.809 153.622 179.499 153.622ZM179.499 161.425C180.267 161.425 180.834 161.167 181.2 160.651C181.572 160.135 181.758 159.379 181.758 158.383C181.758 157.387 181.572 156.628 181.2 156.106C180.834 155.584 180.267 155.323 179.499 155.323C178.719 155.323 178.14 155.587 177.762 156.115C177.39 156.637 177.204 157.393 177.204 158.383C177.204 159.373 177.39 160.129 177.762 160.651C178.14 161.167 178.719 161.425 179.499 161.425ZM188.652 163.144C187.848 163.144 187.23 162.919 186.798 162.469C186.372 162.013 186.159 161.386 186.159 160.588V155.431H185.214C185.094 155.431 184.992 155.392 184.908 155.314C184.824 155.236 184.782 155.119 184.782 154.963V154.081L186.267 153.838L186.735 151.318C186.765 151.198 186.822 151.105 186.906 151.039C186.99 150.973 187.098 150.94 187.23 150.94H188.382V153.847H190.848V155.431H188.382V160.435C188.382 160.723 188.451 160.948 188.589 161.11C188.733 161.272 188.928 161.353 189.174 161.353C189.312 161.353 189.426 161.338 189.516 161.308C189.612 161.272 189.693 161.236 189.759 161.2C189.831 161.164 189.894 161.131 189.948 161.101C190.002 161.065 190.056 161.047 190.11 161.047C190.176 161.047 190.23 161.065 190.272 161.101C190.314 161.131 190.359 161.179 190.407 161.245L191.073 162.325C190.749 162.595 190.377 162.799 189.957 162.937C189.537 163.075 189.102 163.144 188.652 163.144ZM24.2768 181.058C23.6348 181.088 23.0948 181.145 22.6568 181.229C22.2188 181.307 21.8678 181.409 21.6038 181.535C21.3398 181.661 21.1508 181.808 21.0368 181.976C20.9228 182.144 20.8658 182.327 20.8658 182.525C20.8658 182.915 20.9798 183.194 21.2078 183.362C21.4418 183.53 21.7448 183.614 22.1168 183.614C22.5728 183.614 22.9658 183.533 23.2958 183.371C23.6318 183.203 23.9588 182.951 24.2768 182.615V181.058ZM19.1828 177.053C20.2448 176.081 21.5228 175.595 23.0168 175.595C23.5568 175.595 24.0398 175.685 24.4658 175.865C24.8918 176.039 25.2518 176.285 25.5458 176.603C25.8398 176.915 26.0618 177.29 26.2118 177.728C26.3678 178.166 26.4458 178.646 26.4458 179.168V185H25.4378C25.2278 185 25.0658 184.97 24.9518 184.91C24.8378 184.844 24.7478 184.715 24.6818 184.523L24.4838 183.857C24.2498 184.067 24.0218 184.253 23.7998 184.415C23.5778 184.571 23.3468 184.703 23.1068 184.811C22.8668 184.919 22.6088 185 22.3328 185.054C22.0628 185.114 21.7628 185.144 21.4328 185.144C21.0428 185.144 20.6828 185.093 20.3528 184.991C20.0228 184.883 19.7378 184.724 19.4978 184.514C19.2578 184.304 19.0718 184.043 18.9398 183.731C18.8078 183.419 18.7418 183.056 18.7418 182.642C18.7418 182.408 18.7808 182.177 18.8588 181.949C18.9368 181.715 19.0628 181.493 19.2368 181.283C19.4168 181.073 19.6478 180.875 19.9298 180.689C20.2118 180.503 20.5568 180.341 20.9648 180.203C21.3788 180.065 21.8588 179.954 22.4048 179.87C22.9508 179.78 23.5748 179.726 24.2768 179.708V179.168C24.2768 178.55 24.1448 178.094 23.8808 177.8C23.6168 177.5 23.2358 177.35 22.7378 177.35C22.3778 177.35 22.0778 177.392 21.8378 177.476C21.6038 177.56 21.3968 177.656 21.2168 177.764C21.0368 177.866 20.8718 177.959 20.7218 178.043C20.5778 178.127 20.4158 178.169 20.2358 178.169C20.0798 178.169 19.9478 178.13 19.8398 178.052C19.7318 177.968 19.6448 177.872 19.5788 177.764L19.1828 177.053ZM36.6535 175.766L32.9905 185H30.9745L27.3115 175.766H29.1475C29.3155 175.766 29.4535 175.805 29.5615 175.883C29.6755 175.961 29.7505 176.06 29.7865 176.18L31.5685 181.112C31.6645 181.4 31.7485 181.682 31.8205 181.958C31.8925 182.234 31.9555 182.51 32.0095 182.786C32.0695 182.51 32.1355 182.234 32.2075 181.958C32.2795 181.682 32.3665 181.4 32.4685 181.112L34.2865 176.18C34.3285 176.06 34.4035 175.961 34.5115 175.883C34.6195 175.805 34.7485 175.766 34.8985 175.766H36.6535ZM42.4877 181.058C41.8457 181.088 41.3057 181.145 40.8677 181.229C40.4297 181.307 40.0787 181.409 39.8147 181.535C39.5507 181.661 39.3617 181.808 39.2477 181.976C39.1337 182.144 39.0767 182.327 39.0767 182.525C39.0767 182.915 39.1907 183.194 39.4187 183.362C39.6527 183.53 39.9557 183.614 40.3277 183.614C40.7837 183.614 41.1767 183.533 41.5067 183.371C41.8427 183.203 42.1697 182.951 42.4877 182.615V181.058ZM37.3937 177.053C38.4557 176.081 39.7337 175.595 41.2277 175.595C41.7677 175.595 42.2507 175.685 42.6767 175.865C43.1027 176.039 43.4627 176.285 43.7567 176.603C44.0507 176.915 44.2727 177.29 44.4227 177.728C44.5787 178.166 44.6567 178.646 44.6567 179.168V185H43.6487C43.4387 185 43.2767 184.97 43.1627 184.91C43.0487 184.844 42.9587 184.715 42.8927 184.523L42.6947 183.857C42.4607 184.067 42.2327 184.253 42.0107 184.415C41.7887 184.571 41.5577 184.703 41.3177 184.811C41.0777 184.919 40.8197 185 40.5437 185.054C40.2737 185.114 39.9737 185.144 39.6437 185.144C39.2537 185.144 38.8937 185.093 38.5637 184.991C38.2337 184.883 37.9487 184.724 37.7087 184.514C37.4687 184.304 37.2827 184.043 37.1507 183.731C37.0187 183.419 36.9527 183.056 36.9527 182.642C36.9527 182.408 36.9917 182.177 37.0697 181.949C37.1477 181.715 37.2737 181.493 37.4477 181.283C37.6277 181.073 37.8587 180.875 38.1407 180.689C38.4227 180.503 38.7677 180.341 39.1757 180.203C39.5897 180.065 40.0697 179.954 40.6157 179.87C41.1617 179.78 41.7857 179.726 42.4877 179.708V179.168C42.4877 178.55 42.3557 178.094 42.0917 177.8C41.8277 177.5 41.4467 177.35 40.9487 177.35C40.5887 177.35 40.2887 177.392 40.0487 177.476C39.8147 177.56 39.6077 177.656 39.4277 177.764C39.2477 177.866 39.0827 177.959 38.9327 178.043C38.7887 178.127 38.6267 178.169 38.4467 178.169C38.2907 178.169 38.1587 178.13 38.0507 178.052C37.9427 177.968 37.8557 177.872 37.7897 177.764L37.3937 177.053ZM49.0543 175.766V185H46.8223V175.766H49.0543ZM49.3603 173.075C49.3603 173.267 49.3213 173.447 49.2433 173.615C49.1653 173.783 49.0603 173.93 48.9283 174.056C48.8023 174.182 48.6523 174.284 48.4783 174.362C48.3043 174.434 48.1183 174.47 47.9203 174.47C47.7283 174.47 47.5453 174.434 47.3713 174.362C47.2033 174.284 47.0563 174.182 46.9303 174.056C46.8043 173.93 46.7023 173.783 46.6243 173.615C46.5523 173.447 46.5163 173.267 46.5163 173.075C46.5163 172.877 46.5523 172.691 46.6243 172.517C46.7023 172.343 46.8043 172.193 46.9303 172.067C47.0563 171.941 47.2033 171.842 47.3713 171.77C47.5453 171.692 47.7283 171.653 47.9203 171.653C48.1183 171.653 48.3043 171.692 48.4783 171.77C48.6523 171.842 48.8023 171.941 48.9283 172.067C49.0603 172.193 49.1653 172.343 49.2433 172.517C49.3213 172.691 49.3603 172.877 49.3603 173.075ZM53.5707 171.626V185H51.3477V171.626H53.5707ZM60.6635 181.058C60.0215 181.088 59.4815 181.145 59.0435 181.229C58.6055 181.307 58.2545 181.409 57.9905 181.535C57.7265 181.661 57.5375 181.808 57.4235 181.976C57.3095 182.144 57.2525 182.327 57.2525 182.525C57.2525 182.915 57.3665 183.194 57.5945 183.362C57.8285 183.53 58.1315 183.614 58.5035 183.614C58.9595 183.614 59.3525 183.533 59.6825 183.371C60.0185 183.203 60.3455 182.951 60.6635 182.615V181.058ZM55.5695 177.053C56.6315 176.081 57.9095 175.595 59.4035 175.595C59.9435 175.595 60.4265 175.685 60.8525 175.865C61.2785 176.039 61.6385 176.285 61.9325 176.603C62.2265 176.915 62.4485 177.29 62.5985 177.728C62.7545 178.166 62.8325 178.646 62.8325 179.168V185H61.8245C61.6145 185 61.4525 184.97 61.3385 184.91C61.2245 184.844 61.1345 184.715 61.0685 184.523L60.8705 183.857C60.6365 184.067 60.4085 184.253 60.1865 184.415C59.9645 184.571 59.7335 184.703 59.4935 184.811C59.2535 184.919 58.9955 185 58.7195 185.054C58.4495 185.114 58.1495 185.144 57.8195 185.144C57.4295 185.144 57.0695 185.093 56.7395 184.991C56.4095 184.883 56.1245 184.724 55.8845 184.514C55.6445 184.304 55.4585 184.043 55.3265 183.731C55.1945 183.419 55.1285 183.056 55.1285 182.642C55.1285 182.408 55.1675 182.177 55.2455 181.949C55.3235 181.715 55.4495 181.493 55.6235 181.283C55.8035 181.073 56.0345 180.875 56.3165 180.689C56.5985 180.503 56.9435 180.341 57.3515 180.203C57.7655 180.065 58.2455 179.954 58.7915 179.87C59.3375 179.78 59.9615 179.726 60.6635 179.708V179.168C60.6635 178.55 60.5315 178.094 60.2675 177.8C60.0035 177.5 59.6225 177.35 59.1245 177.35C58.7645 177.35 58.4645 177.392 58.2245 177.476C57.9905 177.56 57.7835 177.656 57.6035 177.764C57.4235 177.866 57.2585 177.959 57.1085 178.043C56.9645 178.127 56.8025 178.169 56.6225 178.169C56.4665 178.169 56.3345 178.13 56.2265 178.052C56.1185 177.968 56.0315 177.872 55.9655 177.764L55.5695 177.053ZM67.1491 182.606C67.4011 182.912 67.6741 183.128 67.9681 183.254C68.2681 183.38 68.5831 183.443 68.9131 183.443C69.2551 183.443 69.5611 183.383 69.8311 183.263C70.1071 183.137 70.3411 182.945 70.5331 182.687C70.7251 182.423 70.8721 182.09 70.9741 181.688C71.0761 181.28 71.1271 180.794 71.1271 180.23C71.1271 179.216 70.9591 178.484 70.6231 178.034C70.2871 177.578 69.8041 177.35 69.1741 177.35C68.7481 177.35 68.3761 177.449 68.0581 177.647C67.7401 177.839 67.4371 178.112 67.1491 178.466V182.606ZM67.1491 176.9C67.5211 176.51 67.9321 176.201 68.3821 175.973C68.8381 175.739 69.3571 175.622 69.9391 175.622C70.4731 175.622 70.9531 175.727 71.3791 175.937C71.8111 176.147 72.1771 176.45 72.4771 176.846C72.7831 177.236 73.0171 177.71 73.1791 178.268C73.3411 178.826 73.4221 179.453 73.4221 180.149C73.4221 180.899 73.3291 181.58 73.1431 182.192C72.9571 182.804 72.6901 183.329 72.3421 183.767C72.0001 184.199 71.5861 184.535 71.1001 184.775C70.6141 185.015 70.0741 185.135 69.4801 185.135C69.1921 185.135 68.9311 185.105 68.6971 185.045C68.4631 184.991 68.2471 184.913 68.0491 184.811C67.8511 184.709 67.6681 184.586 67.5001 184.442C67.3381 184.292 67.1821 184.127 67.0321 183.947L66.9331 184.568C66.8971 184.724 66.8341 184.835 66.7441 184.901C66.6601 184.967 66.5431 185 66.3931 185H64.9261V171.626H67.1491V176.9ZM77.389 171.626V185H75.166V171.626H77.389ZM85.5529 179.321C85.5529 179.033 85.5109 178.763 85.4269 178.511C85.3489 178.253 85.2289 178.028 85.0669 177.836C84.9049 177.644 84.6979 177.494 84.4459 177.386C84.1999 177.272 83.9119 177.215 83.5819 177.215C82.9399 177.215 82.4329 177.398 82.0609 177.764C81.6949 178.13 81.4609 178.649 81.3589 179.321H85.5529ZM81.3139 180.662C81.3499 181.136 81.4339 181.547 81.5659 181.895C81.6979 182.237 81.8719 182.522 82.0879 182.75C82.3039 182.972 82.5589 183.14 82.8529 183.254C83.1529 183.362 83.4829 183.416 83.8429 183.416C84.2029 183.416 84.5119 183.374 84.7699 183.29C85.0339 183.206 85.2619 183.113 85.4539 183.011C85.6519 182.909 85.8229 182.816 85.9669 182.732C86.1169 182.648 86.2609 182.606 86.3989 182.606C86.5849 182.606 86.7229 182.675 86.8129 182.813L87.4519 183.623C87.2059 183.911 86.9299 184.154 86.6239 184.352C86.3179 184.544 85.9969 184.7 85.6609 184.82C85.3309 184.934 84.9919 185.015 84.6439 185.063C84.3019 185.111 83.9689 185.135 83.6449 185.135C83.0029 185.135 82.4059 185.03 81.8539 184.82C81.3019 184.604 80.8219 184.289 80.4139 183.875C80.0059 183.455 79.6849 182.939 79.4509 182.327C79.2169 181.709 79.0999 180.995 79.0999 180.185C79.0999 179.555 79.2019 178.964 79.4059 178.412C79.6099 177.854 79.9009 177.371 80.2789 176.963C80.6629 176.549 81.1279 176.222 81.6739 175.982C82.2259 175.742 82.8469 175.622 83.5369 175.622C84.1189 175.622 84.6559 175.715 85.1479 175.901C85.6399 176.087 86.0629 176.36 86.4169 176.72C86.7709 177.074 87.0469 177.512 87.2449 178.034C87.4489 178.55 87.5509 179.141 87.5509 179.807C87.5509 180.143 87.5149 180.371 87.4429 180.491C87.3709 180.605 87.2329 180.662 87.0289 180.662H81.3139ZM94.244 185V177.44L93.443 177.314C93.269 177.278 93.128 177.218 93.02 177.134C92.918 177.044 92.867 176.918 92.867 176.756V175.847H94.244V175.163C94.244 174.635 94.322 174.161 94.478 173.741C94.64 173.321 94.868 172.964 95.162 172.67C95.462 172.376 95.825 172.151 96.251 171.995C96.677 171.839 97.157 171.761 97.691 171.761C98.117 171.761 98.513 171.818 98.879 171.932L98.834 173.048C98.828 173.132 98.804 173.201 98.762 173.255C98.72 173.303 98.663 173.342 98.591 173.372C98.525 173.396 98.447 173.414 98.357 173.426C98.267 173.432 98.171 173.435 98.069 173.435C97.805 173.435 97.568 173.465 97.358 173.525C97.154 173.579 96.98 173.678 96.836 173.822C96.692 173.96 96.581 174.146 96.503 174.38C96.431 174.608 96.395 174.893 96.395 175.235V175.847H98.798V177.431H96.467V185H94.244ZM103.887 175.622C104.571 175.622 105.192 175.733 105.75 175.955C106.314 176.177 106.794 176.492 107.19 176.9C107.592 177.308 107.901 177.806 108.117 178.394C108.333 178.982 108.441 179.639 108.441 180.365C108.441 181.097 108.333 181.757 108.117 182.345C107.901 182.933 107.592 183.434 107.19 183.848C106.794 184.262 106.314 184.58 105.75 184.802C105.192 185.024 104.571 185.135 103.887 185.135C103.197 185.135 102.57 185.024 102.006 184.802C101.442 184.58 100.959 184.262 100.557 183.848C100.161 183.434 99.8521 182.933 99.6301 182.345C99.4141 181.757 99.3061 181.097 99.3061 180.365C99.3061 179.639 99.4141 178.982 99.6301 178.394C99.8521 177.806 100.161 177.308 100.557 176.9C100.959 176.492 101.442 176.177 102.006 175.955C102.57 175.733 103.197 175.622 103.887 175.622ZM103.887 183.425C104.655 183.425 105.222 183.167 105.588 182.651C105.96 182.135 106.146 181.379 106.146 180.383C106.146 179.387 105.96 178.628 105.588 178.106C105.222 177.584 104.655 177.323 103.887 177.323C103.107 177.323 102.528 177.587 102.15 178.115C101.778 178.637 101.592 179.393 101.592 180.383C101.592 181.373 101.778 182.129 102.15 182.651C102.528 183.167 103.107 183.425 103.887 183.425ZM112.234 177.368C112.522 176.816 112.864 176.384 113.26 176.072C113.656 175.754 114.124 175.595 114.664 175.595C115.09 175.595 115.432 175.688 115.69 175.874L115.546 177.539C115.516 177.647 115.471 177.725 115.411 177.773C115.357 177.815 115.282 177.836 115.186 177.836C115.096 177.836 114.961 177.821 114.781 177.791C114.607 177.761 114.436 177.746 114.268 177.746C114.022 177.746 113.803 177.782 113.611 177.854C113.419 177.926 113.245 178.031 113.089 178.169C112.939 178.301 112.804 178.463 112.684 178.655C112.57 178.847 112.462 179.066 112.36 179.312V185H110.137V175.766H111.442C111.67 175.766 111.829 175.808 111.919 175.892C112.009 175.97 112.069 176.114 112.099 176.324L112.234 177.368ZM128.816 183.002V185H121.193V171.986H123.614V183.002H128.816ZM135.668 179.321C135.668 179.033 135.626 178.763 135.542 178.511C135.464 178.253 135.344 178.028 135.182 177.836C135.02 177.644 134.813 177.494 134.561 177.386C134.315 177.272 134.027 177.215 133.697 177.215C133.055 177.215 132.548 177.398 132.176 177.764C131.81 178.13 131.576 178.649 131.474 179.321H135.668ZM131.429 180.662C131.465 181.136 131.549 181.547 131.681 181.895C131.813 182.237 131.987 182.522 132.203 182.75C132.419 182.972 132.674 183.14 132.968 183.254C133.268 183.362 133.598 183.416 133.958 183.416C134.318 183.416 134.627 183.374 134.885 183.29C135.149 183.206 135.377 183.113 135.569 183.011C135.767 182.909 135.938 182.816 136.082 182.732C136.232 182.648 136.376 182.606 136.514 182.606C136.7 182.606 136.838 182.675 136.928 182.813L137.567 183.623C137.321 183.911 137.045 184.154 136.739 184.352C136.433 184.544 136.112 184.7 135.776 184.82C135.446 184.934 135.107 185.015 134.759 185.063C134.417 185.111 134.084 185.135 133.76 185.135C133.118 185.135 132.521 185.03 131.969 184.82C131.417 184.604 130.937 184.289 130.529 183.875C130.121 183.455 129.8 182.939 129.566 182.327C129.332 181.709 129.215 180.995 129.215 180.185C129.215 179.555 129.317 178.964 129.521 178.412C129.725 177.854 130.016 177.371 130.394 176.963C130.778 176.549 131.243 176.222 131.789 175.982C132.341 175.742 132.962 175.622 133.652 175.622C134.234 175.622 134.771 175.715 135.263 175.901C135.755 176.087 136.178 176.36 136.532 176.72C136.886 177.074 137.162 177.512 137.36 178.034C137.564 178.55 137.666 179.141 137.666 179.807C137.666 180.143 137.63 180.371 137.558 180.491C137.486 180.605 137.348 180.662 137.144 180.662H131.429ZM145.13 178.124C144.878 177.818 144.602 177.602 144.302 177.476C144.008 177.35 143.69 177.287 143.348 177.287C143.012 177.287 142.709 177.35 142.439 177.476C142.169 177.602 141.938 177.794 141.746 178.052C141.554 178.304 141.407 178.628 141.305 179.024C141.203 179.414 141.152 179.876 141.152 180.41C141.152 180.95 141.194 181.409 141.278 181.787C141.368 182.159 141.494 182.465 141.656 182.705C141.818 182.939 142.016 183.11 142.25 183.218C142.484 183.32 142.745 183.371 143.033 183.371C143.495 183.371 143.888 183.275 144.212 183.083C144.536 182.891 144.842 182.618 145.13 182.264V178.124ZM147.353 171.626V185H145.994C145.7 185 145.514 184.865 145.436 184.595L145.247 183.704C144.875 184.13 144.446 184.475 143.96 184.739C143.48 185.003 142.919 185.135 142.277 185.135C141.773 185.135 141.311 185.03 140.891 184.82C140.471 184.61 140.108 184.307 139.802 183.911C139.502 183.509 139.268 183.014 139.1 182.426C138.938 181.838 138.857 181.166 138.857 180.41C138.857 179.726 138.95 179.09 139.136 178.502C139.322 177.914 139.589 177.404 139.937 176.972C140.285 176.54 140.702 176.204 141.188 175.964C141.674 175.718 142.22 175.595 142.826 175.595C143.342 175.595 143.783 175.676 144.149 175.838C144.515 176 144.842 176.219 145.13 176.495V171.626H147.353ZM152.922 180.158C153.198 180.158 153.438 180.122 153.642 180.05C153.846 179.972 154.014 179.867 154.146 179.735C154.284 179.603 154.386 179.444 154.452 179.258C154.524 179.072 154.56 178.868 154.56 178.646C154.56 178.19 154.422 177.83 154.146 177.566C153.876 177.296 153.468 177.161 152.922 177.161C152.376 177.161 151.965 177.296 151.689 177.566C151.419 177.83 151.284 178.19 151.284 178.646C151.284 178.862 151.317 179.063 151.383 179.249C151.455 179.435 151.557 179.597 151.689 179.735C151.827 179.867 151.998 179.972 152.202 180.05C152.412 180.122 152.652 180.158 152.922 180.158ZM155.433 185.414C155.433 185.234 155.379 185.087 155.271 184.973C155.163 184.859 155.016 184.772 154.83 184.712C154.644 184.646 154.425 184.598 154.173 184.568C153.927 184.538 153.663 184.517 153.381 184.505C153.105 184.487 152.817 184.472 152.517 184.46C152.223 184.448 151.935 184.424 151.653 184.388C151.407 184.526 151.206 184.688 151.05 184.874C150.9 185.06 150.825 185.276 150.825 185.522C150.825 185.684 150.864 185.834 150.942 185.972C151.026 186.116 151.155 186.239 151.329 186.341C151.509 186.443 151.74 186.521 152.022 186.575C152.304 186.635 152.649 186.665 153.057 186.665C153.471 186.665 153.828 186.632 154.128 186.566C154.428 186.506 154.674 186.419 154.866 186.305C155.064 186.197 155.208 186.065 155.298 185.909C155.388 185.759 155.433 185.594 155.433 185.414ZM157.647 176.081V176.909C157.647 177.173 157.488 177.335 157.17 177.395L156.342 177.548C156.468 177.866 156.531 178.214 156.531 178.592C156.531 179.048 156.438 179.462 156.252 179.834C156.072 180.2 155.82 180.512 155.496 180.77C155.172 181.028 154.788 181.229 154.344 181.373C153.906 181.511 153.432 181.58 152.922 181.58C152.742 181.58 152.568 181.571 152.4 181.553C152.232 181.535 152.067 181.511 151.905 181.481C151.617 181.655 151.473 181.85 151.473 182.066C151.473 182.252 151.557 182.39 151.725 182.48C151.899 182.564 152.127 182.624 152.409 182.66C152.691 182.696 153.012 182.72 153.372 182.732C153.732 182.738 154.101 182.756 154.479 182.786C154.857 182.816 155.226 182.87 155.586 182.948C155.946 183.02 156.267 183.137 156.549 183.299C156.831 183.461 157.056 183.683 157.224 183.965C157.398 184.241 157.485 184.598 157.485 185.036C157.485 185.444 157.383 185.84 157.179 186.224C156.981 186.608 156.69 186.95 156.306 187.25C155.928 187.55 155.46 187.79 154.902 187.97C154.35 188.156 153.72 188.249 153.012 188.249C152.316 188.249 151.71 188.18 151.194 188.042C150.678 187.91 150.249 187.73 149.907 187.502C149.565 187.28 149.31 187.022 149.142 186.728C148.974 186.434 148.89 186.128 148.89 185.81C148.89 185.378 149.019 185.018 149.277 184.73C149.541 184.436 149.901 184.202 150.357 184.028C150.111 183.902 149.916 183.734 149.772 183.524C149.628 183.314 149.556 183.038 149.556 182.696C149.556 182.558 149.58 182.417 149.628 182.273C149.682 182.123 149.757 181.976 149.853 181.832C149.955 181.688 150.081 181.553 150.231 181.427C150.381 181.295 150.558 181.178 150.762 181.076C150.294 180.824 149.925 180.488 149.655 180.068C149.391 179.648 149.259 179.156 149.259 178.592C149.259 178.136 149.349 177.725 149.529 177.359C149.715 176.987 149.97 176.672 150.294 176.414C150.624 176.15 151.011 175.949 151.455 175.811C151.905 175.673 152.394 175.604 152.922 175.604C153.318 175.604 153.69 175.646 154.038 175.73C154.386 175.808 154.704 175.925 154.992 176.081H157.647ZM164.848 179.321C164.848 179.033 164.806 178.763 164.722 178.511C164.644 178.253 164.524 178.028 164.362 177.836C164.2 177.644 163.993 177.494 163.741 177.386C163.495 177.272 163.207 177.215 162.877 177.215C162.235 177.215 161.728 177.398 161.356 177.764C160.99 178.13 160.756 178.649 160.654 179.321H164.848ZM160.609 180.662C160.645 181.136 160.729 181.547 160.861 181.895C160.993 182.237 161.167 182.522 161.383 182.75C161.599 182.972 161.854 183.14 162.148 183.254C162.448 183.362 162.778 183.416 163.138 183.416C163.498 183.416 163.807 183.374 164.065 183.29C164.329 183.206 164.557 183.113 164.749 183.011C164.947 182.909 165.118 182.816 165.262 182.732C165.412 182.648 165.556 182.606 165.694 182.606C165.88 182.606 166.018 182.675 166.108 182.813L166.747 183.623C166.501 183.911 166.225 184.154 165.919 184.352C165.613 184.544 165.292 184.7 164.956 184.82C164.626 184.934 164.287 185.015 163.939 185.063C163.597 185.111 163.264 185.135 162.94 185.135C162.298 185.135 161.701 185.03 161.149 184.82C160.597 184.604 160.117 184.289 159.709 183.875C159.301 183.455 158.98 182.939 158.746 182.327C158.512 181.709 158.395 180.995 158.395 180.185C158.395 179.555 158.497 178.964 158.701 178.412C158.905 177.854 159.196 177.371 159.574 176.963C159.958 176.549 160.423 176.222 160.969 175.982C161.521 175.742 162.142 175.622 162.832 175.622C163.414 175.622 163.951 175.715 164.443 175.901C164.935 176.087 165.358 176.36 165.712 176.72C166.066 177.074 166.342 177.512 166.54 178.034C166.744 178.55 166.846 179.141 166.846 179.807C166.846 180.143 166.81 180.371 166.738 180.491C166.666 180.605 166.528 180.662 166.324 180.662H160.609ZM170.611 177.368C170.899 176.816 171.241 176.384 171.637 176.072C172.033 175.754 172.501 175.595 173.041 175.595C173.467 175.595 173.809 175.688 174.067 175.874L173.923 177.539C173.893 177.647 173.848 177.725 173.788 177.773C173.734 177.815 173.659 177.836 173.563 177.836C173.473 177.836 173.338 177.821 173.158 177.791C172.984 177.761 172.813 177.746 172.645 177.746C172.399 177.746 172.18 177.782 171.988 177.854C171.796 177.926 171.622 178.031 171.466 178.169C171.316 178.301 171.181 178.463 171.061 178.655C170.947 178.847 170.839 179.066 170.737 179.312V185H168.514V175.766H169.819C170.047 175.766 170.206 175.808 170.296 175.892C170.386 175.97 170.446 176.114 170.476 176.324L170.611 177.368ZM174.202 183.776C174.202 183.59 174.235 183.413 174.301 183.245C174.373 183.077 174.469 182.933 174.589 182.813C174.709 182.693 174.853 182.597 175.021 182.525C175.189 182.453 175.369 182.417 175.561 182.417C175.753 182.417 175.93 182.453 176.092 182.525C176.26 182.597 176.404 182.693 176.524 182.813C176.65 182.933 176.749 183.077 176.821 183.245C176.893 183.413 176.929 183.59 176.929 183.776C176.929 183.968 176.893 184.148 176.821 184.316C176.749 184.478 176.65 184.619 176.524 184.739C176.404 184.859 176.26 184.952 176.092 185.018C175.93 185.09 175.753 185.126 175.561 185.126C175.369 185.126 175.189 185.09 175.021 185.018C174.853 184.952 174.709 184.859 174.589 184.739C174.469 184.619 174.373 184.478 174.301 184.316C174.235 184.148 174.202 183.968 174.202 183.776Z" fill="#E76F51" fill-opacity="0.75"/>
</svg>
