<svg width="176" height="43" viewBox="0 0 176 43" fill="none" xmlns="http://www.w3.org/2000/svg">
<path d="M71.9715 10.072V33H69.2515V16.152C69.2515 15.928 69.2568 15.688 69.2675 15.432C69.2888 15.176 69.3102 14.9147 69.3315 14.648L61.4595 28.984C61.2142 29.464 60.8408 29.704 60.3395 29.704H59.8915C59.3902 29.704 59.0168 29.464 58.7715 28.984L50.7395 14.584C50.8035 15.1493 50.8355 15.672 50.8355 16.152V33H48.1155V10.072H50.4035C50.6808 10.072 50.8942 10.0987 51.0435 10.152C51.1928 10.2053 51.3368 10.3547 51.4755 10.6L59.3955 24.712C59.5235 24.968 59.6462 25.2347 59.7635 25.512C59.8915 25.7893 60.0088 26.072 60.1155 26.36C60.2222 26.072 60.3342 25.7893 60.4515 25.512C60.5688 25.224 60.6968 24.952 60.8355 24.696L68.6115 10.6C68.7395 10.3547 68.8782 10.2053 69.0275 10.152C69.1875 10.0987 69.4062 10.072 69.6835 10.072H71.9715ZM79.9203 16.792V33H77.0723V16.792H79.9203ZM80.5283 11.704C80.5283 11.9813 80.4696 12.2427 80.3523 12.488C80.2456 12.7227 80.0963 12.936 79.9043 13.128C79.7229 13.3093 79.5043 13.4533 79.2483 13.56C79.0029 13.6667 78.7416 13.72 78.4643 13.72C78.1869 13.72 77.9256 13.6667 77.6803 13.56C77.4456 13.4533 77.2376 13.3093 77.0563 13.128C76.8749 12.936 76.7309 12.7227 76.6243 12.488C76.5176 12.2427 76.4643 11.9813 76.4643 11.704C76.4643 11.4267 76.5176 11.1653 76.6243 10.92C76.7309 10.664 76.8749 10.4453 77.0563 10.264C77.2376 10.072 77.4456 9.92267 77.6803 9.816C77.9256 9.70933 78.1869 9.656 78.4643 9.656C78.7416 9.656 79.0029 9.70933 79.2483 9.816C79.5043 9.92267 79.7229 10.072 79.9043 10.264C80.0963 10.4453 80.2456 10.664 80.3523 10.92C80.4696 11.1653 80.5283 11.4267 80.5283 11.704ZM87.2878 19.144C87.6398 18.7493 88.0131 18.392 88.4078 18.072C88.8024 17.752 89.2184 17.48 89.6558 17.256C90.1038 17.0213 90.5731 16.8453 91.0638 16.728C91.5651 16.6 92.1038 16.536 92.6798 16.536C93.5651 16.536 94.3438 16.6853 95.0158 16.984C95.6984 17.272 96.2638 17.688 96.7118 18.232C97.1704 18.7653 97.5171 19.4107 97.7518 20.168C97.9864 20.9253 98.1038 21.7627 98.1038 22.68V33H95.2398V22.68C95.2398 21.4533 94.9571 20.504 94.3918 19.832C93.8371 19.1493 92.9891 18.808 91.8478 18.808C91.0051 18.808 90.2158 19.0107 89.4798 19.416C88.7544 19.8213 88.0824 20.3707 87.4638 21.064V33H84.5998V16.792H86.3118C86.7171 16.792 86.9678 16.9893 87.0638 17.384L87.2878 19.144ZM111.228 25.704C109.916 25.7467 108.796 25.8533 107.868 26.024C106.95 26.184 106.198 26.3973 105.612 26.664C105.036 26.9307 104.614 27.2453 104.348 27.608C104.092 27.9707 103.964 28.376 103.964 28.824C103.964 29.2507 104.033 29.6187 104.172 29.928C104.31 30.2373 104.497 30.4933 104.732 30.696C104.977 30.888 105.26 31.032 105.58 31.128C105.91 31.2133 106.262 31.256 106.636 31.256C107.137 31.256 107.596 31.208 108.012 31.112C108.428 31.0053 108.817 30.856 109.18 30.664C109.553 30.472 109.905 30.2427 110.236 29.976C110.577 29.7093 110.908 29.4053 111.228 29.064V25.704ZM102.028 19.08C102.924 18.216 103.889 17.5707 104.924 17.144C105.958 16.7173 107.105 16.504 108.364 16.504C109.27 16.504 110.076 16.6533 110.78 16.952C111.484 17.2507 112.076 17.6667 112.556 18.2C113.036 18.7333 113.398 19.3787 113.644 20.136C113.889 20.8933 114.012 21.7253 114.012 22.632V33H112.748C112.47 33 112.257 32.9573 112.108 32.872C111.958 32.776 111.841 32.5947 111.756 32.328L111.436 30.792C111.009 31.1867 110.593 31.5387 110.188 31.848C109.782 32.1467 109.356 32.4027 108.908 32.616C108.46 32.8187 107.98 32.9733 107.468 33.08C106.966 33.1973 106.406 33.256 105.788 33.256C105.158 33.256 104.566 33.1707 104.012 33C103.457 32.8187 102.972 32.552 102.556 32.2C102.15 31.848 101.825 31.4053 101.58 30.872C101.345 30.328 101.228 29.688 101.228 28.952C101.228 28.312 101.404 27.6987 101.756 27.112C102.108 26.5147 102.678 25.9867 103.468 25.528C104.257 25.0693 105.286 24.696 106.556 24.408C107.825 24.1093 109.382 23.9387 111.228 23.896V22.632C111.228 21.3733 110.956 20.424 110.412 19.784C109.868 19.1333 109.073 18.808 108.028 18.808C107.324 18.808 106.732 18.8987 106.252 19.08C105.782 19.2507 105.372 19.448 105.02 19.672C104.678 19.8853 104.38 20.0827 104.124 20.264C103.878 20.4347 103.633 20.52 103.388 20.52C103.196 20.52 103.03 20.472 102.892 20.376C102.753 20.2693 102.636 20.1413 102.539 19.992L102.028 19.08ZM137.285 10.072V33H134.181V22.568H121.813V33H118.709V10.072H121.813V20.296H134.181V10.072H137.285ZM155.522 16.792V33H153.826C153.42 33 153.164 32.8027 153.058 32.408L152.834 30.664C152.13 31.4427 151.34 32.072 150.466 32.552C149.591 33.0213 148.588 33.256 147.458 33.256C146.572 33.256 145.788 33.112 145.106 32.824C144.434 32.5253 143.868 32.1093 143.41 31.576C142.951 31.0427 142.604 30.3973 142.37 29.64C142.146 28.8827 142.034 28.0453 142.034 27.128V16.792H144.882V27.128C144.882 28.3547 145.159 29.304 145.714 29.976C146.279 30.648 147.138 30.984 148.29 30.984C149.132 30.984 149.916 30.7867 150.642 30.392C151.378 29.9867 152.055 29.432 152.674 28.728V16.792H155.522ZM162.901 29.096C163.424 29.8 163.995 30.296 164.613 30.584C165.243 30.872 165.931 31.016 166.677 31.016C168.203 31.016 169.371 30.4773 170.181 29.4C170.992 28.3227 171.397 26.7173 171.397 24.584C171.397 22.6 171.035 21.144 170.309 20.216C169.595 19.2773 168.571 18.808 167.237 18.808C166.309 18.808 165.499 19.0213 164.805 19.448C164.123 19.8747 163.488 20.4773 162.901 21.256V29.096ZM162.901 19.128C163.584 18.3387 164.352 17.7093 165.205 17.24C166.069 16.7707 167.061 16.536 168.181 16.536C169.131 16.536 169.984 16.7173 170.741 17.08C171.509 17.4427 172.16 17.9707 172.693 18.664C173.227 19.3467 173.632 20.1787 173.909 21.16C174.197 22.1413 174.341 23.2453 174.341 24.472C174.341 25.784 174.181 26.9787 173.861 28.056C173.541 29.1333 173.077 30.056 172.469 30.824C171.872 31.5813 171.141 32.1733 170.277 32.6C169.413 33.016 168.443 33.224 167.365 33.224C166.299 33.224 165.397 33.0267 164.661 32.632C163.936 32.2267 163.301 31.656 162.757 30.92L162.613 32.392C162.528 32.7973 162.283 33 161.877 33H160.037V9.432H162.901V19.128Z" fill="black"/>
<path d="M32.4381 14.8387L40.03 7.24683" stroke="black" stroke-width="2.07052"/>
<path d="M18.6347 18.2515L5.52143 14.4555" stroke="black" stroke-width="2.07052"/>
<path d="M36.3918 37.5269L30.0204 28.8853" stroke="black" stroke-width="2.07052"/>
<circle cx="37.2693" cy="38.6497" r="2.07052" fill="white" stroke="black" stroke-width="1.38035"/>
<path d="M16.3568 38.0297L21.3416 28.5204" stroke="black" stroke-width="2.07052"/>
<circle cx="15.731" cy="39.3099" r="2.07052" transform="rotate(64.0646 15.731 39.3099)" fill="white" stroke="black" stroke-width="1.38035"/>
<circle cx="3.79595" cy="13.4584" r="3.10578" fill="white" stroke="black" stroke-width="1.38035"/>
<circle cx="25.5364" cy="20.7052" r="12.7682" fill="url(#paint0_linear)" stroke="black" stroke-width="1.38035"/>
<path d="M25.4141 27.5771C25.1511 27.5848 24.8953 27.4901 24.6989 27.3124C24.5025 27.1346 24.3804 26.8874 24.3577 26.6211L24.2388 25.6745C23.1066 25.3466 22.4442 24.4954 22.2721 23.1438L21.2531 15.1677C21.0345 15.132 20.8133 15.1158 20.5919 15.1194C20.2643 15.1167 19.9378 15.1597 19.6216 15.2471V27.3435H17.6221V17.6202C17.6221 16.3008 18.2052 15.369 19.2672 14.9814V14.3545C19.2672 13.6298 19.7009 13.1432 20.3451 13.1432C20.9893 13.1432 21.3935 13.5504 21.4977 14.2935L21.577 14.8744C22.7397 15.2045 23.4191 16.1535 23.6206 17.6938L24.5626 25.3823C25.1254 25.4927 25.7038 25.4927 26.2666 25.3823L27.2086 17.6949C27.4056 16.1535 28.0929 15.2045 29.2523 14.871L29.3315 14.2901C29.4357 13.5504 29.8455 13.1398 30.4841 13.1398C31.1227 13.1398 31.562 13.6263 31.562 14.351V14.9779C32.624 15.3656 33.2071 16.2973 33.2071 17.6167V27.3401H31.2053V15.2459C30.8892 15.1585 30.5627 15.1155 30.235 15.1183C30.0137 15.1147 29.7924 15.1308 29.5738 15.1666L28.5548 23.1438C28.3861 24.4713 27.7079 25.3432 26.5882 25.6745L26.4761 26.6223C26.4586 26.8915 26.3372 27.1428 26.1383 27.3216C25.9395 27.5004 25.6792 27.5922 25.4141 27.5771ZM24.609 25.7665L24.7121 26.582C24.7229 26.7609 24.8026 26.9282 24.934 27.0477C25.0654 27.1672 25.2379 27.2293 25.4141 27.2205C25.5017 27.2268 25.5897 27.2153 25.6729 27.1865C25.756 27.1577 25.8326 27.1123 25.8982 27.0528C25.9638 26.9934 26.0169 26.9212 26.0545 26.8406C26.0922 26.7599 26.1134 26.6724 26.1171 26.5832L26.2202 25.7665C25.6867 25.8554 25.1425 25.8554 24.609 25.7665ZM31.562 26.9869H32.8504V17.6202C32.8504 16.5021 32.4066 15.7302 31.562 15.3702V26.9869ZM17.9754 26.9869H19.2672V15.3702C18.4237 15.7302 17.9844 16.5021 17.9844 17.6202L17.9754 26.9869ZM21.6279 15.2667L22.6265 23.0967C22.7692 24.2297 23.2957 24.9624 24.1901 25.2822L23.2674 17.7386C23.0975 16.4089 22.5597 15.5968 21.6279 15.2667ZM29.2013 15.2667C28.2695 15.5968 27.7294 16.4089 27.5619 17.7398L26.6391 25.2776C27.5347 24.9578 28.06 24.2251 28.2027 23.0921L29.2013 15.2667ZM19.6239 14.8664C19.9415 14.7879 20.2674 14.7493 20.5942 14.7513C20.7986 14.7491 21.0029 14.7614 21.2056 14.7881L21.1444 14.3361C21.0663 13.7816 20.7969 13.501 20.3451 13.501C19.8934 13.501 19.6239 13.8265 19.6239 14.3499V14.8664ZM30.235 14.7513C30.5619 14.7493 30.8877 14.7879 31.2053 14.8664V14.3545C31.2053 13.8311 30.9291 13.5056 30.4841 13.5056C30.0391 13.5056 29.7629 13.7862 29.6848 14.3407L29.6236 14.7927C29.8263 14.766 30.0306 14.7537 30.235 14.7559V14.7513Z" fill="white"/>
<circle cx="41.7555" cy="5.52138" r="4.83121" fill="white" stroke="black" stroke-width="1.38035"/>
<defs>
<linearGradient id="paint0_linear" x1="12.078" y1="7.24683" x2="33.4939" y2="23.978" gradientUnits="userSpaceOnUse">
<stop stop-color="#F4A261"/>
<stop offset="1" stop-color="#E76F51"/>
</linearGradient>
</defs>
</svg>
